<?xml version="1.0" encoding="utf-8" standalone="no"?>
<!DOCTYPE svg PUBLIC "-//W3C//DTD SVG 1.1//EN"
  "http://www.w3.org/Graphics/SVG/1.1/DTD/svg11.dtd">
<svg xmlns:xlink="http://www.w3.org/1999/xlink" width="576pt" height="864pt" viewBox="0 0 576 864" xmlns="http://www.w3.org/2000/svg" version="1.1">
 <metadata>
  <rdf:RDF xmlns:dc="http://purl.org/dc/elements/1.1/" xmlns:cc="http://creativecommons.org/ns#" xmlns:rdf="http://www.w3.org/1999/02/22-rdf-syntax-ns#">
   <cc:Work>
    <dc:type rdf:resource="http://purl.org/dc/dcmitype/StillImage"/>
    <dc:date>2022-03-17T11:36:14.787159</dc:date>
    <dc:format>image/svg+xml</dc:format>
    <dc:creator>
     <cc:Agent>
      <dc:title>Matplotlib v3.5.1, https://matplotlib.org/</dc:title>
     </cc:Agent>
    </dc:creator>
   </cc:Work>
  </rdf:RDF>
 </metadata>
 <defs>
  <style type="text/css">*{stroke-linejoin: round; stroke-linecap: butt}</style>
 </defs>
 <g id="figure_1">
  <g id="patch_1">
   <path d="M 0 864 
L 576 864 
L 576 0 
L 0 0 
z
" style="fill: #ffffff"/>
  </g>
  <g id="axes_1">
   <g id="patch_2">
    <path d="M 72 421.884878 
L 518.4 421.884878 
L 518.4 103.68 
L 72 103.68 
z
" style="fill: #eaeaf2"/>
   </g>
   <g id="matplotlib.axis_1">
    <g id="xtick_1">
     <g id="line2d_1">
      <path d="M 92.290909 421.884878 
L 92.290909 103.68 
" clip-path="url(#p3777ec7163)" style="fill: none; stroke: #ffffff; stroke-width: 0.8; stroke-linecap: round"/>
     </g>
     <g id="line2d_2"/>
    </g>
    <g id="xtick_2">
     <g id="line2d_3">
      <path d="M 147.629752 421.884878 
L 147.629752 103.68 
" clip-path="url(#p3777ec7163)" style="fill: none; stroke: #ffffff; stroke-width: 0.8; stroke-linecap: round"/>
     </g>
     <g id="line2d_4"/>
    </g>
    <g id="xtick_3">
     <g id="line2d_5">
      <path d="M 202.968595 421.884878 
L 202.968595 103.68 
" clip-path="url(#p3777ec7163)" style="fill: none; stroke: #ffffff; stroke-width: 0.8; stroke-linecap: round"/>
     </g>
     <g id="line2d_6"/>
    </g>
    <g id="xtick_4">
     <g id="line2d_7">
      <path d="M 258.307438 421.884878 
L 258.307438 103.68 
" clip-path="url(#p3777ec7163)" style="fill: none; stroke: #ffffff; stroke-width: 0.8; stroke-linecap: round"/>
     </g>
     <g id="line2d_8"/>
    </g>
    <g id="xtick_5">
     <g id="line2d_9">
      <path d="M 313.646281 421.884878 
L 313.646281 103.68 
" clip-path="url(#p3777ec7163)" style="fill: none; stroke: #ffffff; stroke-width: 0.8; stroke-linecap: round"/>
     </g>
     <g id="line2d_10"/>
    </g>
    <g id="xtick_6">
     <g id="line2d_11">
      <path d="M 368.985124 421.884878 
L 368.985124 103.68 
" clip-path="url(#p3777ec7163)" style="fill: none; stroke: #ffffff; stroke-width: 0.8; stroke-linecap: round"/>
     </g>
     <g id="line2d_12"/>
    </g>
    <g id="xtick_7">
     <g id="line2d_13">
      <path d="M 424.323967 421.884878 
L 424.323967 103.68 
" clip-path="url(#p3777ec7163)" style="fill: none; stroke: #ffffff; stroke-width: 0.8; stroke-linecap: round"/>
     </g>
     <g id="line2d_14"/>
    </g>
    <g id="xtick_8">
     <g id="line2d_15">
      <path d="M 479.66281 421.884878 
L 479.66281 103.68 
" clip-path="url(#p3777ec7163)" style="fill: none; stroke: #ffffff; stroke-width: 0.8; stroke-linecap: round"/>
     </g>
     <g id="line2d_16"/>
    </g>
   </g>
   <g id="matplotlib.axis_2">
    <g id="ytick_1">
     <g id="line2d_17">
      <path d="M 72 417.86039 
L 518.4 417.86039 
" clip-path="url(#p3777ec7163)" style="fill: none; stroke: #ffffff; stroke-width: 0.8; stroke-linecap: round"/>
     </g>
     <g id="line2d_18"/>
     <g id="text_1">
      <!-- −1.5 -->
      <g style="fill: #262626" transform="translate(44.81125 422.155078)scale(0.12 -0.12)">
       <defs>
        <path id="ArialMT-2212" d="M 3381 1997 
L 356 1997 
L 356 2522 
L 3381 2522 
L 3381 1997 
z
" transform="scale(0.015625)"/>
        <path id="ArialMT-31" d="M 2384 0 
L 1822 0 
L 1822 3584 
Q 1619 3391 1289 3197 
Q 959 3003 697 2906 
L 697 3450 
Q 1169 3672 1522 3987 
Q 1875 4303 2022 4600 
L 2384 4600 
L 2384 0 
z
" transform="scale(0.015625)"/>
        <path id="ArialMT-2e" d="M 581 0 
L 581 641 
L 1222 641 
L 1222 0 
L 581 0 
z
" transform="scale(0.015625)"/>
        <path id="ArialMT-35" d="M 266 1200 
L 856 1250 
Q 922 819 1161 601 
Q 1400 384 1738 384 
Q 2144 384 2425 690 
Q 2706 997 2706 1503 
Q 2706 1984 2436 2262 
Q 2166 2541 1728 2541 
Q 1456 2541 1237 2417 
Q 1019 2294 894 2097 
L 366 2166 
L 809 4519 
L 3088 4519 
L 3088 3981 
L 1259 3981 
L 1013 2750 
Q 1425 3038 1878 3038 
Q 2478 3038 2890 2622 
Q 3303 2206 3303 1553 
Q 3303 931 2941 478 
Q 2500 -78 1738 -78 
Q 1113 -78 717 272 
Q 322 622 266 1200 
z
" transform="scale(0.015625)"/>
       </defs>
       <use xlink:href="#ArialMT-2212"/>
       <use xlink:href="#ArialMT-31" x="58.398438"/>
       <use xlink:href="#ArialMT-2e" x="114.013672"/>
       <use xlink:href="#ArialMT-35" x="141.796875"/>
      </g>
     </g>
    </g>
    <g id="ytick_2">
     <g id="line2d_19">
      <path d="M 72 360.490129 
L 518.4 360.490129 
" clip-path="url(#p3777ec7163)" style="fill: none; stroke: #ffffff; stroke-width: 0.8; stroke-linecap: round"/>
     </g>
     <g id="line2d_20"/>
     <g id="text_2">
      <!-- −1.0 -->
      <g style="fill: #262626" transform="translate(44.81125 364.784817)scale(0.12 -0.12)">
       <defs>
        <path id="ArialMT-30" d="M 266 2259 
Q 266 3072 433 3567 
Q 600 4063 929 4331 
Q 1259 4600 1759 4600 
Q 2128 4600 2406 4451 
Q 2684 4303 2865 4023 
Q 3047 3744 3150 3342 
Q 3253 2941 3253 2259 
Q 3253 1453 3087 958 
Q 2922 463 2592 192 
Q 2263 -78 1759 -78 
Q 1097 -78 719 397 
Q 266 969 266 2259 
z
M 844 2259 
Q 844 1131 1108 757 
Q 1372 384 1759 384 
Q 2147 384 2411 759 
Q 2675 1134 2675 2259 
Q 2675 3391 2411 3762 
Q 2147 4134 1753 4134 
Q 1366 4134 1134 3806 
Q 844 3388 844 2259 
z
" transform="scale(0.015625)"/>
       </defs>
       <use xlink:href="#ArialMT-2212"/>
       <use xlink:href="#ArialMT-31" x="58.398438"/>
       <use xlink:href="#ArialMT-2e" x="114.013672"/>
       <use xlink:href="#ArialMT-30" x="141.796875"/>
      </g>
     </g>
    </g>
    <g id="ytick_3">
     <g id="line2d_21">
      <path d="M 72 303.119868 
L 518.4 303.119868 
" clip-path="url(#p3777ec7163)" style="fill: none; stroke: #ffffff; stroke-width: 0.8; stroke-linecap: round"/>
     </g>
     <g id="line2d_22"/>
     <g id="text_3">
      <!-- −0.5 -->
      <g style="fill: #262626" transform="translate(44.81125 307.414556)scale(0.12 -0.12)">
       <use xlink:href="#ArialMT-2212"/>
       <use xlink:href="#ArialMT-30" x="58.398438"/>
       <use xlink:href="#ArialMT-2e" x="114.013672"/>
       <use xlink:href="#ArialMT-35" x="141.796875"/>
      </g>
     </g>
    </g>
    <g id="ytick_4">
     <g id="line2d_23">
      <path d="M 72 245.749607 
L 518.4 245.749607 
" clip-path="url(#p3777ec7163)" style="fill: none; stroke: #ffffff; stroke-width: 0.8; stroke-linecap: round"/>
     </g>
     <g id="line2d_24"/>
     <g id="text_4">
      <!-- 0.0 -->
      <g style="fill: #262626" transform="translate(51.82 250.044295)scale(0.12 -0.12)">
       <use xlink:href="#ArialMT-30"/>
       <use xlink:href="#ArialMT-2e" x="55.615234"/>
       <use xlink:href="#ArialMT-30" x="83.398438"/>
      </g>
     </g>
    </g>
    <g id="ytick_5">
     <g id="line2d_25">
      <path d="M 72 188.379346 
L 518.4 188.379346 
" clip-path="url(#p3777ec7163)" style="fill: none; stroke: #ffffff; stroke-width: 0.8; stroke-linecap: round"/>
     </g>
     <g id="line2d_26"/>
     <g id="text_5">
      <!-- 0.5 -->
      <g style="fill: #262626" transform="translate(51.82 192.674034)scale(0.12 -0.12)">
       <use xlink:href="#ArialMT-30"/>
       <use xlink:href="#ArialMT-2e" x="55.615234"/>
       <use xlink:href="#ArialMT-35" x="83.398438"/>
      </g>
     </g>
    </g>
    <g id="ytick_6">
     <g id="line2d_27">
      <path d="M 72 131.009085 
L 518.4 131.009085 
" clip-path="url(#p3777ec7163)" style="fill: none; stroke: #ffffff; stroke-width: 0.8; stroke-linecap: round"/>
     </g>
     <g id="line2d_28"/>
     <g id="text_6">
      <!-- 1.0 -->
      <g style="fill: #262626" transform="translate(51.82 135.303773)scale(0.12 -0.12)">
       <use xlink:href="#ArialMT-31"/>
       <use xlink:href="#ArialMT-2e" x="55.615234"/>
       <use xlink:href="#ArialMT-30" x="83.398438"/>
      </g>
     </g>
    </g>
    <g id="text_7">
     <!-- $\delta\nu$/$\mathrm{\mu Hz}$ -->
     <g style="fill: #262626" transform="translate(38.29125 283.002439)rotate(-90)scale(0.12 -0.12)">
      <defs>
       <path id="DejaVuSans-Oblique-3b4" d="M 3472 4053 
Q 3197 4272 2450 4272 
Q 1659 4272 1588 3906 
Q 1531 3619 2328 3469 
Q 2953 3353 3253 3003 
Q 3616 2581 3447 1716 
Q 3284 888 2763 400 
Q 2238 -91 1488 -91 
Q 741 -91 406 400 
Q 72 888 241 1747 
Q 363 2384 891 2900 
Q 1097 3100 1353 3213 
Q 913 3459 1000 3900 
Q 1166 4750 2544 4750 
Q 3234 4750 3566 4531 
L 3472 4053 
z
M 1753 3056 
Q 1525 2966 1306 2738 
Q 969 2384 847 1747 
Q 722 1113 919 756 
Q 1119 397 1584 397 
Q 2044 397 2381 759 
Q 2722 1122 2838 1716 
Q 2956 2338 2731 2638 
Q 2491 2959 2103 2994 
Q 1906 3013 1753 3056 
z
" transform="scale(0.015625)"/>
       <path id="DejaVuSans-Oblique-3bd" d="M 959 0 
L 572 3500 
L 1191 3500 
L 1522 563 
Q 1972 950 2391 1488 
Q 2706 1891 2788 2241 
Q 2825 2406 2809 2719 
Q 2794 3091 2544 3500 
L 3125 3500 
L 3125 3500 
Q 3288 3222 3353 2834 
Q 3416 2478 3369 2234 
Q 3250 1622 2719 1075 
Q 2025 363 1572 0 
L 959 0 
z
" transform="scale(0.015625)"/>
       <path id="ArialMT-2f" d="M 0 -78 
L 1328 4659 
L 1778 4659 
L 453 -78 
L 0 -78 
z
" transform="scale(0.015625)"/>
       <path id="DejaVuSans-3bc" d="M 544 -1331 
L 544 3500 
L 1119 3500 
L 1119 1325 
Q 1119 872 1334 640 
Q 1550 409 1972 409 
Q 2434 409 2667 671 
Q 2900 934 2900 1459 
L 2900 3500 
L 3475 3500 
L 3475 806 
Q 3475 619 3529 530 
Q 3584 441 3700 441 
Q 3728 441 3778 458 
Q 3828 475 3916 513 
L 3916 50 
Q 3788 -22 3673 -56 
Q 3559 -91 3450 -91 
Q 3234 -91 3106 31 
Q 2978 153 2931 403 
Q 2775 156 2548 32 
Q 2322 -91 2016 -91 
Q 1697 -91 1473 31 
Q 1250 153 1119 397 
L 1119 -1331 
L 544 -1331 
z
" transform="scale(0.015625)"/>
       <path id="DejaVuSans-48" d="M 628 4666 
L 1259 4666 
L 1259 2753 
L 3553 2753 
L 3553 4666 
L 4184 4666 
L 4184 0 
L 3553 0 
L 3553 2222 
L 1259 2222 
L 1259 0 
L 628 0 
L 628 4666 
z
" transform="scale(0.015625)"/>
       <path id="DejaVuSans-7a" d="M 353 3500 
L 3084 3500 
L 3084 2975 
L 922 459 
L 3084 459 
L 3084 0 
L 275 0 
L 275 525 
L 2438 3041 
L 353 3041 
L 353 3500 
z
" transform="scale(0.015625)"/>
      </defs>
      <use xlink:href="#DejaVuSans-Oblique-3b4" transform="translate(0 0.78125)"/>
      <use xlink:href="#DejaVuSans-Oblique-3bd" transform="translate(61.181641 0.78125)"/>
      <use xlink:href="#ArialMT-2f" transform="translate(117.041016 0.78125)"/>
      <use xlink:href="#DejaVuSans-3bc" transform="translate(144.824219 0.78125)"/>
      <use xlink:href="#DejaVuSans-48" transform="translate(208.447266 0.78125)"/>
      <use xlink:href="#DejaVuSans-7a" transform="translate(283.642578 0.78125)"/>
     </g>
    </g>
   </g>
   <g id="PolyCollection_1">
    <defs>
     <path id="m9a1fb2b218" d="M 92.290909 -708.990387 
L 92.290909 -683.977298 
L 93.920701 -672.889186 
L 95.550493 -652.469215 
L 97.180285 -624.809497 
L 98.810077 -592.476879 
L 100.439869 -559.276977 
L 102.06966 -527.555344 
L 103.699452 -500.287142 
L 105.329244 -478.386744 
L 106.959036 -463.52071 
L 108.588828 -456.57898 
L 110.21862 -457.658153 
L 111.848412 -465.236845 
L 113.478204 -477.579754 
L 115.107996 -493.194329 
L 116.737788 -509.619229 
L 118.367579 -524.066747 
L 119.997371 -534.005863 
L 121.627163 -538.718678 
L 123.256955 -538.466181 
L 124.886747 -533.322907 
L 126.516539 -525.731721 
L 128.146331 -517.392331 
L 129.776123 -510.052016 
L 131.405915 -505.384349 
L 133.035706 -504.772843 
L 134.665498 -509.053629 
L 136.29529 -518.731411 
L 137.925082 -533.910533 
L 139.554874 -553.84565 
L 141.184666 -577.343807 
L 142.814458 -602.713761 
L 144.44425 -628.641585 
L 146.074042 -652.970874 
L 147.703834 -674.126357 
L 149.333625 -691.380417 
L 150.963417 -703.951224 
L 152.593209 -712.144893 
L 154.223001 -716.259409 
L 155.852793 -716.992001 
L 157.482585 -715.261758 
L 159.112377 -712.461628 
L 160.742169 -709.848531 
L 162.371961 -708.270257 
L 164.001752 -707.772213 
L 165.631544 -708.979804 
L 167.261336 -712.028219 
L 168.891128 -716.428902 
L 170.52092 -721.861947 
L 172.150712 -727.481582 
L 173.780504 -732.195573 
L 175.410296 -734.837982 
L 177.040088 -734.485965 
L 178.66988 -730.449577 
L 180.299671 -722.559348 
L 181.929463 -710.864302 
L 183.559255 -695.419372 
L 185.189047 -677.551137 
L 186.818839 -657.835462 
L 188.448631 -637.29833 
L 190.078423 -617.631144 
L 191.708215 -599.2956 
L 193.338007 -583.309102 
L 194.967798 -570.300557 
L 196.59759 -560.437772 
L 198.227382 -553.542486 
L 199.857174 -549.135408 
L 201.486966 -546.515985 
L 203.116758 -544.861994 
L 204.74655 -543.159742 
L 206.376342 -540.761518 
L 208.006134 -537.322188 
L 209.635926 -532.613734 
L 211.265717 -526.699188 
L 212.895509 -519.533861 
L 214.525301 -512.04144 
L 216.155093 -504.739023 
L 217.784885 -498.874989 
L 219.414677 -494.983954 
L 221.044469 -493.916983 
L 222.674261 -495.728824 
L 224.304053 -500.699062 
L 225.933844 -508.838259 
L 227.563636 -519.793907 
L 229.193428 -532.759902 
L 230.82322 -547.131325 
L 232.453012 -561.954696 
L 234.082804 -576.492655 
L 235.712596 -590.139749 
L 237.342388 -602.332335 
L 238.97218 -612.605908 
L 240.601972 -621.064783 
L 242.231763 -627.938871 
L 243.861555 -633.630582 
L 245.491347 -638.615411 
L 247.121139 -643.067327 
L 248.750931 -647.898733 
L 250.380723 -653.406035 
L 252.010515 -659.940361 
L 253.640307 -667.257833 
L 255.270099 -675.419668 
L 256.89989 -683.979847 
L 258.529682 -692.673636 
L 260.159474 -700.75055 
L 261.789266 -707.717621 
L 263.419058 -713.082273 
L 265.04885 -716.412763 
L 266.678642 -717.32109 
L 268.308434 -715.611829 
L 269.938226 -711.338563 
L 271.568018 -705.000785 
L 273.197809 -696.903681 
L 274.827601 -687.698123 
L 276.457393 -678.072069 
L 278.087185 -668.486798 
L 279.716977 -659.449319 
L 281.346769 -651.296573 
L 282.976561 -643.947279 
L 284.606353 -637.641799 
L 286.236145 -632.196042 
L 287.865936 -627.763067 
L 289.495728 -623.401351 
L 291.12552 -619.120701 
L 292.755312 -614.429868 
L 294.385104 -609.058853 
L 296.014896 -602.900711 
L 297.644688 -595.855832 
L 299.27448 -588.00276 
L 300.904272 -579.473257 
L 302.534064 -570.58429 
L 304.163855 -562.098442 
L 305.793647 -554.680575 
L 307.423439 -548.592916 
L 309.053231 -544.196491 
L 310.683023 -541.728237 
L 312.312815 -541.155609 
L 313.942607 -542.221904 
L 315.572399 -545.111364 
L 317.202191 -549.202398 
L 318.831982 -554.29121 
L 320.461774 -559.775802 
L 322.091566 -565.107089 
L 323.721358 -570.003983 
L 325.35115 -574.319339 
L 326.980942 -577.83996 
L 328.610734 -580.804283 
L 330.240526 -583.409811 
L 331.870318 -585.877893 
L 333.50011 -588.436166 
L 335.129901 -591.339035 
L 336.759693 -594.93265 
L 338.389485 -599.437396 
L 340.019277 -605.066874 
L 341.649069 -611.321189 
L 343.278861 -618.387621 
L 344.908653 -625.80217 
L 346.538445 -633.345196 
L 348.168237 -640.653775 
L 349.798028 -647.386293 
L 351.42782 -653.088277 
L 353.057612 -657.49489 
L 354.687404 -660.475382 
L 356.317196 -661.953389 
L 357.946988 -662.104888 
L 359.57678 -661.165198 
L 361.206572 -659.442227 
L 362.836364 -657.192373 
L 364.466156 -654.619459 
L 366.095947 -652.111382 
L 367.725739 -649.866353 
L 369.355531 -648.033468 
L 370.985323 -646.538447 
L 372.615115 -645.37901 
L 374.244907 -644.516791 
L 375.874699 -643.826619 
L 377.504491 -643.034739 
L 379.134283 -641.894104 
L 380.764074 -640.274386 
L 382.393866 -637.857865 
L 384.023658 -634.642766 
L 385.65345 -630.588586 
L 387.283242 -625.820486 
L 388.913034 -620.440174 
L 390.542826 -614.648828 
L 392.172618 -609.09012 
L 393.80241 -603.873565 
L 395.432202 -599.407007 
L 397.061993 -595.802073 
L 398.691785 -592.941916 
L 400.321577 -591.048666 
L 401.951369 -590.258876 
L 403.581161 -590.31116 
L 405.210953 -590.887091 
L 406.840745 -591.853837 
L 408.470537 -593.024617 
L 410.100329 -594.185753 
L 411.73012 -594.740043 
L 413.359912 -594.676411 
L 414.989704 -594.080162 
L 416.619496 -593.134036 
L 418.249288 -591.967303 
L 419.87908 -590.983532 
L 421.508872 -590.327601 
L 423.138664 -590.359875 
L 424.768456 -591.168865 
L 426.398248 -592.841629 
L 428.028039 -595.178691 
L 429.657831 -598.156994 
L 431.287623 -601.883917 
L 432.917415 -605.959274 
L 434.547207 -610.041596 
L 436.176999 -614.097459 
L 437.806791 -617.866222 
L 439.436583 -621.089514 
L 441.066375 -623.450632 
L 442.696166 -625.120807 
L 444.325958 -626.189564 
L 445.95575 -626.39591 
L 447.585542 -626.256786 
L 449.215334 -625.821679 
L 450.845126 -625.419089 
L 452.474918 -625.203227 
L 454.10471 -625.310962 
L 455.734502 -625.713817 
L 457.364294 -626.364951 
L 458.994085 -627.209865 
L 460.623877 -628.239425 
L 462.253669 -629.542373 
L 463.883461 -630.89724 
L 465.513253 -632.057093 
L 467.143045 -632.97833 
L 468.772837 -633.392357 
L 470.402629 -633.287902 
L 472.032421 -632.457588 
L 473.662212 -630.830476 
L 475.292004 -628.560332 
L 476.921796 -626.038146 
L 478.551588 -623.358538 
L 480.18138 -620.73521 
L 481.811172 -618.575922 
L 483.440964 -616.541746 
L 485.070756 -614.943566 
L 486.700548 -613.782911 
L 488.33034 -613.017401 
L 489.960131 -612.779167 
L 491.589923 -612.896388 
L 493.219715 -613.38611 
L 494.849507 -613.958391 
L 496.479299 -614.425026 
L 498.109091 -614.869397 
L 498.109091 -618.14638 
L 498.109091 -618.14638 
L 496.479299 -618.497503 
L 494.849507 -618.533812 
L 493.219715 -618.286935 
L 491.589923 -617.83483 
L 489.960131 -617.376848 
L 488.33034 -617.157929 
L 486.700548 -617.440995 
L 485.070756 -618.249587 
L 483.440964 -619.591766 
L 481.811172 -621.531916 
L 480.18138 -624.176091 
L 478.551588 -626.94701 
L 476.921796 -629.739781 
L 475.292004 -632.256907 
L 473.662212 -634.508559 
L 472.032421 -636.339523 
L 470.402629 -637.636316 
L 468.772837 -638.207888 
L 467.143045 -638.258913 
L 465.513253 -637.552194 
L 463.883461 -636.324031 
L 462.253669 -634.796464 
L 460.623877 -633.194632 
L 458.994085 -631.50283 
L 457.364294 -630.202826 
L 455.734502 -629.660261 
L 454.10471 -629.647378 
L 452.474918 -630.263918 
L 450.845126 -630.77372 
L 449.215334 -631.405464 
L 447.585542 -631.75631 
L 445.95575 -631.655818 
L 444.325958 -630.963636 
L 442.696166 -629.662677 
L 441.066375 -627.679072 
L 439.436583 -624.985867 
L 437.806791 -621.807839 
L 436.176999 -618.260552 
L 434.547207 -614.313265 
L 432.917415 -610.358107 
L 431.287623 -606.458593 
L 429.657831 -603.201015 
L 428.028039 -600.616302 
L 426.398248 -598.930627 
L 424.768456 -597.993174 
L 423.138664 -597.662231 
L 421.508872 -597.740376 
L 419.87908 -598.198526 
L 418.249288 -598.775524 
L 416.619496 -599.460981 
L 414.989704 -599.960246 
L 413.359912 -599.986794 
L 411.73012 -599.805328 
L 410.100329 -599.379516 
L 408.470537 -598.827728 
L 406.840745 -597.944815 
L 405.210953 -597.011357 
L 403.581161 -596.327289 
L 401.951369 -595.999336 
L 400.321577 -596.489449 
L 398.691785 -597.86951 
L 397.061993 -600.434905 
L 395.432202 -604.137458 
L 393.80241 -608.759826 
L 392.172618 -614.088418 
L 390.542826 -619.841942 
L 388.913034 -625.708731 
L 387.283242 -631.366012 
L 385.65345 -636.791008 
L 384.023658 -641.521808 
L 382.393866 -645.317514 
L 380.764074 -648.277724 
L 379.134283 -650.443095 
L 377.504491 -651.850962 
L 375.874699 -652.628287 
L 374.244907 -652.968023 
L 372.615115 -653.026978 
L 370.985323 -653.615942 
L 369.355531 -654.521778 
L 367.725739 -656.073163 
L 366.095947 -658.293159 
L 364.466156 -660.729307 
L 362.836364 -663.425283 
L 361.206572 -665.615933 
L 359.57678 -667.236414 
L 357.946988 -667.988466 
L 356.317196 -667.526727 
L 354.687404 -665.792339 
L 353.057612 -662.779874 
L 351.42782 -658.381145 
L 349.798028 -652.727915 
L 348.168237 -646.10194 
L 346.538445 -638.776847 
L 344.908653 -631.481188 
L 343.278861 -624.312688 
L 341.649069 -617.740078 
L 340.019277 -611.728384 
L 338.389485 -606.932682 
L 336.759693 -602.847147 
L 335.129901 -599.714296 
L 333.50011 -596.869366 
L 331.870318 -594.228713 
L 330.240526 -591.402462 
L 328.610734 -588.415368 
L 326.980942 -585.043035 
L 325.35115 -580.977599 
L 323.721358 -576.474444 
L 322.091566 -571.33901 
L 320.461774 -565.826105 
L 318.831982 -560.431609 
L 317.202191 -555.343334 
L 315.572399 -551.076636 
L 313.942607 -548.089722 
L 312.312815 -546.7967 
L 310.683023 -547.386669 
L 309.053231 -549.863117 
L 307.423439 -554.323018 
L 305.793647 -560.434648 
L 304.163855 -567.830875 
L 302.534064 -576.066757 
L 300.904272 -584.684333 
L 299.27448 -593.209842 
L 297.644688 -601.403104 
L 296.014896 -608.812122 
L 294.385104 -615.349017 
L 292.755312 -621.024276 
L 291.12552 -625.916197 
L 289.495728 -630.387835 
L 287.865936 -634.477373 
L 286.236145 -638.808909 
L 284.606353 -643.828408 
L 282.976561 -649.83033 
L 281.346769 -656.860584 
L 279.716977 -665.103259 
L 278.087185 -674.066476 
L 276.457393 -683.743163 
L 274.827601 -693.480833 
L 273.197809 -702.634136 
L 271.568018 -710.67254 
L 269.938226 -717.042312 
L 268.308434 -721.206913 
L 266.678642 -722.935227 
L 265.04885 -722.215979 
L 263.419058 -719.081909 
L 261.789266 -713.772922 
L 260.159474 -706.690155 
L 258.529682 -698.37573 
L 256.89989 -689.513879 
L 255.270099 -680.662277 
L 253.640307 -672.528595 
L 252.010515 -665.268943 
L 250.380723 -659.158118 
L 248.750931 -654.126582 
L 247.121139 -649.560929 
L 245.491347 -645.188305 
L 243.861555 -640.537348 
L 242.231763 -634.902942 
L 240.601972 -627.88468 
L 238.97218 -619.162186 
L 237.342388 -608.684952 
L 235.712596 -596.395962 
L 234.082804 -582.692854 
L 232.453012 -568.234091 
L 230.82322 -553.323374 
L 229.193428 -539.094284 
L 227.563636 -526.221108 
L 225.933844 -515.444435 
L 224.304053 -507.39229 
L 222.674261 -502.467463 
L 221.044469 -500.626739 
L 219.414677 -501.874046 
L 217.784885 -505.619628 
L 216.155093 -511.36667 
L 214.525301 -518.351171 
L 212.895509 -525.627962 
L 211.265717 -532.803324 
L 209.635926 -539.482585 
L 208.006134 -545.033927 
L 206.376342 -549.27055 
L 204.74655 -552.461899 
L 203.116758 -555.015028 
L 201.486966 -557.631957 
L 199.857174 -560.854834 
L 198.227382 -565.712674 
L 196.59759 -572.768431 
L 194.967798 -582.559332 
L 193.338007 -594.6509 
L 191.708215 -610.056453 
L 190.078423 -627.788051 
L 188.448631 -647.393765 
L 186.818839 -667.668185 
L 185.189047 -687.563804 
L 183.559255 -705.884072 
L 181.929463 -721.425094 
L 180.299671 -733.516513 
L 178.66988 -741.625671 
L 177.040088 -745.610295 
L 175.410296 -745.856142 
L 173.780504 -743.10516 
L 172.150712 -738.085417 
L 170.52092 -731.839279 
L 168.891128 -725.489043 
L 167.261336 -720.578821 
L 165.631544 -717.210739 
L 164.001752 -716.843986 
L 162.371961 -719.246158 
L 160.742169 -723.299299 
L 159.112377 -728.169623 
L 157.482585 -732.804527 
L 155.852793 -735.748957 
L 154.223001 -735.370189 
L 152.593209 -730.710963 
L 150.963417 -721.609089 
L 149.333625 -707.679854 
L 147.703834 -689.32216 
L 146.074042 -666.760033 
L 144.44425 -641.8325 
L 142.814458 -615.872987 
L 141.184666 -590.878904 
L 139.554874 -568.42546 
L 137.925082 -550.174331 
L 136.29529 -537.135301 
L 134.665498 -529.206173 
L 133.035706 -526.155956 
L 131.405915 -528.194253 
L 129.776123 -533.16659 
L 128.146331 -540.503651 
L 126.516539 -547.276634 
L 124.886747 -552.101591 
L 123.256955 -552.802272 
L 121.627163 -550.808751 
L 119.997371 -544.905366 
L 118.367579 -536.766975 
L 116.737788 -526.263515 
L 115.107996 -513.837825 
L 113.478204 -501.29998 
L 111.848412 -489.497011 
L 110.21862 -481.15772 
L 108.588828 -478.273162 
L 106.959036 -481.656681 
L 105.329244 -493.435846 
L 103.699452 -513.025845 
L 102.06966 -540.298129 
L 100.439869 -572.65465 
L 98.810077 -606.789255 
L 97.180285 -638.945973 
L 95.550493 -668.687863 
L 93.920701 -692.305218 
L 92.290909 -708.990387 
z
" style="stroke: #1f77b4; stroke-opacity: 0.3"/>
    </defs>
    <g clip-path="url(#p3777ec7163)">
     <use xlink:href="#m9a1fb2b218" x="0" y="864" style="fill: #1f77b4; fill-opacity: 0.3; stroke: #1f77b4; stroke-opacity: 0.3"/>
    </g>
   </g>
   <g id="LineCollection_1">
    <path d="M 92.290909 166.412435 
L 92.290909 165.953473 
" clip-path="url(#p3777ec7163)" style="fill: none; stroke: #000000; stroke-width: 1.5"/>
    <path d="M 129.183471 340.842903 
L 129.183471 338.089131 
" clip-path="url(#p3777ec7163)" style="fill: none; stroke: #000000; stroke-width: 1.5"/>
    <path d="M 147.629752 184.376807 
L 147.629752 182.99992 
" clip-path="url(#p3777ec7163)" style="fill: none; stroke: #000000; stroke-width: 1.5"/>
    <path d="M 166.076033 151.840419 
L 166.076033 150.234052 
" clip-path="url(#p3777ec7163)" style="fill: none; stroke: #000000; stroke-width: 1.5"/>
    <path d="M 184.522314 173.551218 
L 184.522314 171.026927 
" clip-path="url(#p3777ec7163)" style="fill: none; stroke: #000000; stroke-width: 1.5"/>
    <path d="M 202.968595 314.049117 
L 202.968595 311.524825 
" clip-path="url(#p3777ec7163)" style="fill: none; stroke: #000000; stroke-width: 1.5"/>
    <path d="M 221.414876 370.502809 
L 221.414876 367.749036 
" clip-path="url(#p3777ec7163)" style="fill: none; stroke: #000000; stroke-width: 1.5"/>
    <path d="M 239.861157 245.373865 
L 239.861157 242.390611 
" clip-path="url(#p3777ec7163)" style="fill: none; stroke: #000000; stroke-width: 1.5"/>
    <path d="M 258.307438 166.839323 
L 258.307438 163.626588 
" clip-path="url(#p3777ec7163)" style="fill: none; stroke: #000000; stroke-width: 1.5"/>
    <path d="M 276.753719 188.292665 
L 276.753719 184.850449 
" clip-path="url(#p3777ec7163)" style="fill: none; stroke: #000000; stroke-width: 1.5"/>
    <path d="M 295.2 261.170788 
L 295.2 257.499091 
" clip-path="url(#p3777ec7163)" style="fill: none; stroke: #000000; stroke-width: 1.5"/>
    <path d="M 313.646281 316.95528 
L 313.646281 313.742546 
" clip-path="url(#p3777ec7163)" style="fill: none; stroke: #000000; stroke-width: 1.5"/>
    <path d="M 332.092562 273.802567 
L 332.092562 270.589832 
" clip-path="url(#p3777ec7163)" style="fill: none; stroke: #000000; stroke-width: 1.5"/>
    <path d="M 350.538843 215.605634 
L 350.538843 212.851861 
" clip-path="url(#p3777ec7163)" style="fill: none; stroke: #000000; stroke-width: 1.5"/>
    <path d="M 368.985124 214.046489 
L 368.985124 211.292716 
" clip-path="url(#p3777ec7163)" style="fill: none; stroke: #000000; stroke-width: 1.5"/>
    <path d="M 387.431405 233.741766 
L 387.431405 230.529031 
" clip-path="url(#p3777ec7163)" style="fill: none; stroke: #000000; stroke-width: 1.5"/>
    <path d="M 405.877686 276.050262 
L 405.877686 271.690122 
" clip-path="url(#p3777ec7163)" style="fill: none; stroke: #000000; stroke-width: 1.5"/>
    <path d="M 424.323967 272.079209 
L 424.323967 265.883221 
" clip-path="url(#p3777ec7163)" style="fill: none; stroke: #000000; stroke-width: 1.5"/>
    <path d="M 442.770248 239.607125 
L 442.770248 229.050997 
" clip-path="url(#p3777ec7163)" style="fill: none; stroke: #000000; stroke-width: 1.5"/>
    <path d="M 461.216529 250.185118 
L 461.216529 230.449749 
" clip-path="url(#p3777ec7163)" style="fill: none; stroke: #000000; stroke-width: 1.5"/>
    <path d="M 479.66281 264.239821 
L 479.66281 223.621676 
" clip-path="url(#p3777ec7163)" style="fill: none; stroke: #000000; stroke-width: 1.5"/>
    <path d="M 498.109091 244.430904 
L 498.109091 170.308527 
" clip-path="url(#p3777ec7163)" style="fill: none; stroke: #000000; stroke-width: 1.5"/>
   </g>
   <g id="line2d_29">
    <path d="M 92.290909 166.105225 
L 93.920701 180.451141 
L 95.550493 202.938882 
L 97.180285 231.78866 
L 102.06966 330.041555 
L 103.699452 357.310639 
L 105.329244 378.241761 
L 106.959036 391.8889 
L 108.588828 397.330597 
L 110.21862 395.274615 
L 111.848412 387.326223 
L 113.478204 375.089121 
L 116.737788 345.968335 
L 118.367579 333.167143 
L 119.997371 324.035066 
L 121.627163 318.988782 
L 123.256955 318.526531 
L 124.886747 322.042414 
L 126.516539 328.112586 
L 129.776123 343.02167 
L 131.405915 347.99459 
L 133.035706 349.283554 
L 134.665498 345.86916 
L 136.29529 336.804984 
L 137.925082 322.403364 
L 139.554874 303.237494 
L 141.184666 280.146928 
L 146.074042 204.579892 
L 147.703834 182.617398 
L 149.333625 164.633498 
L 150.963417 151.208385 
L 152.593209 142.57147 
L 154.223001 138.375488 
L 155.852793 137.864879 
L 157.482585 140.132137 
L 160.742169 147.767465 
L 162.371961 150.857359 
L 164.001752 152.136054 
L 165.631544 151.134968 
L 167.261336 148.134712 
L 168.891128 143.196282 
L 172.150712 131.109105 
L 173.780504 126.146274 
L 175.410296 123.353774 
L 177.040088 123.646856 
L 178.66988 127.502656 
L 180.299671 135.524321 
L 181.929463 147.668005 
L 183.559255 163.130935 
L 185.189047 181.224846 
L 190.078423 241.19991 
L 191.708215 259.147015 
L 193.338007 274.682873 
L 194.967798 287.417728 
L 196.59759 297.05769 
L 198.227382 303.904698 
L 199.857174 308.514926 
L 201.486966 311.611947 
L 204.74655 316.014259 
L 206.376342 318.72199 
L 208.006134 322.578293 
L 209.635926 327.717867 
L 211.265717 334.066476 
L 216.155093 355.807633 
L 217.784885 361.661651 
L 219.414677 365.495703 
L 221.044469 366.768081 
L 222.674261 364.9898 
L 224.304053 359.990398 
L 225.933844 351.911324 
L 227.563636 341.073513 
L 229.193428 328.177787 
L 235.712596 270.795683 
L 237.342388 258.544039 
L 238.97218 248.086101 
L 240.601972 239.484492 
L 242.231763 232.602395 
L 243.861555 226.912543 
L 247.121139 217.683562 
L 248.750931 213.023621 
L 250.380723 207.623491 
L 252.010515 201.356663 
L 253.640307 194.099017 
L 256.89989 177.420233 
L 260.159474 160.495411 
L 261.789266 153.484381 
L 263.419058 148.093184 
L 265.04885 144.844974 
L 266.678642 144.014532 
L 268.308434 145.759319 
L 269.938226 149.921203 
L 271.568018 156.248852 
L 273.197809 164.239075 
L 276.457393 183.006191 
L 279.716977 201.741195 
L 281.346769 209.938846 
L 282.976561 217.111465 
L 284.606353 223.191759 
L 286.236145 228.304465 
L 289.495728 236.975777 
L 291.12552 241.20401 
L 292.755312 245.950164 
L 294.385104 251.512176 
L 296.014896 257.996225 
L 297.644688 265.318318 
L 300.904272 281.984146 
L 304.163855 298.853001 
L 305.793647 306.321868 
L 307.423439 312.38323 
L 309.053231 316.788344 
L 310.683023 319.278817 
L 312.312815 319.887033 
L 313.942607 318.629233 
L 315.572399 315.766266 
L 317.202191 311.628322 
L 318.831982 306.648462 
L 323.721358 290.556104 
L 325.35115 286.101896 
L 326.980942 282.299787 
L 328.610734 279.073465 
L 330.240526 276.325099 
L 333.50011 271.378091 
L 335.129901 268.620922 
L 336.759693 265.138055 
L 338.389485 260.852444 
L 340.019277 255.610994 
L 341.649069 249.507039 
L 343.278861 242.701617 
L 348.168237 220.650009 
L 349.798028 213.994766 
L 351.42782 208.31128 
L 353.057612 203.867839 
L 354.687404 200.823708 
L 356.317196 199.196565 
L 357.946988 198.931285 
L 359.57678 199.791434 
L 361.206572 201.551638 
L 362.836364 203.873839 
L 366.095947 208.994939 
L 367.725739 211.203414 
L 369.355531 212.990356 
L 370.985323 214.283054 
L 372.615115 215.07927 
L 375.874699 216.161929 
L 377.504491 216.909195 
L 379.134283 218.052009 
L 380.764074 219.912396 
L 382.393866 222.565029 
L 384.023658 226.101971 
L 385.65345 230.483584 
L 387.283242 235.524131 
L 393.80241 257.664817 
L 395.432202 262.255678 
L 397.061993 265.9613 
L 398.691785 268.665718 
L 400.321577 270.235523 
L 401.951369 270.870711 
L 403.581161 270.742915 
L 405.210953 270.09124 
L 408.470537 268.001294 
L 410.100329 267.155639 
L 411.73012 266.616747 
L 413.359912 266.442706 
L 414.989704 266.78984 
L 416.619496 267.430875 
L 419.87908 269.116832 
L 421.508872 269.687341 
L 423.138664 269.803172 
L 424.768456 269.286201 
L 426.398248 268.000722 
L 428.028039 265.887142 
L 429.657831 263.050608 
L 431.287623 259.645269 
L 437.806791 244.054604 
L 439.436583 240.839648 
L 441.066375 238.295465 
L 442.696166 236.493214 
L 444.325958 235.452021 
L 445.95575 235.01314 
L 447.585542 235.097863 
L 449.215334 235.48283 
L 450.845126 236.065982 
L 452.474918 236.4342 
L 454.10471 236.617102 
L 455.734502 236.426099 
L 457.364294 235.778378 
L 458.994085 234.865299 
L 462.253669 232.056033 
L 463.883461 230.573936 
L 465.513253 229.36322 
L 467.143045 228.535574 
L 468.772837 228.286252 
L 470.402629 228.736649 
L 472.032421 229.844076 
L 473.662212 231.474629 
L 475.292004 233.660613 
L 478.551588 238.901876 
L 480.18138 241.603566 
L 481.811172 244.066422 
L 483.440964 246.131612 
L 485.070756 247.608655 
L 486.700548 248.582983 
L 488.33034 249.014037 
L 489.960131 248.94156 
L 491.589923 248.590237 
L 494.849507 247.562119 
L 496.479299 247.238843 
L 498.109091 247.285998 
L 498.109091 247.285998 
" clip-path="url(#p3777ec7163)" style="fill: none; stroke: #1f77b4; stroke-width: 1.5; stroke-linecap: round"/>
   </g>
   <g id="line2d_30">
    <defs>
     <path id="mb22e36cf69" d="M 0 3 
C 0.795609 3 1.55874 2.683901 2.12132 2.12132 
C 2.683901 1.55874 3 0.795609 3 0 
C 3 -0.795609 2.683901 -1.55874 2.12132 -2.12132 
C 1.55874 -2.683901 0.795609 -3 0 -3 
C -0.795609 -3 -1.55874 -2.683901 -2.12132 -2.12132 
C -2.683901 -1.55874 -3 -0.795609 -3 0 
C -3 0.795609 -2.683901 1.55874 -2.12132 2.12132 
C -1.55874 2.683901 -0.795609 3 0 3 
z
" style="stroke: #000000"/>
    </defs>
    <g clip-path="url(#p3777ec7163)">
     <use xlink:href="#mb22e36cf69" x="92.290909" y="166.182954" style="stroke: #000000"/>
     <use xlink:href="#mb22e36cf69" x="129.183471" y="339.466017" style="stroke: #000000"/>
     <use xlink:href="#mb22e36cf69" x="147.629752" y="183.688363" style="stroke: #000000"/>
     <use xlink:href="#mb22e36cf69" x="166.076033" y="151.037235" style="stroke: #000000"/>
     <use xlink:href="#mb22e36cf69" x="184.522314" y="172.289073" style="stroke: #000000"/>
     <use xlink:href="#mb22e36cf69" x="202.968595" y="312.786971" style="stroke: #000000"/>
     <use xlink:href="#mb22e36cf69" x="221.414876" y="369.125922" style="stroke: #000000"/>
     <use xlink:href="#mb22e36cf69" x="239.861157" y="243.882238" style="stroke: #000000"/>
     <use xlink:href="#mb22e36cf69" x="258.307438" y="165.232956" style="stroke: #000000"/>
     <use xlink:href="#mb22e36cf69" x="276.753719" y="186.571557" style="stroke: #000000"/>
     <use xlink:href="#mb22e36cf69" x="295.2" y="259.33494" style="stroke: #000000"/>
     <use xlink:href="#mb22e36cf69" x="313.646281" y="315.348913" style="stroke: #000000"/>
     <use xlink:href="#mb22e36cf69" x="332.092562" y="272.1962" style="stroke: #000000"/>
     <use xlink:href="#mb22e36cf69" x="350.538843" y="214.228747" style="stroke: #000000"/>
     <use xlink:href="#mb22e36cf69" x="368.985124" y="212.669602" style="stroke: #000000"/>
     <use xlink:href="#mb22e36cf69" x="387.431405" y="232.135398" style="stroke: #000000"/>
     <use xlink:href="#mb22e36cf69" x="405.877686" y="273.870192" style="stroke: #000000"/>
     <use xlink:href="#mb22e36cf69" x="424.323967" y="268.981215" style="stroke: #000000"/>
     <use xlink:href="#mb22e36cf69" x="442.770248" y="234.329061" style="stroke: #000000"/>
     <use xlink:href="#mb22e36cf69" x="461.216529" y="240.317433" style="stroke: #000000"/>
     <use xlink:href="#mb22e36cf69" x="479.66281" y="243.930749" style="stroke: #000000"/>
     <use xlink:href="#mb22e36cf69" x="498.109091" y="207.369716" style="stroke: #000000"/>
    </g>
   </g>
   <g id="patch_3">
    <path d="M 72 421.884878 
L 72 103.68 
" style="fill: none"/>
   </g>
   <g id="patch_4">
    <path d="M 518.4 421.884878 
L 518.4 103.68 
" style="fill: none"/>
   </g>
   <g id="patch_5">
    <path d="M 72 421.884878 
L 518.4 421.884878 
" style="fill: none"/>
   </g>
   <g id="patch_6">
    <path d="M 72 103.68 
L 518.4 103.68 
" style="fill: none"/>
   </g>
   <g id="legend_1">
    <g id="patch_7">
     <path d="M 323.52 164.694375 
L 510 164.694375 
Q 512.4 164.694375 512.4 162.294375 
L 512.4 112.08 
Q 512.4 109.68 510 109.68 
L 323.52 109.68 
Q 321.12 109.68 321.12 112.08 
L 321.12 162.294375 
Q 321.12 164.694375 323.52 164.694375 
z
" style="fill: #eaeaf2; opacity: 0.8; stroke: #cccccc; stroke-linejoin: miter"/>
    </g>
    <g id="line2d_31">
     <path d="M 325.92 119.055 
L 337.92 119.055 
L 349.92 119.055 
" style="fill: none; stroke: #1f77b4; stroke-width: 1.5; stroke-linecap: round"/>
    </g>
    <g id="text_8">
     <!-- $\delta\nu_\mathrm{He}$ + $\delta\nu_\mathrm{BCZ}$ -->
     <g style="fill: #262626" transform="translate(359.52 123.255)scale(0.12 -0.12)">
      <defs>
       <path id="DejaVuSans-65" d="M 3597 1894 
L 3597 1613 
L 953 1613 
Q 991 1019 1311 708 
Q 1631 397 2203 397 
Q 2534 397 2845 478 
Q 3156 559 3463 722 
L 3463 178 
Q 3153 47 2828 -22 
Q 2503 -91 2169 -91 
Q 1331 -91 842 396 
Q 353 884 353 1716 
Q 353 2575 817 3079 
Q 1281 3584 2069 3584 
Q 2775 3584 3186 3129 
Q 3597 2675 3597 1894 
z
M 3022 2063 
Q 3016 2534 2758 2815 
Q 2500 3097 2075 3097 
Q 1594 3097 1305 2825 
Q 1016 2553 972 2059 
L 3022 2063 
z
" transform="scale(0.015625)"/>
       <path id="ArialMT-20" transform="scale(0.015625)"/>
       <path id="ArialMT-2b" d="M 1603 741 
L 1603 1997 
L 356 1997 
L 356 2522 
L 1603 2522 
L 1603 3769 
L 2134 3769 
L 2134 2522 
L 3381 2522 
L 3381 1997 
L 2134 1997 
L 2134 741 
L 1603 741 
z
" transform="scale(0.015625)"/>
       <path id="DejaVuSans-42" d="M 1259 2228 
L 1259 519 
L 2272 519 
Q 2781 519 3026 730 
Q 3272 941 3272 1375 
Q 3272 1813 3026 2020 
Q 2781 2228 2272 2228 
L 1259 2228 
z
M 1259 4147 
L 1259 2741 
L 2194 2741 
Q 2656 2741 2882 2914 
Q 3109 3088 3109 3444 
Q 3109 3797 2882 3972 
Q 2656 4147 2194 4147 
L 1259 4147 
z
M 628 4666 
L 2241 4666 
Q 2963 4666 3353 4366 
Q 3744 4066 3744 3513 
Q 3744 3084 3544 2831 
Q 3344 2578 2956 2516 
Q 3422 2416 3680 2098 
Q 3938 1781 3938 1306 
Q 3938 681 3513 340 
Q 3088 0 2303 0 
L 628 0 
L 628 4666 
z
" transform="scale(0.015625)"/>
       <path id="DejaVuSans-43" d="M 4122 4306 
L 4122 3641 
Q 3803 3938 3442 4084 
Q 3081 4231 2675 4231 
Q 1875 4231 1450 3742 
Q 1025 3253 1025 2328 
Q 1025 1406 1450 917 
Q 1875 428 2675 428 
Q 3081 428 3442 575 
Q 3803 722 4122 1019 
L 4122 359 
Q 3791 134 3420 21 
Q 3050 -91 2638 -91 
Q 1578 -91 968 557 
Q 359 1206 359 2328 
Q 359 3453 968 4101 
Q 1578 4750 2638 4750 
Q 3056 4750 3426 4639 
Q 3797 4528 4122 4306 
z
" transform="scale(0.015625)"/>
       <path id="DejaVuSans-5a" d="M 359 4666 
L 4025 4666 
L 4025 4184 
L 1075 531 
L 4097 531 
L 4097 0 
L 288 0 
L 288 481 
L 3238 4134 
L 359 4134 
L 359 4666 
z
" transform="scale(0.015625)"/>
      </defs>
      <use xlink:href="#DejaVuSans-Oblique-3b4" transform="translate(0 0.78125)"/>
      <use xlink:href="#DejaVuSans-Oblique-3bd" transform="translate(61.181641 0.78125)"/>
      <use xlink:href="#DejaVuSans-48" transform="translate(117.041016 -15.625)scale(0.7)"/>
      <use xlink:href="#DejaVuSans-65" transform="translate(169.677734 -15.625)scale(0.7)"/>
      <use xlink:href="#ArialMT-20" transform="translate(215.478516 0.78125)"/>
      <use xlink:href="#ArialMT-2b" transform="translate(243.261719 0.78125)"/>
      <use xlink:href="#ArialMT-20" transform="translate(301.660156 0.78125)"/>
      <use xlink:href="#DejaVuSans-Oblique-3b4" transform="translate(329.443359 0.78125)"/>
      <use xlink:href="#DejaVuSans-Oblique-3bd" transform="translate(390.625 0.78125)"/>
      <use xlink:href="#DejaVuSans-42" transform="translate(446.484375 -15.625)scale(0.7)"/>
      <use xlink:href="#DejaVuSans-43" transform="translate(494.506836 -15.625)scale(0.7)"/>
      <use xlink:href="#DejaVuSans-5a" transform="translate(543.383789 -15.625)scale(0.7)"/>
     </g>
    </g>
    <g id="patch_8">
     <path d="M 325.92 140.229375 
L 349.92 140.229375 
L 349.92 131.829375 
L 325.92 131.829375 
z
" style="fill: #1f77b4; fill-opacity: 0.3; stroke: #1f77b4; stroke-opacity: 0.3; stroke-linejoin: miter"/>
    </g>
    <g id="text_9">
     <!-- 95.0% CI -->
     <g style="fill: #262626" transform="translate(359.52 140.229375)scale(0.12 -0.12)">
      <defs>
       <path id="ArialMT-39" d="M 350 1059 
L 891 1109 
Q 959 728 1153 556 
Q 1347 384 1650 384 
Q 1909 384 2104 503 
Q 2300 622 2425 820 
Q 2550 1019 2634 1356 
Q 2719 1694 2719 2044 
Q 2719 2081 2716 2156 
Q 2547 1888 2255 1720 
Q 1963 1553 1622 1553 
Q 1053 1553 659 1965 
Q 266 2378 266 3053 
Q 266 3750 677 4175 
Q 1088 4600 1706 4600 
Q 2153 4600 2523 4359 
Q 2894 4119 3086 3673 
Q 3278 3228 3278 2384 
Q 3278 1506 3087 986 
Q 2897 466 2520 194 
Q 2144 -78 1638 -78 
Q 1100 -78 759 220 
Q 419 519 350 1059 
z
M 2653 3081 
Q 2653 3566 2395 3850 
Q 2138 4134 1775 4134 
Q 1400 4134 1122 3828 
Q 844 3522 844 3034 
Q 844 2597 1108 2323 
Q 1372 2050 1759 2050 
Q 2150 2050 2401 2323 
Q 2653 2597 2653 3081 
z
" transform="scale(0.015625)"/>
       <path id="ArialMT-25" d="M 372 3481 
Q 372 3972 619 4315 
Q 866 4659 1334 4659 
Q 1766 4659 2048 4351 
Q 2331 4044 2331 3447 
Q 2331 2866 2045 2552 
Q 1759 2238 1341 2238 
Q 925 2238 648 2547 
Q 372 2856 372 3481 
z
M 1350 4272 
Q 1141 4272 1002 4090 
Q 863 3909 863 3425 
Q 863 2984 1003 2804 
Q 1144 2625 1350 2625 
Q 1563 2625 1702 2806 
Q 1841 2988 1841 3469 
Q 1841 3913 1700 4092 
Q 1559 4272 1350 4272 
z
M 1353 -169 
L 3859 4659 
L 4316 4659 
L 1819 -169 
L 1353 -169 
z
M 3334 1075 
Q 3334 1569 3581 1911 
Q 3828 2253 4300 2253 
Q 4731 2253 5014 1945 
Q 5297 1638 5297 1041 
Q 5297 459 5011 145 
Q 4725 -169 4303 -169 
Q 3888 -169 3611 142 
Q 3334 453 3334 1075 
z
M 4316 1866 
Q 4103 1866 3964 1684 
Q 3825 1503 3825 1019 
Q 3825 581 3965 400 
Q 4106 219 4313 219 
Q 4528 219 4667 400 
Q 4806 581 4806 1063 
Q 4806 1506 4665 1686 
Q 4525 1866 4316 1866 
z
" transform="scale(0.015625)"/>
       <path id="ArialMT-43" d="M 3763 1606 
L 4369 1453 
Q 4178 706 3683 314 
Q 3188 -78 2472 -78 
Q 1731 -78 1267 223 
Q 803 525 561 1097 
Q 319 1669 319 2325 
Q 319 3041 592 3573 
Q 866 4106 1370 4382 
Q 1875 4659 2481 4659 
Q 3169 4659 3637 4309 
Q 4106 3959 4291 3325 
L 3694 3184 
Q 3534 3684 3231 3912 
Q 2928 4141 2469 4141 
Q 1941 4141 1586 3887 
Q 1231 3634 1087 3207 
Q 944 2781 944 2328 
Q 944 1744 1114 1308 
Q 1284 872 1643 656 
Q 2003 441 2422 441 
Q 2931 441 3284 734 
Q 3638 1028 3763 1606 
z
" transform="scale(0.015625)"/>
       <path id="ArialMT-49" d="M 597 0 
L 597 4581 
L 1203 4581 
L 1203 0 
L 597 0 
z
" transform="scale(0.015625)"/>
      </defs>
      <use xlink:href="#ArialMT-39"/>
      <use xlink:href="#ArialMT-35" x="55.615234"/>
      <use xlink:href="#ArialMT-2e" x="111.230469"/>
      <use xlink:href="#ArialMT-30" x="139.013672"/>
      <use xlink:href="#ArialMT-25" x="194.628906"/>
      <use xlink:href="#ArialMT-20" x="283.544922"/>
      <use xlink:href="#ArialMT-43" x="311.328125"/>
      <use xlink:href="#ArialMT-49" x="383.544922"/>
     </g>
    </g>
    <g id="LineCollection_2">
     <path d="M 337.92 159.309375 
L 337.92 147.309375 
" style="fill: none; stroke: #000000; stroke-width: 1.5"/>
    </g>
    <g id="line2d_32"/>
    <g id="line2d_33">
     <g>
      <use xlink:href="#mb22e36cf69" x="337.92" y="153.309375" style="stroke: #000000"/>
     </g>
    </g>
    <g id="text_10">
     <!-- $\nu_\mathrm{obs} - (\nu - $$($$\delta\nu_\mathrm{He}$ + $\delta\nu_\mathrm{BCZ}$$)$$)$ -->
     <g style="fill: #262626" transform="translate(359.52 157.509375)scale(0.12 -0.12)">
      <defs>
       <path id="DejaVuSans-6f" d="M 1959 3097 
Q 1497 3097 1228 2736 
Q 959 2375 959 1747 
Q 959 1119 1226 758 
Q 1494 397 1959 397 
Q 2419 397 2687 759 
Q 2956 1122 2956 1747 
Q 2956 2369 2687 2733 
Q 2419 3097 1959 3097 
z
M 1959 3584 
Q 2709 3584 3137 3096 
Q 3566 2609 3566 1747 
Q 3566 888 3137 398 
Q 2709 -91 1959 -91 
Q 1206 -91 779 398 
Q 353 888 353 1747 
Q 353 2609 779 3096 
Q 1206 3584 1959 3584 
z
" transform="scale(0.015625)"/>
       <path id="DejaVuSans-62" d="M 3116 1747 
Q 3116 2381 2855 2742 
Q 2594 3103 2138 3103 
Q 1681 3103 1420 2742 
Q 1159 2381 1159 1747 
Q 1159 1113 1420 752 
Q 1681 391 2138 391 
Q 2594 391 2855 752 
Q 3116 1113 3116 1747 
z
M 1159 2969 
Q 1341 3281 1617 3432 
Q 1894 3584 2278 3584 
Q 2916 3584 3314 3078 
Q 3713 2572 3713 1747 
Q 3713 922 3314 415 
Q 2916 -91 2278 -91 
Q 1894 -91 1617 61 
Q 1341 213 1159 525 
L 1159 0 
L 581 0 
L 581 4863 
L 1159 4863 
L 1159 2969 
z
" transform="scale(0.015625)"/>
       <path id="DejaVuSans-73" d="M 2834 3397 
L 2834 2853 
Q 2591 2978 2328 3040 
Q 2066 3103 1784 3103 
Q 1356 3103 1142 2972 
Q 928 2841 928 2578 
Q 928 2378 1081 2264 
Q 1234 2150 1697 2047 
L 1894 2003 
Q 2506 1872 2764 1633 
Q 3022 1394 3022 966 
Q 3022 478 2636 193 
Q 2250 -91 1575 -91 
Q 1294 -91 989 -36 
Q 684 19 347 128 
L 347 722 
Q 666 556 975 473 
Q 1284 391 1588 391 
Q 1994 391 2212 530 
Q 2431 669 2431 922 
Q 2431 1156 2273 1281 
Q 2116 1406 1581 1522 
L 1381 1569 
Q 847 1681 609 1914 
Q 372 2147 372 2553 
Q 372 3047 722 3315 
Q 1072 3584 1716 3584 
Q 2034 3584 2315 3537 
Q 2597 3491 2834 3397 
z
" transform="scale(0.015625)"/>
       <path id="DejaVuSans-2212" d="M 678 2272 
L 4684 2272 
L 4684 1741 
L 678 1741 
L 678 2272 
z
" transform="scale(0.015625)"/>
       <path id="DejaVuSans-28" d="M 1984 4856 
Q 1566 4138 1362 3434 
Q 1159 2731 1159 2009 
Q 1159 1288 1364 580 
Q 1569 -128 1984 -844 
L 1484 -844 
Q 1016 -109 783 600 
Q 550 1309 550 2009 
Q 550 2706 781 3412 
Q 1013 4119 1484 4856 
L 1984 4856 
z
" transform="scale(0.015625)"/>
       <path id="DejaVuSans-29" d="M 513 4856 
L 1013 4856 
Q 1481 4119 1714 3412 
Q 1947 2706 1947 2009 
Q 1947 1309 1714 600 
Q 1481 -109 1013 -844 
L 513 -844 
Q 928 -128 1133 580 
Q 1338 1288 1338 2009 
Q 1338 2731 1133 3434 
Q 928 4138 513 4856 
z
" transform="scale(0.015625)"/>
      </defs>
      <use xlink:href="#DejaVuSans-Oblique-3bd" transform="translate(0 0.125)"/>
      <use xlink:href="#DejaVuSans-6f" transform="translate(55.859375 -16.28125)scale(0.7)"/>
      <use xlink:href="#DejaVuSans-62" transform="translate(98.686523 -16.28125)scale(0.7)"/>
      <use xlink:href="#DejaVuSans-73" transform="translate(143.120117 -16.28125)scale(0.7)"/>
      <use xlink:href="#DejaVuSans-2212" transform="translate(201.806641 0.125)"/>
      <use xlink:href="#DejaVuSans-28" transform="translate(305.078125 0.125)"/>
      <use xlink:href="#DejaVuSans-Oblique-3bd" transform="translate(344.091797 0.125)"/>
      <use xlink:href="#DejaVuSans-2212" transform="translate(419.433594 0.125)"/>
      <use xlink:href="#DejaVuSans-28" transform="translate(522.705078 0.125)"/>
      <use xlink:href="#DejaVuSans-Oblique-3b4" transform="translate(561.71875 0.125)"/>
      <use xlink:href="#DejaVuSans-Oblique-3bd" transform="translate(622.900391 0.125)"/>
      <use xlink:href="#DejaVuSans-48" transform="translate(678.759766 -16.28125)scale(0.7)"/>
      <use xlink:href="#DejaVuSans-65" transform="translate(731.396484 -16.28125)scale(0.7)"/>
      <use xlink:href="#ArialMT-20" transform="translate(777.197266 0.125)"/>
      <use xlink:href="#ArialMT-2b" transform="translate(804.980469 0.125)"/>
      <use xlink:href="#ArialMT-20" transform="translate(863.378906 0.125)"/>
      <use xlink:href="#DejaVuSans-Oblique-3b4" transform="translate(891.162109 0.125)"/>
      <use xlink:href="#DejaVuSans-Oblique-3bd" transform="translate(952.34375 0.125)"/>
      <use xlink:href="#DejaVuSans-42" transform="translate(1008.203125 -16.28125)scale(0.7)"/>
      <use xlink:href="#DejaVuSans-43" transform="translate(1056.225586 -16.28125)scale(0.7)"/>
      <use xlink:href="#DejaVuSans-5a" transform="translate(1105.102539 -16.28125)scale(0.7)"/>
      <use xlink:href="#DejaVuSans-29" transform="translate(1155.791016 0.125)"/>
      <use xlink:href="#DejaVuSans-29" transform="translate(1194.804688 0.125)"/>
     </g>
    </g>
   </g>
  </g>
  <g id="axes_2">
   <g id="patch_9">
    <path d="M 72 756 
L 518.4 756 
L 518.4 437.795122 
L 72 437.795122 
z
" style="fill: #eaeaf2"/>
   </g>
   <g id="matplotlib.axis_3">
    <g id="xtick_9">
     <g id="line2d_34">
      <path d="M 92.290909 756 
L 92.290909 437.795122 
" clip-path="url(#p355dad880e)" style="fill: none; stroke: #ffffff; stroke-width: 0.8; stroke-linecap: round"/>
     </g>
     <g id="line2d_35"/>
     <g id="text_11">
      <!-- 6 -->
      <g style="fill: #262626" transform="translate(88.954347 768.089375)scale(0.12 -0.12)">
       <defs>
        <path id="ArialMT-36" d="M 3184 3459 
L 2625 3416 
Q 2550 3747 2413 3897 
Q 2184 4138 1850 4138 
Q 1581 4138 1378 3988 
Q 1113 3794 959 3422 
Q 806 3050 800 2363 
Q 1003 2672 1297 2822 
Q 1591 2972 1913 2972 
Q 2475 2972 2870 2558 
Q 3266 2144 3266 1488 
Q 3266 1056 3080 686 
Q 2894 316 2569 119 
Q 2244 -78 1831 -78 
Q 1128 -78 684 439 
Q 241 956 241 2144 
Q 241 3472 731 4075 
Q 1159 4600 1884 4600 
Q 2425 4600 2770 4297 
Q 3116 3994 3184 3459 
z
M 888 1484 
Q 888 1194 1011 928 
Q 1134 663 1356 523 
Q 1578 384 1822 384 
Q 2178 384 2434 671 
Q 2691 959 2691 1453 
Q 2691 1928 2437 2201 
Q 2184 2475 1800 2475 
Q 1419 2475 1153 2201 
Q 888 1928 888 1484 
z
" transform="scale(0.015625)"/>
       </defs>
       <use xlink:href="#ArialMT-36"/>
      </g>
     </g>
    </g>
    <g id="xtick_10">
     <g id="line2d_36">
      <path d="M 147.629752 756 
L 147.629752 437.795122 
" clip-path="url(#p355dad880e)" style="fill: none; stroke: #ffffff; stroke-width: 0.8; stroke-linecap: round"/>
     </g>
     <g id="line2d_37"/>
     <g id="text_12">
      <!-- 9 -->
      <g style="fill: #262626" transform="translate(144.29319 768.089375)scale(0.12 -0.12)">
       <use xlink:href="#ArialMT-39"/>
      </g>
     </g>
    </g>
    <g id="xtick_11">
     <g id="line2d_38">
      <path d="M 202.968595 756 
L 202.968595 437.795122 
" clip-path="url(#p355dad880e)" style="fill: none; stroke: #ffffff; stroke-width: 0.8; stroke-linecap: round"/>
     </g>
     <g id="line2d_39"/>
     <g id="text_13">
      <!-- 12 -->
      <g style="fill: #262626" transform="translate(196.29547 768.089375)scale(0.12 -0.12)">
       <defs>
        <path id="ArialMT-32" d="M 3222 541 
L 3222 0 
L 194 0 
Q 188 203 259 391 
Q 375 700 629 1000 
Q 884 1300 1366 1694 
Q 2113 2306 2375 2664 
Q 2638 3022 2638 3341 
Q 2638 3675 2398 3904 
Q 2159 4134 1775 4134 
Q 1369 4134 1125 3890 
Q 881 3647 878 3216 
L 300 3275 
Q 359 3922 746 4261 
Q 1134 4600 1788 4600 
Q 2447 4600 2831 4234 
Q 3216 3869 3216 3328 
Q 3216 3053 3103 2787 
Q 2991 2522 2730 2228 
Q 2469 1934 1863 1422 
Q 1356 997 1212 845 
Q 1069 694 975 541 
L 3222 541 
z
" transform="scale(0.015625)"/>
       </defs>
       <use xlink:href="#ArialMT-31"/>
       <use xlink:href="#ArialMT-32" x="55.615234"/>
      </g>
     </g>
    </g>
    <g id="xtick_12">
     <g id="line2d_40">
      <path d="M 258.307438 756 
L 258.307438 437.795122 
" clip-path="url(#p355dad880e)" style="fill: none; stroke: #ffffff; stroke-width: 0.8; stroke-linecap: round"/>
     </g>
     <g id="line2d_41"/>
     <g id="text_14">
      <!-- 15 -->
      <g style="fill: #262626" transform="translate(251.634313 768.089375)scale(0.12 -0.12)">
       <use xlink:href="#ArialMT-31"/>
       <use xlink:href="#ArialMT-35" x="55.615234"/>
      </g>
     </g>
    </g>
    <g id="xtick_13">
     <g id="line2d_42">
      <path d="M 313.646281 756 
L 313.646281 437.795122 
" clip-path="url(#p355dad880e)" style="fill: none; stroke: #ffffff; stroke-width: 0.8; stroke-linecap: round"/>
     </g>
     <g id="line2d_43"/>
     <g id="text_15">
      <!-- 18 -->
      <g style="fill: #262626" transform="translate(306.973156 768.089375)scale(0.12 -0.12)">
       <defs>
        <path id="ArialMT-38" d="M 1131 2484 
Q 781 2613 612 2850 
Q 444 3088 444 3419 
Q 444 3919 803 4259 
Q 1163 4600 1759 4600 
Q 2359 4600 2725 4251 
Q 3091 3903 3091 3403 
Q 3091 3084 2923 2848 
Q 2756 2613 2416 2484 
Q 2838 2347 3058 2040 
Q 3278 1734 3278 1309 
Q 3278 722 2862 322 
Q 2447 -78 1769 -78 
Q 1091 -78 675 323 
Q 259 725 259 1325 
Q 259 1772 486 2073 
Q 713 2375 1131 2484 
z
M 1019 3438 
Q 1019 3113 1228 2906 
Q 1438 2700 1772 2700 
Q 2097 2700 2305 2904 
Q 2513 3109 2513 3406 
Q 2513 3716 2298 3927 
Q 2084 4138 1766 4138 
Q 1444 4138 1231 3931 
Q 1019 3725 1019 3438 
z
M 838 1322 
Q 838 1081 952 856 
Q 1066 631 1291 507 
Q 1516 384 1775 384 
Q 2178 384 2440 643 
Q 2703 903 2703 1303 
Q 2703 1709 2433 1975 
Q 2163 2241 1756 2241 
Q 1359 2241 1098 1978 
Q 838 1716 838 1322 
z
" transform="scale(0.015625)"/>
       </defs>
       <use xlink:href="#ArialMT-31"/>
       <use xlink:href="#ArialMT-38" x="55.615234"/>
      </g>
     </g>
    </g>
    <g id="xtick_14">
     <g id="line2d_44">
      <path d="M 368.985124 756 
L 368.985124 437.795122 
" clip-path="url(#p355dad880e)" style="fill: none; stroke: #ffffff; stroke-width: 0.8; stroke-linecap: round"/>
     </g>
     <g id="line2d_45"/>
     <g id="text_16">
      <!-- 21 -->
      <g style="fill: #262626" transform="translate(362.311999 768.089375)scale(0.12 -0.12)">
       <use xlink:href="#ArialMT-32"/>
       <use xlink:href="#ArialMT-31" x="55.615234"/>
      </g>
     </g>
    </g>
    <g id="xtick_15">
     <g id="line2d_46">
      <path d="M 424.323967 756 
L 424.323967 437.795122 
" clip-path="url(#p355dad880e)" style="fill: none; stroke: #ffffff; stroke-width: 0.8; stroke-linecap: round"/>
     </g>
     <g id="line2d_47"/>
     <g id="text_17">
      <!-- 24 -->
      <g style="fill: #262626" transform="translate(417.650842 768.089375)scale(0.12 -0.12)">
       <defs>
        <path id="ArialMT-34" d="M 2069 0 
L 2069 1097 
L 81 1097 
L 81 1613 
L 2172 4581 
L 2631 4581 
L 2631 1613 
L 3250 1613 
L 3250 1097 
L 2631 1097 
L 2631 0 
L 2069 0 
z
M 2069 1613 
L 2069 3678 
L 634 1613 
L 2069 1613 
z
" transform="scale(0.015625)"/>
       </defs>
       <use xlink:href="#ArialMT-32"/>
       <use xlink:href="#ArialMT-34" x="55.615234"/>
      </g>
     </g>
    </g>
    <g id="xtick_16">
     <g id="line2d_48">
      <path d="M 479.66281 756 
L 479.66281 437.795122 
" clip-path="url(#p355dad880e)" style="fill: none; stroke: #ffffff; stroke-width: 0.8; stroke-linecap: round"/>
     </g>
     <g id="line2d_49"/>
     <g id="text_18">
      <!-- 27 -->
      <g style="fill: #262626" transform="translate(472.989685 768.089375)scale(0.12 -0.12)">
       <defs>
        <path id="ArialMT-37" d="M 303 3981 
L 303 4522 
L 3269 4522 
L 3269 4084 
Q 2831 3619 2401 2847 
Q 1972 2075 1738 1259 
Q 1569 684 1522 0 
L 944 0 
Q 953 541 1156 1306 
Q 1359 2072 1739 2783 
Q 2119 3494 2547 3981 
L 303 3981 
z
" transform="scale(0.015625)"/>
       </defs>
       <use xlink:href="#ArialMT-32"/>
       <use xlink:href="#ArialMT-37" x="55.615234"/>
      </g>
     </g>
    </g>
    <g id="text_19">
     <!-- $n$ -->
     <g style="fill: #262626" transform="translate(291.36 783.06375)scale(0.12 -0.12)">
      <defs>
       <path id="DejaVuSans-Oblique-6e" d="M 3566 2113 
L 3156 0 
L 2578 0 
L 2988 2091 
Q 3016 2238 3031 2350 
Q 3047 2463 3047 2528 
Q 3047 2791 2881 2937 
Q 2716 3084 2419 3084 
Q 1956 3084 1622 2776 
Q 1288 2469 1184 1941 
L 800 0 
L 225 0 
L 903 3500 
L 1478 3500 
L 1363 2950 
Q 1603 3253 1940 3418 
Q 2278 3584 2650 3584 
Q 3113 3584 3367 3334 
Q 3622 3084 3622 2631 
Q 3622 2519 3608 2391 
Q 3594 2263 3566 2113 
z
" transform="scale(0.015625)"/>
      </defs>
      <use xlink:href="#DejaVuSans-Oblique-6e"/>
     </g>
    </g>
   </g>
   <g id="matplotlib.axis_4">
    <g id="ytick_7">
     <g id="line2d_50">
      <path d="M 72 726.246559 
L 518.4 726.246559 
" clip-path="url(#p355dad880e)" style="fill: none; stroke: #ffffff; stroke-width: 0.8; stroke-linecap: round"/>
     </g>
     <g id="line2d_51"/>
     <g id="text_20">
      <!-- −1.0 -->
      <g style="fill: #262626" transform="translate(44.81125 730.541247)scale(0.12 -0.12)">
       <use xlink:href="#ArialMT-2212"/>
       <use xlink:href="#ArialMT-31" x="58.398438"/>
       <use xlink:href="#ArialMT-2e" x="114.013672"/>
       <use xlink:href="#ArialMT-30" x="141.796875"/>
      </g>
     </g>
    </g>
    <g id="ytick_8">
     <g id="line2d_52">
      <path d="M 72 661.786766 
L 518.4 661.786766 
" clip-path="url(#p355dad880e)" style="fill: none; stroke: #ffffff; stroke-width: 0.8; stroke-linecap: round"/>
     </g>
     <g id="line2d_53"/>
     <g id="text_21">
      <!-- −0.5 -->
      <g style="fill: #262626" transform="translate(44.81125 666.081454)scale(0.12 -0.12)">
       <use xlink:href="#ArialMT-2212"/>
       <use xlink:href="#ArialMT-30" x="58.398438"/>
       <use xlink:href="#ArialMT-2e" x="114.013672"/>
       <use xlink:href="#ArialMT-35" x="141.796875"/>
      </g>
     </g>
    </g>
    <g id="ytick_9">
     <g id="line2d_54">
      <path d="M 72 597.326973 
L 518.4 597.326973 
" clip-path="url(#p355dad880e)" style="fill: none; stroke: #ffffff; stroke-width: 0.8; stroke-linecap: round"/>
     </g>
     <g id="line2d_55"/>
     <g id="text_22">
      <!-- 0.0 -->
      <g style="fill: #262626" transform="translate(51.82 601.62166)scale(0.12 -0.12)">
       <use xlink:href="#ArialMT-30"/>
       <use xlink:href="#ArialMT-2e" x="55.615234"/>
       <use xlink:href="#ArialMT-30" x="83.398438"/>
      </g>
     </g>
    </g>
    <g id="ytick_10">
     <g id="line2d_56">
      <path d="M 72 532.867179 
L 518.4 532.867179 
" clip-path="url(#p355dad880e)" style="fill: none; stroke: #ffffff; stroke-width: 0.8; stroke-linecap: round"/>
     </g>
     <g id="line2d_57"/>
     <g id="text_23">
      <!-- 0.5 -->
      <g style="fill: #262626" transform="translate(51.82 537.161867)scale(0.12 -0.12)">
       <use xlink:href="#ArialMT-30"/>
       <use xlink:href="#ArialMT-2e" x="55.615234"/>
       <use xlink:href="#ArialMT-35" x="83.398438"/>
      </g>
     </g>
    </g>
    <g id="ytick_11">
     <g id="line2d_58">
      <path d="M 72 468.407386 
L 518.4 468.407386 
" clip-path="url(#p355dad880e)" style="fill: none; stroke: #ffffff; stroke-width: 0.8; stroke-linecap: round"/>
     </g>
     <g id="line2d_59"/>
     <g id="text_24">
      <!-- 1.0 -->
      <g style="fill: #262626" transform="translate(51.82 472.702074)scale(0.12 -0.12)">
       <use xlink:href="#ArialMT-31"/>
       <use xlink:href="#ArialMT-2e" x="55.615234"/>
       <use xlink:href="#ArialMT-30" x="83.398438"/>
      </g>
     </g>
    </g>
    <g id="text_25">
     <!-- $\delta\nu$/$\mathrm{\mu Hz}$ -->
     <g style="fill: #262626" transform="translate(38.29125 617.117561)rotate(-90)scale(0.12 -0.12)">
      <use xlink:href="#DejaVuSans-Oblique-3b4" transform="translate(0 0.78125)"/>
      <use xlink:href="#DejaVuSans-Oblique-3bd" transform="translate(61.181641 0.78125)"/>
      <use xlink:href="#ArialMT-2f" transform="translate(117.041016 0.78125)"/>
      <use xlink:href="#DejaVuSans-3bc" transform="translate(144.824219 0.78125)"/>
      <use xlink:href="#DejaVuSans-48" transform="translate(208.447266 0.78125)"/>
      <use xlink:href="#DejaVuSans-7a" transform="translate(283.642578 0.78125)"/>
     </g>
    </g>
   </g>
   <g id="PolyCollection_2">
    <defs>
     <path id="mf1cc185f93" d="M 92.290909 -290.562512 
L 92.290909 -263.252423 
L 93.920701 -249.880891 
L 95.550493 -236.719666 
L 97.180285 -223.874046 
L 98.810077 -211.341901 
L 100.439869 -199.257731 
L 102.06966 -187.666069 
L 103.699452 -176.394271 
L 105.329244 -166.220613 
L 106.959036 -156.807836 
L 108.588828 -148.396873 
L 110.21862 -140.939272 
L 111.848412 -134.94701 
L 113.478204 -129.82534 
L 115.107996 -126.330209 
L 116.737788 -123.60507 
L 118.367579 -122.463858 
L 119.997371 -122.892284 
L 121.627163 -124.377616 
L 123.256955 -127.697566 
L 124.886747 -132.500204 
L 126.516539 -138.36107 
L 128.146331 -145.640972 
L 129.776123 -154.258258 
L 131.405915 -163.925969 
L 133.035706 -174.996937 
L 134.665498 -186.49123 
L 136.29529 -199.118239 
L 137.925082 -212.421419 
L 139.554874 -226.606606 
L 141.184666 -240.773846 
L 142.814458 -255.172048 
L 144.44425 -269.713045 
L 146.074042 -284.629187 
L 147.703834 -298.958559 
L 149.333625 -312.990742 
L 150.963417 -326.358723 
L 152.593209 -339.064151 
L 154.223001 -350.806141 
L 155.852793 -361.941898 
L 157.482585 -372.186811 
L 159.112377 -380.98158 
L 160.742169 -388.180974 
L 162.371961 -393.892123 
L 164.001752 -398.036767 
L 165.631544 -400.779942 
L 167.261336 -401.678068 
L 168.891128 -400.960522 
L 170.52092 -398.715264 
L 172.150712 -394.898797 
L 173.780504 -389.438494 
L 175.410296 -382.840848 
L 177.040088 -375.011427 
L 178.66988 -365.863306 
L 180.299671 -355.579069 
L 181.929463 -344.323676 
L 183.559255 -332.14771 
L 185.189047 -319.385548 
L 186.818839 -306.364019 
L 188.448631 -292.722412 
L 190.078423 -279.071002 
L 191.708215 -265.418772 
L 193.338007 -251.677731 
L 194.967798 -238.008141 
L 196.59759 -224.87081 
L 198.227382 -212.328823 
L 199.857174 -200.312273 
L 201.486966 -189.083114 
L 203.116758 -178.702817 
L 204.74655 -169.432021 
L 206.376342 -161.388469 
L 208.006134 -154.026122 
L 209.635926 -148.420571 
L 211.265717 -143.743873 
L 212.895509 -140.632784 
L 214.525301 -138.664917 
L 216.155093 -138.187148 
L 217.784885 -138.85727 
L 219.414677 -140.782696 
L 221.044469 -144.1045 
L 222.674261 -148.578594 
L 224.304053 -154.181285 
L 225.933844 -161.019323 
L 227.563636 -169.006306 
L 229.193428 -177.659369 
L 230.82322 -187.286783 
L 232.453012 -197.561832 
L 234.082804 -208.374608 
L 235.712596 -219.76533 
L 237.342388 -231.413494 
L 238.97218 -243.157966 
L 240.601972 -255.043914 
L 242.231763 -266.878249 
L 243.861555 -278.473908 
L 245.491347 -289.819198 
L 247.121139 -300.670835 
L 248.750931 -310.904953 
L 250.380723 -320.442296 
L 252.010515 -329.275152 
L 253.640307 -337.250854 
L 255.270099 -344.290542 
L 256.89989 -350.335685 
L 258.529682 -355.363739 
L 260.159474 -359.286106 
L 261.789266 -362.088964 
L 263.419058 -363.836428 
L 265.04885 -364.471179 
L 266.678642 -363.869248 
L 268.308434 -362.244312 
L 269.938226 -359.534814 
L 271.568018 -355.82958 
L 273.197809 -351.212225 
L 274.827601 -345.712437 
L 276.457393 -339.393603 
L 278.087185 -332.385103 
L 279.716977 -324.754954 
L 281.346769 -316.677145 
L 282.976561 -308.215902 
L 284.606353 -299.468854 
L 286.236145 -290.456819 
L 287.865936 -281.283277 
L 289.495728 -272.235949 
L 291.12552 -263.170102 
L 292.755312 -254.415392 
L 294.385104 -245.93831 
L 296.014896 -237.80987 
L 297.644688 -230.208773 
L 299.27448 -223.058857 
L 300.904272 -216.505602 
L 302.534064 -210.615442 
L 304.163855 -205.313161 
L 305.793647 -200.844913 
L 307.423439 -196.953391 
L 309.053231 -194.041236 
L 310.683023 -191.783416 
L 312.312815 -190.468899 
L 313.942607 -190.000307 
L 315.572399 -190.303344 
L 317.202191 -191.469164 
L 318.831982 -193.130174 
L 320.461774 -195.776546 
L 322.091566 -198.705607 
L 323.721358 -202.641738 
L 325.35115 -206.893205 
L 326.980942 -211.916008 
L 328.610734 -217.274576 
L 330.240526 -223.013151 
L 331.870318 -229.083774 
L 333.50011 -235.372923 
L 335.129901 -241.822673 
L 336.759693 -248.296611 
L 338.389485 -254.799286 
L 340.019277 -261.325292 
L 341.649069 -267.659281 
L 343.278861 -273.820484 
L 344.908653 -279.583748 
L 346.538445 -284.904295 
L 348.168237 -290.008686 
L 349.798028 -294.590656 
L 351.42782 -298.65032 
L 353.057612 -302.086072 
L 354.687404 -305.390397 
L 356.317196 -308.043319 
L 357.946988 -309.945585 
L 359.57678 -311.360246 
L 361.206572 -312.255349 
L 362.836364 -312.480967 
L 364.466156 -312.167595 
L 366.095947 -311.283951 
L 367.725739 -309.918009 
L 369.355531 -308.129037 
L 370.985323 -305.934139 
L 372.615115 -303.387925 
L 374.244907 -300.511331 
L 375.874699 -297.181194 
L 377.504491 -293.605602 
L 379.134283 -289.764172 
L 380.764074 -285.88498 
L 382.393866 -281.913897 
L 384.023658 -277.700838 
L 385.65345 -273.657036 
L 387.283242 -269.583439 
L 388.913034 -265.561119 
L 390.542826 -261.677518 
L 392.172618 -257.931072 
L 393.80241 -254.250287 
L 395.432202 -250.973554 
L 397.061993 -247.986971 
L 398.691785 -245.128571 
L 400.321577 -242.579197 
L 401.951369 -240.34242 
L 403.581161 -238.352048 
L 405.210953 -236.781194 
L 406.840745 -235.679967 
L 408.470537 -234.716274 
L 410.100329 -233.978215 
L 411.73012 -233.72751 
L 413.359912 -233.704755 
L 414.989704 -234.080387 
L 416.619496 -234.718328 
L 418.249288 -235.678193 
L 419.87908 -236.963098 
L 421.508872 -238.427025 
L 423.138664 -240.109908 
L 424.768456 -242.119294 
L 426.398248 -244.326165 
L 428.028039 -246.706945 
L 429.657831 -249.145174 
L 431.287623 -251.5686 
L 432.917415 -254.068318 
L 434.547207 -256.600378 
L 436.176999 -259.223512 
L 437.806791 -261.790376 
L 439.436583 -264.243837 
L 441.066375 -266.568856 
L 442.696166 -268.907458 
L 444.325958 -271.120947 
L 445.95575 -273.134997 
L 447.585542 -274.886 
L 449.215334 -276.503381 
L 450.845126 -277.799538 
L 452.474918 -278.863495 
L 454.10471 -279.780013 
L 455.734502 -280.527549 
L 457.364294 -281.044453 
L 458.994085 -281.389997 
L 460.623877 -281.588358 
L 462.253669 -281.511026 
L 463.883461 -281.160793 
L 465.513253 -280.766166 
L 467.143045 -280.14568 
L 468.772837 -279.389675 
L 470.402629 -278.576339 
L 472.032421 -277.586064 
L 473.662212 -276.556323 
L 475.292004 -275.408702 
L 476.921796 -274.155404 
L 478.551588 -272.930227 
L 480.18138 -271.599975 
L 481.811172 -270.261262 
L 483.440964 -268.903204 
L 485.070756 -267.611149 
L 486.700548 -266.384612 
L 488.33034 -265.143161 
L 489.960131 -263.971439 
L 491.589923 -262.803443 
L 493.219715 -261.735406 
L 494.849507 -260.752568 
L 496.479299 -259.897051 
L 498.109091 -259.139324 
L 498.109091 -261.994624 
L 498.109091 -261.994624 
L 496.479299 -262.82146 
L 494.849507 -263.852873 
L 493.219715 -264.994819 
L 491.589923 -266.19858 
L 489.960131 -267.403572 
L 488.33034 -268.726923 
L 486.700548 -270.144567 
L 485.070756 -271.611317 
L 483.440964 -273.006825 
L 481.811172 -274.419438 
L 480.18138 -275.863535 
L 478.551588 -277.312055 
L 476.921796 -278.70551 
L 475.292004 -280.020324 
L 473.662212 -281.239529 
L 472.032421 -282.30493 
L 470.402629 -283.27227 
L 468.772837 -284.127721 
L 467.143045 -284.785553 
L 465.513253 -285.317797 
L 463.883461 -285.71558 
L 462.253669 -285.893696 
L 460.623877 -285.838866 
L 458.994085 -285.600665 
L 457.364294 -285.275637 
L 455.734502 -284.733049 
L 454.10471 -284.038496 
L 452.474918 -283.156375 
L 450.845126 -281.948578 
L 449.215334 -280.696757 
L 447.585542 -279.23225 
L 445.95575 -277.531448 
L 444.325958 -275.8195 
L 442.696166 -273.870884 
L 441.066375 -271.717636 
L 439.436583 -269.503263 
L 437.806791 -267.244925 
L 436.176999 -264.909151 
L 434.547207 -262.516004 
L 432.917415 -260.078856 
L 431.287623 -257.647668 
L 429.657831 -255.266622 
L 428.028039 -252.887614 
L 426.398248 -250.709099 
L 424.768456 -248.544492 
L 423.138664 -246.629357 
L 421.508872 -244.923419 
L 419.87908 -243.373471 
L 418.249288 -242.028213 
L 416.619496 -240.922944 
L 414.989704 -240.060521 
L 413.359912 -239.58384 
L 411.73012 -239.332892 
L 410.100329 -239.624796 
L 408.470537 -240.170313 
L 406.840745 -241.122006 
L 405.210953 -242.342182 
L 403.581161 -244.02752 
L 401.951369 -245.88558 
L 400.321577 -248.148791 
L 398.691785 -250.736572 
L 397.061993 -253.726018 
L 395.432202 -256.966177 
L 393.80241 -260.56941 
L 392.172618 -264.403914 
L 390.542826 -268.457399 
L 388.913034 -272.633391 
L 387.283242 -276.842899 
L 385.65345 -281.056573 
L 384.023658 -285.273416 
L 382.393866 -289.533654 
L 380.764074 -293.56997 
L 379.134283 -297.500145 
L 377.504491 -301.252953 
L 375.874699 -304.796156 
L 374.244907 -307.891531 
L 372.615115 -310.858613 
L 370.985323 -313.424161 
L 369.355531 -315.54721 
L 367.725739 -317.111457 
L 366.095947 -318.321091 
L 364.466156 -318.924243 
L 362.836364 -319.046606 
L 361.206572 -318.63835 
L 359.57678 -317.644001 
L 357.946988 -316.104507 
L 356.317196 -313.94071 
L 354.687404 -311.573567 
L 353.057612 -308.550411 
L 351.42782 -304.975018 
L 349.798028 -300.919686 
L 348.168237 -296.403302 
L 346.538445 -291.588673 
L 344.908653 -286.349972 
L 343.278861 -280.739785 
L 341.649069 -274.725131 
L 340.019277 -268.576498 
L 338.389485 -262.364223 
L 336.759693 -256.106453 
L 335.129901 -249.640916 
L 333.50011 -243.217065 
L 331.870318 -236.919316 
L 330.240526 -231.028021 
L 328.610734 -225.239094 
L 326.980942 -219.808438 
L 325.35115 -214.60313 
L 323.721358 -209.952125 
L 322.091566 -206.00738 
L 320.461774 -202.859966 
L 318.831982 -200.174858 
L 317.202191 -198.177897 
L 315.572399 -197.020957 
L 313.942607 -196.513187 
L 312.312815 -196.796604 
L 310.683023 -197.89472 
L 309.053231 -200.022395 
L 307.423439 -202.88018 
L 305.793647 -206.665619 
L 304.163855 -211.210146 
L 302.534064 -216.494622 
L 300.904272 -222.437448 
L 299.27448 -229.140289 
L 297.644688 -236.262014 
L 296.014896 -243.923512 
L 294.385104 -252.161751 
L 292.755312 -260.749403 
L 291.12552 -269.612072 
L 289.495728 -278.695128 
L 287.865936 -287.882529 
L 286.236145 -297.089093 
L 284.606353 -306.098064 
L 282.976561 -314.913912 
L 281.346769 -323.25595 
L 279.716977 -331.268979 
L 278.087185 -338.822904 
L 276.457393 -345.726566 
L 274.827601 -351.925857 
L 273.197809 -357.436131 
L 271.568018 -361.96919 
L 269.938226 -365.583553 
L 268.308434 -368.374515 
L 266.678642 -369.707563 
L 265.04885 -370.293277 
L 263.419058 -369.721864 
L 261.789266 -367.823447 
L 260.159474 -365.010505 
L 258.529682 -361.095713 
L 256.89989 -356.159681 
L 255.270099 -350.319521 
L 253.640307 -343.404751 
L 252.010515 -335.628689 
L 250.380723 -326.820378 
L 248.750931 -317.295349 
L 247.121139 -307.203692 
L 245.491347 -296.414941 
L 243.861555 -285.309066 
L 242.231763 -273.788773 
L 240.601972 -261.93213 
L 238.97218 -250.054117 
L 237.342388 -238.268646 
L 235.712596 -226.726967 
L 234.082804 -215.48337 
L 232.453012 -204.604807 
L 230.82322 -194.411396 
L 229.193428 -184.892426 
L 227.563636 -176.106744 
L 225.933844 -168.261822 
L 224.304053 -161.340819 
L 222.674261 -155.630217 
L 221.044469 -150.975261 
L 219.414677 -147.578848 
L 217.784885 -145.62976 
L 216.155093 -145.019433 
L 214.525301 -145.692989 
L 212.895509 -147.832519 
L 211.265717 -151.451705 
L 209.635926 -156.439311 
L 208.006134 -162.931174 
L 206.376342 -170.600468 
L 204.74655 -179.2998 
L 203.116758 -189.136535 
L 201.486966 -199.945496 
L 199.857174 -211.581215 
L 198.227382 -224.010232 
L 196.59759 -237.056311 
L 194.967798 -250.591341 
L 193.338007 -264.419344 
L 191.708215 -278.368513 
L 190.078423 -292.288765 
L 188.448631 -306.031427 
L 186.818839 -319.377912 
L 185.189047 -332.49005 
L 183.559255 -345.103119 
L 181.929463 -356.925185 
L 180.299671 -367.835919 
L 178.66988 -377.706277 
L 177.040088 -386.473312 
L 175.410296 -393.99398 
L 173.780504 -400.115875 
L 172.150712 -405.129099 
L 170.52092 -409.104196 
L 168.891128 -411.144815 
L 167.261336 -411.74102 
L 165.631544 -410.947918 
L 164.001752 -408.734292 
L 162.371961 -405.158585 
L 160.742169 -400.158823 
L 159.112377 -393.810842 
L 157.482585 -385.910476 
L 155.852793 -377.081634 
L 154.223001 -367.473934 
L 152.593209 -356.728201 
L 150.963417 -345.023939 
L 149.333625 -332.675229 
L 147.703834 -319.230026 
L 146.074042 -305.204202 
L 144.44425 -290.778708 
L 142.814458 -276.104373 
L 141.184666 -261.349573 
L 139.554874 -247.161603 
L 137.925082 -233.390318 
L 136.29529 -220.014925 
L 134.665498 -206.968174 
L 133.035706 -194.444411 
L 131.405915 -182.902679 
L 129.776123 -172.437636 
L 128.146331 -162.656186 
L 126.516539 -154.290879 
L 124.886747 -147.569345 
L 123.256955 -142.061875 
L 121.627163 -138.692285 
L 119.997371 -135.998197 
L 118.367579 -135.128874 
L 116.737788 -136.261864 
L 115.107996 -139.057659 
L 113.478204 -143.4663 
L 111.848412 -149.427722 
L 110.21862 -156.722632 
L 108.588828 -165.501955 
L 106.959036 -175.591171 
L 105.329244 -186.751044 
L 103.699452 -198.568085 
L 102.06966 -211.01313 
L 100.439869 -223.703326 
L 98.810077 -236.971103 
L 97.180285 -249.803549 
L 95.550493 -263.134773 
L 93.920701 -276.671044 
L 92.290909 -290.562512 
z
" style="stroke: #ff7f0e; stroke-opacity: 0.3"/>
    </defs>
    <g clip-path="url(#p355dad880e)">
     <use xlink:href="#mf1cc185f93" x="0" y="864" style="fill: #ff7f0e; fill-opacity: 0.3; stroke: #ff7f0e; stroke-opacity: 0.3"/>
    </g>
   </g>
   <g id="PolyCollection_3">
    <defs>
     <path id="mdf77ff9513" d="M 92.290909 -348.086302 
L 92.290909 -342.267947 
L 93.920701 -336.497506 
L 95.550493 -321.714992 
L 97.180285 -300.902003 
L 98.810077 -277.173499 
L 100.439869 -253.301156 
L 102.06966 -232.048796 
L 103.699452 -215.377729 
L 105.329244 -205.312011 
L 106.959036 -200.605293 
L 108.588828 -201.944123 
L 110.21862 -210.324046 
L 111.848412 -224.757475 
L 113.478204 -243.762725 
L 115.107996 -264.734902 
L 116.737788 -284.579381 
L 118.367579 -301.297431 
L 119.997371 -313.227446 
L 121.627163 -317.181554 
L 123.256955 -312.916821 
L 124.886747 -302.994496 
L 126.516539 -288.976657 
L 128.146331 -272.826068 
L 129.776123 -256.360482 
L 131.405915 -241.741424 
L 133.035706 -230.560574 
L 134.665498 -223.540405 
L 136.29529 -220.614226 
L 137.925082 -222.423788 
L 139.554874 -229.180152 
L 141.184666 -240.199709 
L 142.814458 -253.921789 
L 144.44425 -268.743336 
L 146.074042 -282.596618 
L 147.703834 -293.840548 
L 149.333625 -301.188651 
L 150.963417 -302.720004 
L 152.593209 -299.484141 
L 154.223001 -292.022596 
L 155.852793 -282.0004 
L 157.482585 -270.278949 
L 159.112377 -258.412083 
L 160.742169 -247.758658 
L 162.371961 -239.637685 
L 164.001752 -234.476125 
L 165.631544 -232.731097 
L 167.261336 -234.806757 
L 168.891128 -240.56113 
L 170.52092 -249.352176 
L 172.150712 -259.722573 
L 173.780504 -270.565753 
L 175.410296 -280.598667 
L 177.040088 -288.576808 
L 178.66988 -293.009359 
L 180.299671 -293.629707 
L 181.929463 -290.871799 
L 183.559255 -285.094796 
L 185.189047 -277.275603 
L 186.818839 -268.326876 
L 188.448631 -259.347245 
L 190.078423 -251.402294 
L 191.708215 -245.284236 
L 193.338007 -241.513776 
L 194.967798 -240.778208 
L 196.59759 -242.933968 
L 198.227382 -247.890812 
L 199.857174 -254.858802 
L 201.486966 -262.960632 
L 203.116758 -271.397606 
L 204.74655 -278.742917 
L 206.376342 -284.267872 
L 208.006134 -287.321094 
L 209.635926 -287.551219 
L 211.265717 -285.116621 
L 212.895509 -280.406438 
L 214.525301 -274.000739 
L 216.155093 -266.822593 
L 217.784885 -259.729356 
L 219.414677 -253.517794 
L 221.044469 -248.938682 
L 222.674261 -246.468973 
L 224.304053 -246.378108 
L 225.933844 -248.497606 
L 227.563636 -252.706257 
L 229.193428 -258.334326 
L 230.82322 -264.802712 
L 232.453012 -271.222099 
L 234.082804 -276.913966 
L 235.712596 -281.080122 
L 237.342388 -283.327993 
L 238.97218 -283.233892 
L 240.601972 -280.943114 
L 242.231763 -276.836804 
L 243.861555 -271.447193 
L 245.491347 -265.566025 
L 247.121139 -259.815819 
L 248.750931 -255.014806 
L 250.380723 -251.694323 
L 252.010515 -250.150915 
L 253.640307 -250.380332 
L 255.270099 -252.359723 
L 256.89989 -255.897079 
L 258.529682 -260.493671 
L 260.159474 -265.721745 
L 261.789266 -270.814628 
L 263.419058 -275.296298 
L 265.04885 -278.627485 
L 266.678642 -280.357896 
L 268.308434 -280.077216 
L 269.938226 -277.810689 
L 271.568018 -274.11218 
L 273.197809 -269.547852 
L 274.827601 -264.532886 
L 276.457393 -259.945042 
L 278.087185 -256.225913 
L 279.716977 -253.847776 
L 281.346769 -252.925194 
L 282.976561 -253.400716 
L 284.606353 -255.169668 
L 286.236145 -258.090682 
L 287.865936 -261.967904 
L 289.495728 -266.260657 
L 291.12552 -270.467058 
L 292.755312 -274.097863 
L 294.385104 -276.761468 
L 296.014896 -278.111319 
L 297.644688 -277.606298 
L 299.27448 -275.377966 
L 300.904272 -272.090192 
L 302.534064 -268.013694 
L 304.163855 -263.866045 
L 305.793647 -260.146599 
L 307.423439 -257.291059 
L 309.053231 -255.568889 
L 310.683023 -255.11434 
L 312.312815 -255.698445 
L 313.942607 -257.223194 
L 315.572399 -259.743693 
L 317.202191 -262.971168 
L 318.831982 -266.589518 
L 320.461774 -270.087939 
L 322.091566 -273.166232 
L 323.721358 -275.349324 
L 325.35115 -276.378506 
L 326.980942 -275.642765 
L 328.610734 -273.486267 
L 330.240526 -270.431685 
L 331.870318 -266.903405 
L 333.50011 -263.456284 
L 335.129901 -260.467526 
L 336.759693 -258.233242 
L 338.389485 -257.024664 
L 340.019277 -256.870065 
L 341.649069 -257.441241 
L 343.278861 -258.792937 
L 344.908653 -260.944998 
L 346.538445 -263.721552 
L 348.168237 -266.782829 
L 349.798028 -269.820249 
L 351.42782 -272.394277 
L 353.057612 -274.196954 
L 354.687404 -275.00245 
L 356.317196 -274.028171 
L 357.946988 -271.922433 
L 359.57678 -269.184267 
L 361.206572 -266.108122 
L 362.836364 -263.214421 
L 364.466156 -260.702978 
L 366.095947 -259.0439 
L 367.725739 -258.2492 
L 369.355531 -258.251696 
L 370.985323 -258.813339 
L 372.615115 -260.018041 
L 374.244907 -261.894301 
L 375.874699 -264.307249 
L 377.504491 -266.985626 
L 379.134283 -269.560114 
L 380.764074 -271.737511 
L 382.393866 -273.249781 
L 384.023658 -273.855173 
L 385.65345 -272.686458 
L 387.283242 -270.720813 
L 388.913034 -268.203813 
L 390.542826 -265.524877 
L 392.172618 -263.057767 
L 393.80241 -261.038062 
L 395.432202 -259.791303 
L 397.061993 -259.277533 
L 398.691785 -259.391655 
L 400.321577 -259.91267 
L 401.951369 -260.970057 
L 403.581161 -262.646897 
L 405.210953 -264.766291 
L 406.840745 -267.093337 
L 408.470537 -269.313648 
L 410.100329 -271.177903 
L 411.73012 -272.467639 
L 413.359912 -272.803738 
L 414.989704 -271.562234 
L 416.619496 -269.662528 
L 418.249288 -267.419831 
L 419.87908 -265.098728 
L 421.508872 -262.987889 
L 423.138664 -261.374327 
L 424.768456 -260.450951 
L 426.398248 -260.164505 
L 428.028039 -260.329296 
L 429.657831 -260.812747 
L 431.287623 -261.73687 
L 432.917415 -263.24788 
L 434.547207 -265.124936 
L 436.176999 -267.154508 
L 437.806791 -269.088777 
L 439.436583 -270.719804 
L 441.066375 -271.820509 
L 442.696166 -271.892655 
L 444.325958 -270.579121 
L 445.95575 -268.794294 
L 447.585542 -266.771342 
L 449.215334 -264.763219 
L 450.845126 -263.001164 
L 452.474918 -261.716957 
L 454.10471 -261.037333 
L 455.734502 -260.93193 
L 457.364294 -261.085554 
L 458.994085 -261.52829 
L 460.623877 -262.382288 
L 462.253669 -263.735312 
L 463.883461 -265.398189 
L 465.513253 -267.198139 
L 467.143045 -268.917866 
L 468.772837 -270.333647 
L 470.402629 -271.283606 
L 472.032421 -271.053849 
L 473.662212 -269.749552 
L 475.292004 -268.081645 
L 476.921796 -266.26074 
L 478.551588 -264.513681 
L 480.18138 -263.042249 
L 481.811172 -262.051161 
L 483.440964 -261.570081 
L 485.070756 -261.576277 
L 486.700548 -261.720709 
L 488.33034 -262.115736 
L 489.960131 -262.914757 
L 491.589923 -264.153743 
L 493.219715 -265.621376 
L 494.849507 -267.229816 
L 496.479299 -268.770643 
L 498.109091 -270.01151 
L 498.109091 -271.514747 
L 498.109091 -271.514747 
L 496.479299 -271.139491 
L 494.849507 -270.257241 
L 493.219715 -268.925463 
L 491.589923 -267.297915 
L 489.960131 -265.572031 
L 488.33034 -263.962456 
L 486.700548 -262.671959 
L 485.070756 -262.296155 
L 483.440964 -263.180538 
L 481.811172 -264.503307 
L 480.18138 -266.13095 
L 478.551588 -267.830943 
L 476.921796 -269.385404 
L 475.292004 -270.681197 
L 473.662212 -271.506377 
L 472.032421 -271.92767 
L 470.402629 -272.080664 
L 468.772837 -272.032716 
L 467.143045 -271.456789 
L 465.513253 -270.325558 
L 463.883461 -268.719033 
L 462.253669 -266.84532 
L 460.623877 -264.92547 
L 458.994085 -263.199084 
L 457.364294 -261.88472 
L 455.734502 -261.806145 
L 454.10471 -262.827263 
L 452.474918 -264.345161 
L 450.845126 -266.167946 
L 449.215334 -268.076696 
L 447.585542 -269.842256 
L 445.95575 -271.278188 
L 444.325958 -272.157404 
L 442.696166 -272.625722 
L 441.066375 -272.782809 
L 439.436583 -272.59197 
L 437.806791 -271.803249 
L 436.176999 -270.354251 
L 434.547207 -268.430699 
L 432.917415 -266.269781 
L 431.287623 -264.13931 
L 429.657831 -262.296578 
L 428.028039 -261.012677 
L 426.398248 -261.216777 
L 424.768456 -262.40723 
L 423.138664 -264.150701 
L 421.508872 -266.219007 
L 419.87908 -268.400543 
L 418.249288 -270.388148 
L 416.619496 -271.963506 
L 414.989704 -272.950719 
L 413.359912 -273.461458 
L 411.73012 -273.602994 
L 410.100329 -273.22287 
L 408.470537 -272.133926 
L 406.840745 -270.347082 
L 405.210953 -268.051173 
L 403.581161 -265.549029 
L 401.951369 -263.179074 
L 400.321577 -261.244395 
L 398.691785 -260.023882 
L 397.061993 -260.503975 
L 395.432202 -261.903103 
L 393.80241 -263.903907 
L 392.172618 -266.316446 
L 390.542826 -268.791552 
L 388.913034 -271.050312 
L 387.283242 -272.828432 
L 385.65345 -273.947441 
L 384.023658 -274.481722 
L 382.393866 -274.563329 
L 380.764074 -273.91692 
L 379.134283 -272.481745 
L 377.504491 -270.205994 
L 375.874699 -267.552158 
L 374.244907 -264.682466 
L 372.615115 -262.041312 
L 370.985323 -260.021784 
L 369.355531 -258.934941 
L 367.725739 -259.642416 
L 366.095947 -261.283057 
L 364.466156 -263.642333 
L 362.836364 -266.453464 
L 361.206572 -269.299878 
L 359.57678 -271.900156 
L 357.946988 -273.896381 
L 356.317196 -275.197764 
L 354.687404 -275.737122 
L 353.057612 -275.680382 
L 351.42782 -274.71299 
L 349.798028 -272.741646 
L 348.168237 -270.028073 
L 346.538445 -266.871085 
L 344.908653 -263.570749 
L 343.278861 -260.648577 
L 341.649069 -258.543876 
L 340.019277 -257.692488 
L 338.389485 -258.59509 
L 336.759693 -260.579031 
L 335.129901 -263.402659 
L 333.50011 -266.65539 
L 331.870318 -269.984127 
L 330.240526 -272.939623 
L 328.610734 -275.271106 
L 326.980942 -276.713038 
L 325.35115 -277.303468 
L 323.721358 -277.027402 
L 322.091566 -275.570399 
L 320.461774 -273.034972 
L 318.831982 -269.709933 
L 317.202191 -265.941719 
L 315.572399 -262.142132 
L 313.942607 -258.958411 
L 312.312815 -256.761279 
L 310.683023 -256.153427 
L 309.053231 -257.332462 
L 307.423439 -259.732876 
L 305.793647 -263.085182 
L 304.163855 -266.895436 
L 302.534064 -270.80299 
L 300.904272 -274.351651 
L 299.27448 -277.074173 
L 297.644688 -278.722948 
L 296.014896 -279.287234 
L 294.385104 -278.594556 
L 292.755312 -276.579194 
L 291.12552 -273.348927 
L 289.495728 -269.18846 
L 287.865936 -264.632684 
L 286.236145 -260.3081 
L 284.606353 -256.803798 
L 282.976561 -254.566176 
L 281.346769 -254.190254 
L 279.716977 -255.714597 
L 278.087185 -258.683475 
L 276.457393 -262.714532 
L 274.827601 -267.366249 
L 273.197809 -272.050649 
L 271.568018 -276.242715 
L 269.938226 -279.482136 
L 268.308434 -281.342236 
L 266.678642 -281.733142 
L 265.04885 -280.503256 
L 263.419058 -277.695749 
L 261.789266 -273.480265 
L 260.159474 -268.349144 
L 258.529682 -262.932539 
L 256.89989 -257.969489 
L 255.270099 -254.062615 
L 253.640307 -251.78615 
L 252.010515 -251.601449 
L 250.380723 -253.5789 
L 248.750931 -257.28872 
L 247.121139 -262.300527 
L 245.491347 -267.981765 
L 243.861555 -273.808394 
L 242.231763 -278.880279 
L 240.601972 -282.71569 
L 238.97218 -284.804446 
L 237.342388 -284.899258 
L 235.712596 -282.951554 
L 234.082804 -279.015581 
L 232.453012 -273.5398 
L 230.82322 -267.186342 
L 229.193428 -260.700136 
L 227.563636 -254.856499 
L 225.933844 -250.480461 
L 224.304053 -248.129082 
L 222.674261 -248.169904 
L 221.044469 -250.756695 
L 219.414677 -255.561392 
L 217.784885 -261.967383 
L 216.155093 -269.268067 
L 214.525301 -276.559589 
L 212.895509 -282.813027 
L 211.265717 -287.430778 
L 209.635926 -289.54272 
L 208.006134 -289.154372 
L 206.376342 -286.057301 
L 204.74655 -280.822094 
L 203.116758 -273.744807 
L 201.486966 -265.811719 
L 199.857174 -257.809858 
L 198.227382 -250.786111 
L 196.59759 -245.624097 
L 194.967798 -243.053541 
L 193.338007 -243.436017 
L 191.708215 -247.074049 
L 190.078423 -253.564894 
L 188.448631 -262.258709 
L 186.818839 -271.701101 
L 185.189047 -280.928015 
L 183.559255 -288.721846 
L 181.929463 -294.042954 
L 180.299671 -296.20071 
L 178.66988 -295.027318 
L 177.040088 -290.559869 
L 175.410296 -283.505986 
L 173.780504 -274.365579 
L 172.150712 -264.133033 
L 170.52092 -253.882917 
L 168.891128 -245.123601 
L 167.261336 -238.604081 
L 165.631544 -235.657019 
L 164.001752 -236.598247 
L 162.371961 -242.29379 
L 160.742169 -251.686568 
L 159.112377 -263.483145 
L 157.482585 -276.135 
L 155.852793 -288.02933 
L 154.223001 -297.796072 
L 152.593209 -304.009501 
L 150.963417 -305.956 
L 149.333625 -303.732453 
L 147.703834 -297.662052 
L 146.074042 -288.222447 
L 144.44425 -275.812272 
L 142.814458 -261.921461 
L 141.184666 -248.262468 
L 139.554874 -236.486842 
L 137.925082 -227.976158 
L 136.29529 -224.290849 
L 134.665498 -226.777492 
L 133.035706 -236.159205 
L 131.405915 -249.767288 
L 129.776123 -266.336704 
L 128.146331 -283.727199 
L 126.516539 -299.788024 
L 124.886747 -312.344382 
L 123.256955 -319.858367 
L 121.627163 -321.37464 
L 119.997371 -317.632199 
L 118.367579 -309.26862 
L 116.737788 -295.740374 
L 115.107996 -278.213044 
L 113.478204 -258.66776 
L 111.848412 -239.332763 
L 110.21862 -222.338675 
L 108.588828 -210.433045 
L 106.959036 -205.442557 
L 105.329244 -211.46025 
L 103.699452 -226.885352 
L 102.06966 -247.674302 
L 100.439869 -272.455058 
L 98.810077 -297.741138 
L 97.180285 -320.515364 
L 95.550493 -337.57164 
L 93.920701 -346.813048 
L 92.290909 -348.086302 
z
" style="stroke: #2ca02c; stroke-opacity: 0.3"/>
    </defs>
    <g clip-path="url(#p355dad880e)">
     <use xlink:href="#mdf77ff9513" x="0" y="864" style="fill: #2ca02c; fill-opacity: 0.3; stroke: #2ca02c; stroke-opacity: 0.3"/>
    </g>
   </g>
   <g id="line2d_60">
    <path d="M 92.290909 586.593942 
L 102.06966 664.916267 
L 105.329244 687.541185 
L 106.959036 697.676178 
L 108.588828 706.759978 
L 110.21862 714.720795 
L 111.848412 721.368656 
L 113.478204 726.742703 
L 115.107996 730.829209 
L 116.737788 733.523803 
L 118.367579 734.621248 
L 119.997371 734.245764 
L 121.627163 732.367783 
L 123.256955 729.157112 
L 124.886747 724.329319 
L 126.516539 718.094 
L 128.146331 710.441 
L 129.776123 701.595183 
L 131.405915 691.471933 
L 133.035706 680.330629 
L 134.665498 668.261955 
L 137.925082 641.773369 
L 142.814458 598.853378 
L 147.703834 555.534574 
L 150.963417 528.653737 
L 152.593209 516.305976 
L 154.223001 504.875573 
L 155.852793 494.524513 
L 157.482585 485.177955 
L 159.112377 477.018581 
L 160.742169 470.290453 
L 162.371961 464.954097 
L 164.001752 461.059364 
L 165.631544 458.646674 
L 167.261336 457.697426 
L 168.891128 458.298911 
L 170.52092 460.394357 
L 172.150712 463.900188 
L 173.780504 468.938121 
L 175.410296 475.209972 
L 177.040088 482.925421 
L 178.66988 491.837569 
L 180.299671 501.885345 
L 181.929463 512.932759 
L 185.189047 537.369048 
L 188.448631 564.09694 
L 196.59759 632.757126 
L 199.857174 657.755266 
L 201.486966 669.209818 
L 203.116758 679.743145 
L 204.74655 689.387804 
L 206.376342 697.909065 
L 208.006134 705.214238 
L 209.635926 711.230564 
L 211.265717 716.006004 
L 212.895509 719.483241 
L 214.525301 721.623085 
L 216.155093 722.345186 
L 217.784885 721.67606 
L 219.414677 719.772442 
L 221.044469 716.474193 
L 222.674261 711.910536 
L 224.304053 706.164698 
L 225.933844 699.358312 
L 227.563636 691.529753 
L 229.193428 682.798275 
L 230.82322 673.204433 
L 234.082804 652.058691 
L 238.97218 617.366708 
L 243.861555 582.12336 
L 247.121139 560.155314 
L 250.380723 540.387375 
L 252.010515 531.635925 
L 253.640307 523.770816 
L 255.270099 516.790807 
L 256.89989 510.768141 
L 258.529682 505.761502 
L 260.159474 501.834574 
L 261.789266 499.106278 
L 263.419058 497.444007 
L 265.04885 496.928845 
L 266.678642 497.438058 
L 268.308434 499.011561 
L 269.938226 501.621759 
L 271.568018 505.282689 
L 273.197809 509.809841 
L 274.827601 515.271769 
L 276.457393 521.509249 
L 278.087185 528.471556 
L 281.346769 543.999986 
L 284.606353 561.265602 
L 294.385104 614.911222 
L 297.644688 630.80372 
L 299.27448 638.024616 
L 300.904272 644.659802 
L 302.534064 650.58291 
L 304.163855 655.775537 
L 305.793647 660.283332 
L 307.423439 664.011129 
L 309.053231 666.893991 
L 310.683023 668.960038 
L 312.312815 670.154916 
L 313.942607 670.62432 
L 315.572399 670.278956 
L 317.202191 669.112856 
L 318.831982 667.209264 
L 320.461774 664.5234 
L 322.091566 661.179578 
L 323.721358 657.28496 
L 325.35115 652.844858 
L 326.980942 647.879021 
L 330.240526 636.816633 
L 333.50011 624.460274 
L 341.649069 592.830763 
L 344.908653 581.16559 
L 348.168237 570.764219 
L 349.798028 566.205901 
L 351.42782 562.178216 
L 353.057612 558.618739 
L 354.687404 555.5431 
L 356.317196 553.029266 
L 357.946988 550.991657 
L 359.57678 549.593962 
L 361.206572 548.769328 
L 362.836364 548.463376 
L 364.466156 548.677044 
L 366.095947 549.475388 
L 367.725739 550.727715 
L 369.355531 552.431583 
L 370.985323 554.64674 
L 372.615115 557.228732 
L 374.244907 560.140224 
L 377.504491 566.892363 
L 380.764074 574.588391 
L 385.65345 586.920837 
L 390.542826 599.082608 
L 393.80241 606.531232 
L 397.061993 613.091401 
L 398.691785 616.057238 
L 400.321577 618.591097 
L 401.951369 620.872956 
L 403.581161 622.772907 
L 405.210953 624.388077 
L 406.840745 625.641394 
L 408.470537 626.510166 
L 410.100329 627.05591 
L 411.73012 627.222787 
L 413.359912 627.119735 
L 414.989704 626.669405 
L 416.619496 625.89806 
L 418.249288 624.829897 
L 419.87908 623.490841 
L 421.508872 621.962723 
L 423.138664 620.198828 
L 426.398248 616.131171 
L 429.657831 611.543291 
L 439.436583 596.9538 
L 442.696166 592.579228 
L 445.95575 588.721178 
L 447.585542 586.985912 
L 449.215334 585.477845 
L 450.845126 584.168617 
L 452.474918 583.033459 
L 454.10471 582.114772 
L 455.734502 581.398525 
L 457.364294 580.865887 
L 458.994085 580.553048 
L 460.623877 580.442445 
L 462.253669 580.522784 
L 463.883461 580.778287 
L 465.513253 581.160634 
L 467.143045 581.75989 
L 470.402629 583.391644 
L 472.032421 584.363561 
L 475.292004 586.619064 
L 478.551588 589.147499 
L 489.960131 598.391154 
L 493.219715 600.625313 
L 496.479299 602.552708 
L 498.109091 603.39648 
L 498.109091 603.39648 
" clip-path="url(#p355dad880e)" style="fill: none; stroke-dasharray: 5.55,2.4; stroke-dashoffset: 0; stroke: #ff7f0e; stroke-width: 1.5"/>
   </g>
   <g id="line2d_61">
    <path d="M 92.290909 518.875576 
L 93.920701 521.639767 
L 95.550493 533.587519 
L 97.180285 552.468195 
L 102.06966 624.417068 
L 103.699452 643.443997 
L 105.329244 656.091765 
L 106.959036 661.045745 
L 108.588828 658.231146 
L 110.21862 648.101318 
L 111.848412 632.316824 
L 116.737788 573.621081 
L 118.367579 558.324452 
L 119.997371 548.330752 
L 121.627163 544.618603 
L 123.256955 547.376937 
L 124.886747 556.086678 
L 126.516539 569.489242 
L 131.405915 618.328195 
L 133.035706 630.910879 
L 134.665498 638.882849 
L 136.29529 641.658429 
L 137.925082 638.938029 
L 139.554874 631.315585 
L 141.184666 619.81481 
L 146.074042 578.520493 
L 147.703834 568.085611 
L 149.333625 561.602285 
L 150.963417 559.569132 
L 152.593209 562.202889 
L 154.223001 569.020473 
L 155.852793 578.993383 
L 160.742169 614.359176 
L 162.371961 623.091145 
L 164.001752 628.403111 
L 165.631544 629.865976 
L 167.261336 627.281079 
L 168.891128 621.137272 
L 170.52092 612.347678 
L 175.410296 581.82433 
L 177.040088 574.429799 
L 178.66988 570.019998 
L 180.299671 569.038866 
L 181.929463 571.546764 
L 183.559255 577.099773 
L 185.189047 584.917186 
L 188.448631 603.298986 
L 190.078423 611.537556 
L 191.708215 617.855781 
L 193.338007 621.504989 
L 194.967798 622.129941 
L 196.59759 619.692508 
L 198.227382 614.619521 
L 199.857174 607.641825 
L 203.116758 591.414743 
L 204.74655 584.22982 
L 206.376342 578.802076 
L 208.006134 575.770896 
L 209.635926 575.425863 
L 211.265717 577.773507 
L 212.895509 582.415616 
L 214.525301 588.745166 
L 217.784885 603.145332 
L 219.414677 609.419878 
L 221.044469 614.152178 
L 222.674261 616.656464 
L 224.304053 616.788571 
L 225.933844 614.520687 
L 227.563636 610.247553 
L 229.193428 604.49831 
L 232.453012 591.64488 
L 234.082804 586.039813 
L 235.712596 581.95888 
L 237.342388 579.893201 
L 238.97218 579.952732 
L 240.601972 582.139429 
L 242.231763 586.112037 
L 243.861555 591.334728 
L 247.121139 602.891743 
L 248.750931 607.863812 
L 250.380723 611.411787 
L 252.010515 613.129063 
L 253.640307 612.91592 
L 255.270099 610.816453 
L 256.89989 607.133626 
L 258.529682 602.334368 
L 261.789266 591.84287 
L 263.419058 587.45754 
L 265.04885 584.359938 
L 266.678642 582.943581 
L 268.308434 583.281233 
L 269.938226 585.308067 
L 271.568018 588.734287 
L 273.197809 593.167859 
L 276.457393 602.68191 
L 278.087185 606.593939 
L 279.716977 609.295783 
L 281.346769 610.463402 
L 282.976561 610.020376 
L 284.606353 608.087638 
L 286.236145 604.851389 
L 287.865936 600.771545 
L 291.12552 592.110114 
L 292.755312 588.603447 
L 294.385104 586.235173 
L 296.014896 585.284058 
L 297.644688 585.81154 
L 299.27448 587.680549 
L 300.904272 590.728675 
L 305.793647 602.407779 
L 307.423439 605.554232 
L 309.053231 607.630256 
L 310.683023 608.39483 
L 312.312815 607.813495 
L 313.942607 605.986543 
L 315.572399 603.113273 
L 320.461774 592.388408 
L 322.091566 589.552591 
L 323.721358 587.736325 
L 325.35115 587.132418 
L 326.980942 587.744923 
L 328.610734 589.540708 
L 330.240526 592.253149 
L 335.129901 602.142344 
L 336.759693 604.692631 
L 338.389485 606.285274 
L 340.019277 606.739619 
L 341.649069 606.089857 
L 343.278861 604.337278 
L 344.908653 601.781757 
L 349.798028 592.632885 
L 351.42782 590.341618 
L 353.057612 588.942706 
L 354.687404 588.617169 
L 356.317196 589.300253 
L 357.946988 590.98791 
L 359.57678 593.418244 
L 364.466156 601.894932 
L 366.095947 603.965427 
L 367.725739 605.183558 
L 369.355531 605.398533 
L 370.985323 604.692537 
L 372.615115 603.070296 
L 374.244907 600.754314 
L 377.504491 595.348961 
L 379.134283 592.885007 
L 380.764074 591.011714 
L 382.393866 589.944229 
L 384.023658 589.836044 
L 385.65345 590.561532 
L 387.283242 592.12894 
L 388.913034 594.323202 
L 392.172618 599.383705 
L 393.80241 601.636363 
L 395.432202 603.345133 
L 397.061993 604.269538 
L 398.691785 604.296383 
L 400.321577 603.543855 
L 401.951369 602.034601 
L 403.581161 599.950964 
L 406.840745 595.205035 
L 408.470537 593.134576 
L 410.100329 591.588232 
L 411.73012 590.795442 
L 413.359912 590.833891 
L 414.989704 591.588911 
L 416.619496 593.067624 
L 418.249288 595.044721 
L 421.508872 599.49693 
L 423.138664 601.405769 
L 424.768456 602.805977 
L 426.398248 603.486021 
L 428.028039 603.389628 
L 429.657831 602.635293 
L 431.287623 601.183649 
L 432.917415 599.298689 
L 436.176999 595.121034 
L 437.806791 593.362173 
L 439.436583 592.096857 
L 441.066375 591.527139 
L 442.696166 591.664314 
L 444.325958 592.431049 
L 445.95575 593.835913 
L 447.585542 595.628039 
L 450.845126 599.556063 
L 452.474918 601.181705 
L 454.10471 602.321878 
L 455.734502 602.801007 
L 457.364294 602.637253 
L 458.994085 601.85014 
L 460.623877 600.489259 
L 462.253669 598.777777 
L 465.513253 595.080396 
L 467.143045 593.583583 
L 468.772837 592.555529 
L 470.402629 592.163965 
L 472.032421 592.356084 
L 473.662212 593.145391 
L 475.292004 594.464431 
L 478.551588 597.89689 
L 480.18138 599.583971 
L 481.811172 600.962582 
L 483.440964 601.89615 
L 485.070756 602.202413 
L 486.700548 601.989717 
L 488.33034 601.190363 
L 489.960131 599.923351 
L 494.849507 595.064672 
L 496.479299 593.796224 
L 498.109091 592.952904 
L 498.109091 592.952904 
" clip-path="url(#p355dad880e)" style="fill: none; stroke-dasharray: 9.6,2.4,1.5,2.4; stroke-dashoffset: 0; stroke: #2ca02c; stroke-width: 1.5"/>
   </g>
   <g id="patch_10">
    <path d="M 72 756 
L 72 437.795122 
" style="fill: none"/>
   </g>
   <g id="patch_11">
    <path d="M 518.4 756 
L 518.4 437.795122 
" style="fill: none"/>
   </g>
   <g id="patch_12">
    <path d="M 72 756 
L 518.4 756 
" style="fill: none"/>
   </g>
   <g id="patch_13">
    <path d="M 72 437.795122 
L 518.4 437.795122 
" style="fill: none"/>
   </g>
   <g id="legend_2">
    <g id="patch_14">
     <path d="M 422.2425 515.663872 
L 510 515.663872 
Q 512.4 515.663872 512.4 513.263872 
L 512.4 446.195122 
Q 512.4 443.795122 510 443.795122 
L 422.2425 443.795122 
Q 419.8425 443.795122 419.8425 446.195122 
L 419.8425 513.263872 
Q 419.8425 515.663872 422.2425 515.663872 
z
" style="fill: #eaeaf2; opacity: 0.8; stroke: #cccccc; stroke-linejoin: miter"/>
    </g>
    <g id="line2d_62">
     <path d="M 424.6425 453.170122 
L 436.6425 453.170122 
L 448.6425 453.170122 
" style="fill: none; stroke-dasharray: 5.55,2.4; stroke-dashoffset: 0; stroke: #ff7f0e; stroke-width: 1.5"/>
    </g>
    <g id="text_26">
     <!-- $\delta\nu_\mathrm{He}$ -->
     <g style="fill: #262626" transform="translate(458.2425 457.370122)scale(0.12 -0.12)">
      <use xlink:href="#DejaVuSans-Oblique-3b4" transform="translate(0 0.78125)"/>
      <use xlink:href="#DejaVuSans-Oblique-3bd" transform="translate(61.181641 0.78125)"/>
      <use xlink:href="#DejaVuSans-48" transform="translate(117.041016 -15.625)scale(0.7)"/>
      <use xlink:href="#DejaVuSans-65" transform="translate(169.677734 -15.625)scale(0.7)"/>
     </g>
    </g>
    <g id="patch_15">
     <path d="M 424.6425 474.344497 
L 448.6425 474.344497 
L 448.6425 465.944497 
L 424.6425 465.944497 
z
" style="fill: #ff7f0e; fill-opacity: 0.3; stroke: #ff7f0e; stroke-opacity: 0.3; stroke-linejoin: miter"/>
    </g>
    <g id="text_27">
     <!-- 95.0% CI -->
     <g style="fill: #262626" transform="translate(458.2425 474.344497)scale(0.12 -0.12)">
      <use xlink:href="#ArialMT-39"/>
      <use xlink:href="#ArialMT-35" x="55.615234"/>
      <use xlink:href="#ArialMT-2e" x="111.230469"/>
      <use xlink:href="#ArialMT-30" x="139.013672"/>
      <use xlink:href="#ArialMT-25" x="194.628906"/>
      <use xlink:href="#ArialMT-20" x="283.544922"/>
      <use xlink:href="#ArialMT-43" x="311.328125"/>
      <use xlink:href="#ArialMT-49" x="383.544922"/>
     </g>
    </g>
    <g id="line2d_63">
     <path d="M 424.6425 487.304497 
L 436.6425 487.304497 
L 448.6425 487.304497 
" style="fill: none; stroke-dasharray: 9.6,2.4,1.5,2.4; stroke-dashoffset: 0; stroke: #2ca02c; stroke-width: 1.5"/>
    </g>
    <g id="text_28">
     <!-- $\delta\nu_\mathrm{BCZ}$ -->
     <g style="fill: #262626" transform="translate(458.2425 491.504497)scale(0.12 -0.12)">
      <use xlink:href="#DejaVuSans-Oblique-3b4" transform="translate(0 0.78125)"/>
      <use xlink:href="#DejaVuSans-Oblique-3bd" transform="translate(61.181641 0.78125)"/>
      <use xlink:href="#DejaVuSans-42" transform="translate(117.041016 -15.625)scale(0.7)"/>
      <use xlink:href="#DejaVuSans-43" transform="translate(165.063477 -15.625)scale(0.7)"/>
      <use xlink:href="#DejaVuSans-5a" transform="translate(213.94043 -15.625)scale(0.7)"/>
     </g>
    </g>
    <g id="patch_16">
     <path d="M 424.6425 508.478872 
L 448.6425 508.478872 
L 448.6425 500.078872 
L 424.6425 500.078872 
z
" style="fill: #2ca02c; fill-opacity: 0.3; stroke: #2ca02c; stroke-opacity: 0.3; stroke-linejoin: miter"/>
    </g>
    <g id="text_29">
     <!-- 95.0% CI -->
     <g style="fill: #262626" transform="translate(458.2425 508.478872)scale(0.12 -0.12)">
      <use xlink:href="#ArialMT-39"/>
      <use xlink:href="#ArialMT-35" x="55.615234"/>
      <use xlink:href="#ArialMT-2e" x="111.230469"/>
      <use xlink:href="#ArialMT-30" x="139.013672"/>
      <use xlink:href="#ArialMT-25" x="194.628906"/>
      <use xlink:href="#ArialMT-20" x="283.544922"/>
      <use xlink:href="#ArialMT-43" x="311.328125"/>
      <use xlink:href="#ArialMT-49" x="383.544922"/>
     </g>
    </g>
   </g>
  </g>
 </g>
 <defs>
  <clipPath id="p3777ec7163">
   <rect x="72" y="103.68" width="446.4" height="318.204878"/>
  </clipPath>
  <clipPath id="p355dad880e">
   <rect x="72" y="437.795122" width="446.4" height="318.204878"/>
  </clipPath>
 </defs>
</svg>
