<?xml version="1.0" encoding="utf-8" standalone="no"?>
<!DOCTYPE svg PUBLIC "-//W3C//DTD SVG 1.1//EN"
  "http://www.w3.org/Graphics/SVG/1.1/DTD/svg11.dtd">
<svg xmlns:xlink="http://www.w3.org/1999/xlink" width="576pt" height="432pt" viewBox="0 0 576 432" xmlns="http://www.w3.org/2000/svg" version="1.1">
 <metadata>
  <rdf:RDF xmlns:dc="http://purl.org/dc/elements/1.1/" xmlns:cc="http://creativecommons.org/ns#" xmlns:rdf="http://www.w3.org/1999/02/22-rdf-syntax-ns#">
   <cc:Work>
    <dc:type rdf:resource="http://purl.org/dc/dcmitype/StillImage"/>
    <dc:date>2022-03-16T09:40:03.681319</dc:date>
    <dc:format>image/svg+xml</dc:format>
    <dc:creator>
     <cc:Agent>
      <dc:title>Matplotlib v3.5.1, https://matplotlib.org/</dc:title>
     </cc:Agent>
    </dc:creator>
   </cc:Work>
  </rdf:RDF>
 </metadata>
 <defs>
  <style type="text/css">*{stroke-linejoin: round; stroke-linecap: butt}</style>
 </defs>
 <g id="figure_1">
  <g id="patch_1">
   <path d="M 0 432 
L 576 432 
L 576 0 
L 0 0 
z
" style="fill: #ffffff"/>
  </g>
  <g id="axes_1">
   <g id="patch_2">
    <path d="M 72 378 
L 518.4 378 
L 518.4 51.84 
L 72 51.84 
z
" style="fill: #eaeaf2"/>
   </g>
   <g id="matplotlib.axis_1">
    <g id="xtick_1">
     <g id="line2d_1">
      <path d="M 132.833076 378 
L 132.833076 51.84 
" clip-path="url(#p9fa3bd3d03)" style="fill: none; stroke: #ffffff; stroke-width: 0.8; stroke-linecap: round"/>
     </g>
     <g id="line2d_2"/>
     <g id="text_1">
      <!-- 54 -->
      <g style="fill: #262626" transform="translate(126.159951 390.089375)scale(0.12 -0.12)">
       <defs>
        <path id="ArialMT-35" d="M 266 1200 
L 856 1250 
Q 922 819 1161 601 
Q 1400 384 1738 384 
Q 2144 384 2425 690 
Q 2706 997 2706 1503 
Q 2706 1984 2436 2262 
Q 2166 2541 1728 2541 
Q 1456 2541 1237 2417 
Q 1019 2294 894 2097 
L 366 2166 
L 809 4519 
L 3088 4519 
L 3088 3981 
L 1259 3981 
L 1013 2750 
Q 1425 3038 1878 3038 
Q 2478 3038 2890 2622 
Q 3303 2206 3303 1553 
Q 3303 931 2941 478 
Q 2500 -78 1738 -78 
Q 1113 -78 717 272 
Q 322 622 266 1200 
z
" transform="scale(0.015625)"/>
        <path id="ArialMT-34" d="M 2069 0 
L 2069 1097 
L 81 1097 
L 81 1613 
L 2172 4581 
L 2631 4581 
L 2631 1613 
L 3250 1613 
L 3250 1097 
L 2631 1097 
L 2631 0 
L 2069 0 
z
M 2069 1613 
L 2069 3678 
L 634 1613 
L 2069 1613 
z
" transform="scale(0.015625)"/>
       </defs>
       <use xlink:href="#ArialMT-35"/>
       <use xlink:href="#ArialMT-34" x="55.615234"/>
      </g>
     </g>
    </g>
    <g id="xtick_2">
     <g id="line2d_3">
      <path d="M 218.176328 378 
L 218.176328 51.84 
" clip-path="url(#p9fa3bd3d03)" style="fill: none; stroke: #ffffff; stroke-width: 0.8; stroke-linecap: round"/>
     </g>
     <g id="line2d_4"/>
     <g id="text_2">
      <!-- 56 -->
      <g style="fill: #262626" transform="translate(211.503203 390.089375)scale(0.12 -0.12)">
       <defs>
        <path id="ArialMT-36" d="M 3184 3459 
L 2625 3416 
Q 2550 3747 2413 3897 
Q 2184 4138 1850 4138 
Q 1581 4138 1378 3988 
Q 1113 3794 959 3422 
Q 806 3050 800 2363 
Q 1003 2672 1297 2822 
Q 1591 2972 1913 2972 
Q 2475 2972 2870 2558 
Q 3266 2144 3266 1488 
Q 3266 1056 3080 686 
Q 2894 316 2569 119 
Q 2244 -78 1831 -78 
Q 1128 -78 684 439 
Q 241 956 241 2144 
Q 241 3472 731 4075 
Q 1159 4600 1884 4600 
Q 2425 4600 2770 4297 
Q 3116 3994 3184 3459 
z
M 888 1484 
Q 888 1194 1011 928 
Q 1134 663 1356 523 
Q 1578 384 1822 384 
Q 2178 384 2434 671 
Q 2691 959 2691 1453 
Q 2691 1928 2437 2201 
Q 2184 2475 1800 2475 
Q 1419 2475 1153 2201 
Q 888 1928 888 1484 
z
" transform="scale(0.015625)"/>
       </defs>
       <use xlink:href="#ArialMT-35"/>
       <use xlink:href="#ArialMT-36" x="55.615234"/>
      </g>
     </g>
    </g>
    <g id="xtick_3">
     <g id="line2d_5">
      <path d="M 303.51958 378 
L 303.51958 51.84 
" clip-path="url(#p9fa3bd3d03)" style="fill: none; stroke: #ffffff; stroke-width: 0.8; stroke-linecap: round"/>
     </g>
     <g id="line2d_6"/>
     <g id="text_3">
      <!-- 58 -->
      <g style="fill: #262626" transform="translate(296.846455 390.089375)scale(0.12 -0.12)">
       <defs>
        <path id="ArialMT-38" d="M 1131 2484 
Q 781 2613 612 2850 
Q 444 3088 444 3419 
Q 444 3919 803 4259 
Q 1163 4600 1759 4600 
Q 2359 4600 2725 4251 
Q 3091 3903 3091 3403 
Q 3091 3084 2923 2848 
Q 2756 2613 2416 2484 
Q 2838 2347 3058 2040 
Q 3278 1734 3278 1309 
Q 3278 722 2862 322 
Q 2447 -78 1769 -78 
Q 1091 -78 675 323 
Q 259 725 259 1325 
Q 259 1772 486 2073 
Q 713 2375 1131 2484 
z
M 1019 3438 
Q 1019 3113 1228 2906 
Q 1438 2700 1772 2700 
Q 2097 2700 2305 2904 
Q 2513 3109 2513 3406 
Q 2513 3716 2298 3927 
Q 2084 4138 1766 4138 
Q 1444 4138 1231 3931 
Q 1019 3725 1019 3438 
z
M 838 1322 
Q 838 1081 952 856 
Q 1066 631 1291 507 
Q 1516 384 1775 384 
Q 2178 384 2440 643 
Q 2703 903 2703 1303 
Q 2703 1709 2433 1975 
Q 2163 2241 1756 2241 
Q 1359 2241 1098 1978 
Q 838 1716 838 1322 
z
" transform="scale(0.015625)"/>
       </defs>
       <use xlink:href="#ArialMT-35"/>
       <use xlink:href="#ArialMT-38" x="55.615234"/>
      </g>
     </g>
    </g>
    <g id="xtick_4">
     <g id="line2d_7">
      <path d="M 388.862831 378 
L 388.862831 51.84 
" clip-path="url(#p9fa3bd3d03)" style="fill: none; stroke: #ffffff; stroke-width: 0.8; stroke-linecap: round"/>
     </g>
     <g id="line2d_8"/>
     <g id="text_4">
      <!-- 60 -->
      <g style="fill: #262626" transform="translate(382.189706 390.089375)scale(0.12 -0.12)">
       <defs>
        <path id="ArialMT-30" d="M 266 2259 
Q 266 3072 433 3567 
Q 600 4063 929 4331 
Q 1259 4600 1759 4600 
Q 2128 4600 2406 4451 
Q 2684 4303 2865 4023 
Q 3047 3744 3150 3342 
Q 3253 2941 3253 2259 
Q 3253 1453 3087 958 
Q 2922 463 2592 192 
Q 2263 -78 1759 -78 
Q 1097 -78 719 397 
Q 266 969 266 2259 
z
M 844 2259 
Q 844 1131 1108 757 
Q 1372 384 1759 384 
Q 2147 384 2411 759 
Q 2675 1134 2675 2259 
Q 2675 3391 2411 3762 
Q 2147 4134 1753 4134 
Q 1366 4134 1134 3806 
Q 844 3388 844 2259 
z
" transform="scale(0.015625)"/>
       </defs>
       <use xlink:href="#ArialMT-36"/>
       <use xlink:href="#ArialMT-30" x="55.615234"/>
      </g>
     </g>
    </g>
    <g id="xtick_5">
     <g id="line2d_9">
      <path d="M 474.206083 378 
L 474.206083 51.84 
" clip-path="url(#p9fa3bd3d03)" style="fill: none; stroke: #ffffff; stroke-width: 0.8; stroke-linecap: round"/>
     </g>
     <g id="line2d_10"/>
     <g id="text_5">
      <!-- 62 -->
      <g style="fill: #262626" transform="translate(467.532958 390.089375)scale(0.12 -0.12)">
       <defs>
        <path id="ArialMT-32" d="M 3222 541 
L 3222 0 
L 194 0 
Q 188 203 259 391 
Q 375 700 629 1000 
Q 884 1300 1366 1694 
Q 2113 2306 2375 2664 
Q 2638 3022 2638 3341 
Q 2638 3675 2398 3904 
Q 2159 4134 1775 4134 
Q 1369 4134 1125 3890 
Q 881 3647 878 3216 
L 300 3275 
Q 359 3922 746 4261 
Q 1134 4600 1788 4600 
Q 2447 4600 2831 4234 
Q 3216 3869 3216 3328 
Q 3216 3053 3103 2787 
Q 2991 2522 2730 2228 
Q 2469 1934 1863 1422 
Q 1356 997 1212 845 
Q 1069 694 975 541 
L 3222 541 
z
" transform="scale(0.015625)"/>
       </defs>
       <use xlink:href="#ArialMT-36"/>
       <use xlink:href="#ArialMT-32" x="55.615234"/>
      </g>
     </g>
    </g>
    <g id="text_6">
     <!-- $\nu\,\mathrm{mod}.\,{135.43}$/$\mathrm{\mu Hz}$ -->
     <g style="fill: #262626" transform="translate(239.34 405.594375)scale(0.12 -0.12)">
      <defs>
       <path id="DejaVuSans-Oblique-3bd" d="M 959 0 
L 572 3500 
L 1191 3500 
L 1522 563 
Q 1972 950 2391 1488 
Q 2706 1891 2788 2241 
Q 2825 2406 2809 2719 
Q 2794 3091 2544 3500 
L 3125 3500 
L 3125 3500 
Q 3288 3222 3353 2834 
Q 3416 2478 3369 2234 
Q 3250 1622 2719 1075 
Q 2025 363 1572 0 
L 959 0 
z
" transform="scale(0.015625)"/>
       <path id="DejaVuSans-6d" d="M 3328 2828 
Q 3544 3216 3844 3400 
Q 4144 3584 4550 3584 
Q 5097 3584 5394 3201 
Q 5691 2819 5691 2113 
L 5691 0 
L 5113 0 
L 5113 2094 
Q 5113 2597 4934 2840 
Q 4756 3084 4391 3084 
Q 3944 3084 3684 2787 
Q 3425 2491 3425 1978 
L 3425 0 
L 2847 0 
L 2847 2094 
Q 2847 2600 2669 2842 
Q 2491 3084 2119 3084 
Q 1678 3084 1418 2786 
Q 1159 2488 1159 1978 
L 1159 0 
L 581 0 
L 581 3500 
L 1159 3500 
L 1159 2956 
Q 1356 3278 1631 3431 
Q 1906 3584 2284 3584 
Q 2666 3584 2933 3390 
Q 3200 3197 3328 2828 
z
" transform="scale(0.015625)"/>
       <path id="DejaVuSans-6f" d="M 1959 3097 
Q 1497 3097 1228 2736 
Q 959 2375 959 1747 
Q 959 1119 1226 758 
Q 1494 397 1959 397 
Q 2419 397 2687 759 
Q 2956 1122 2956 1747 
Q 2956 2369 2687 2733 
Q 2419 3097 1959 3097 
z
M 1959 3584 
Q 2709 3584 3137 3096 
Q 3566 2609 3566 1747 
Q 3566 888 3137 398 
Q 2709 -91 1959 -91 
Q 1206 -91 779 398 
Q 353 888 353 1747 
Q 353 2609 779 3096 
Q 1206 3584 1959 3584 
z
" transform="scale(0.015625)"/>
       <path id="DejaVuSans-64" d="M 2906 2969 
L 2906 4863 
L 3481 4863 
L 3481 0 
L 2906 0 
L 2906 525 
Q 2725 213 2448 61 
Q 2172 -91 1784 -91 
Q 1150 -91 751 415 
Q 353 922 353 1747 
Q 353 2572 751 3078 
Q 1150 3584 1784 3584 
Q 2172 3584 2448 3432 
Q 2725 3281 2906 2969 
z
M 947 1747 
Q 947 1113 1208 752 
Q 1469 391 1925 391 
Q 2381 391 2643 752 
Q 2906 1113 2906 1747 
Q 2906 2381 2643 2742 
Q 2381 3103 1925 3103 
Q 1469 3103 1208 2742 
Q 947 2381 947 1747 
z
" transform="scale(0.015625)"/>
       <path id="DejaVuSans-2e" d="M 684 794 
L 1344 794 
L 1344 0 
L 684 0 
L 684 794 
z
" transform="scale(0.015625)"/>
       <path id="DejaVuSans-31" d="M 794 531 
L 1825 531 
L 1825 4091 
L 703 3866 
L 703 4441 
L 1819 4666 
L 2450 4666 
L 2450 531 
L 3481 531 
L 3481 0 
L 794 0 
L 794 531 
z
" transform="scale(0.015625)"/>
       <path id="DejaVuSans-33" d="M 2597 2516 
Q 3050 2419 3304 2112 
Q 3559 1806 3559 1356 
Q 3559 666 3084 287 
Q 2609 -91 1734 -91 
Q 1441 -91 1130 -33 
Q 819 25 488 141 
L 488 750 
Q 750 597 1062 519 
Q 1375 441 1716 441 
Q 2309 441 2620 675 
Q 2931 909 2931 1356 
Q 2931 1769 2642 2001 
Q 2353 2234 1838 2234 
L 1294 2234 
L 1294 2753 
L 1863 2753 
Q 2328 2753 2575 2939 
Q 2822 3125 2822 3475 
Q 2822 3834 2567 4026 
Q 2313 4219 1838 4219 
Q 1578 4219 1281 4162 
Q 984 4106 628 3988 
L 628 4550 
Q 988 4650 1302 4700 
Q 1616 4750 1894 4750 
Q 2613 4750 3031 4423 
Q 3450 4097 3450 3541 
Q 3450 3153 3228 2886 
Q 3006 2619 2597 2516 
z
" transform="scale(0.015625)"/>
       <path id="DejaVuSans-35" d="M 691 4666 
L 3169 4666 
L 3169 4134 
L 1269 4134 
L 1269 2991 
Q 1406 3038 1543 3061 
Q 1681 3084 1819 3084 
Q 2600 3084 3056 2656 
Q 3513 2228 3513 1497 
Q 3513 744 3044 326 
Q 2575 -91 1722 -91 
Q 1428 -91 1123 -41 
Q 819 9 494 109 
L 494 744 
Q 775 591 1075 516 
Q 1375 441 1709 441 
Q 2250 441 2565 725 
Q 2881 1009 2881 1497 
Q 2881 1984 2565 2268 
Q 2250 2553 1709 2553 
Q 1456 2553 1204 2497 
Q 953 2441 691 2322 
L 691 4666 
z
" transform="scale(0.015625)"/>
       <path id="DejaVuSans-34" d="M 2419 4116 
L 825 1625 
L 2419 1625 
L 2419 4116 
z
M 2253 4666 
L 3047 4666 
L 3047 1625 
L 3713 1625 
L 3713 1100 
L 3047 1100 
L 3047 0 
L 2419 0 
L 2419 1100 
L 313 1100 
L 313 1709 
L 2253 4666 
z
" transform="scale(0.015625)"/>
       <path id="ArialMT-2f" d="M 0 -78 
L 1328 4659 
L 1778 4659 
L 453 -78 
L 0 -78 
z
" transform="scale(0.015625)"/>
       <path id="DejaVuSans-3bc" d="M 544 -1331 
L 544 3500 
L 1119 3500 
L 1119 1325 
Q 1119 872 1334 640 
Q 1550 409 1972 409 
Q 2434 409 2667 671 
Q 2900 934 2900 1459 
L 2900 3500 
L 3475 3500 
L 3475 806 
Q 3475 619 3529 530 
Q 3584 441 3700 441 
Q 3728 441 3778 458 
Q 3828 475 3916 513 
L 3916 50 
Q 3788 -22 3673 -56 
Q 3559 -91 3450 -91 
Q 3234 -91 3106 31 
Q 2978 153 2931 403 
Q 2775 156 2548 32 
Q 2322 -91 2016 -91 
Q 1697 -91 1473 31 
Q 1250 153 1119 397 
L 1119 -1331 
L 544 -1331 
z
" transform="scale(0.015625)"/>
       <path id="DejaVuSans-48" d="M 628 4666 
L 1259 4666 
L 1259 2753 
L 3553 2753 
L 3553 4666 
L 4184 4666 
L 4184 0 
L 3553 0 
L 3553 2222 
L 1259 2222 
L 1259 0 
L 628 0 
L 628 4666 
z
" transform="scale(0.015625)"/>
       <path id="DejaVuSans-7a" d="M 353 3500 
L 3084 3500 
L 3084 2975 
L 922 459 
L 3084 459 
L 3084 0 
L 275 0 
L 275 525 
L 2438 3041 
L 353 3041 
L 353 3500 
z
" transform="scale(0.015625)"/>
      </defs>
      <use xlink:href="#DejaVuSans-Oblique-3bd" transform="translate(0 0.015625)"/>
      <use xlink:href="#DejaVuSans-6d" transform="translate(72.095051 0.015625)"/>
      <use xlink:href="#DejaVuSans-6f" transform="translate(169.507161 0.015625)"/>
      <use xlink:href="#DejaVuSans-64" transform="translate(230.688801 0.015625)"/>
      <use xlink:href="#DejaVuSans-2e" transform="translate(294.165364 0.015625)"/>
      <use xlink:href="#DejaVuSans-31" transform="translate(361.670571 0.015625)"/>
      <use xlink:href="#DejaVuSans-33" transform="translate(425.293618 0.015625)"/>
      <use xlink:href="#DejaVuSans-35" transform="translate(488.916665 0.015625)"/>
      <use xlink:href="#DejaVuSans-2e" transform="translate(552.539712 0.015625)"/>
      <use xlink:href="#DejaVuSans-34" transform="translate(584.326821 0.015625)"/>
      <use xlink:href="#DejaVuSans-33" transform="translate(647.949868 0.015625)"/>
      <use xlink:href="#ArialMT-2f" transform="translate(711.572915 0.015625)"/>
      <use xlink:href="#DejaVuSans-3bc" transform="translate(739.356118 0.015625)"/>
      <use xlink:href="#DejaVuSans-48" transform="translate(802.979165 0.015625)"/>
      <use xlink:href="#DejaVuSans-7a" transform="translate(878.174478 0.015625)"/>
     </g>
    </g>
   </g>
   <g id="matplotlib.axis_2">
    <g id="ytick_1">
     <g id="line2d_11">
      <path d="M 72 320.132966 
L 518.4 320.132966 
" clip-path="url(#p9fa3bd3d03)" style="fill: none; stroke: #ffffff; stroke-width: 0.8; stroke-linecap: round"/>
     </g>
     <g id="line2d_12"/>
     <g id="text_7">
      <!-- 2000 -->
      <g style="fill: #262626" transform="translate(41.8075 324.427654)scale(0.12 -0.12)">
       <use xlink:href="#ArialMT-32"/>
       <use xlink:href="#ArialMT-30" x="55.615234"/>
       <use xlink:href="#ArialMT-30" x="111.230469"/>
       <use xlink:href="#ArialMT-30" x="166.845703"/>
      </g>
     </g>
    </g>
    <g id="ytick_2">
     <g id="line2d_13">
      <path d="M 72 251.527959 
L 518.4 251.527959 
" clip-path="url(#p9fa3bd3d03)" style="fill: none; stroke: #ffffff; stroke-width: 0.8; stroke-linecap: round"/>
     </g>
     <g id="line2d_14"/>
     <g id="text_8">
      <!-- 2500 -->
      <g style="fill: #262626" transform="translate(41.8075 255.822646)scale(0.12 -0.12)">
       <use xlink:href="#ArialMT-32"/>
       <use xlink:href="#ArialMT-35" x="55.615234"/>
       <use xlink:href="#ArialMT-30" x="111.230469"/>
       <use xlink:href="#ArialMT-30" x="166.845703"/>
      </g>
     </g>
    </g>
    <g id="ytick_3">
     <g id="line2d_15">
      <path d="M 72 182.922951 
L 518.4 182.922951 
" clip-path="url(#p9fa3bd3d03)" style="fill: none; stroke: #ffffff; stroke-width: 0.8; stroke-linecap: round"/>
     </g>
     <g id="line2d_16"/>
     <g id="text_9">
      <!-- 3000 -->
      <g style="fill: #262626" transform="translate(41.8075 187.217639)scale(0.12 -0.12)">
       <defs>
        <path id="ArialMT-33" d="M 269 1209 
L 831 1284 
Q 928 806 1161 595 
Q 1394 384 1728 384 
Q 2125 384 2398 659 
Q 2672 934 2672 1341 
Q 2672 1728 2419 1979 
Q 2166 2231 1775 2231 
Q 1616 2231 1378 2169 
L 1441 2663 
Q 1497 2656 1531 2656 
Q 1891 2656 2178 2843 
Q 2466 3031 2466 3422 
Q 2466 3731 2256 3934 
Q 2047 4138 1716 4138 
Q 1388 4138 1169 3931 
Q 950 3725 888 3313 
L 325 3413 
Q 428 3978 793 4289 
Q 1159 4600 1703 4600 
Q 2078 4600 2393 4439 
Q 2709 4278 2876 4000 
Q 3044 3722 3044 3409 
Q 3044 3113 2884 2869 
Q 2725 2625 2413 2481 
Q 2819 2388 3044 2092 
Q 3269 1797 3269 1353 
Q 3269 753 2831 336 
Q 2394 -81 1725 -81 
Q 1122 -81 723 278 
Q 325 638 269 1209 
z
" transform="scale(0.015625)"/>
       </defs>
       <use xlink:href="#ArialMT-33"/>
       <use xlink:href="#ArialMT-30" x="55.615234"/>
       <use xlink:href="#ArialMT-30" x="111.230469"/>
       <use xlink:href="#ArialMT-30" x="166.845703"/>
      </g>
     </g>
    </g>
    <g id="ytick_4">
     <g id="line2d_17">
      <path d="M 72 114.317944 
L 518.4 114.317944 
" clip-path="url(#p9fa3bd3d03)" style="fill: none; stroke: #ffffff; stroke-width: 0.8; stroke-linecap: round"/>
     </g>
     <g id="line2d_18"/>
     <g id="text_10">
      <!-- 3500 -->
      <g style="fill: #262626" transform="translate(41.8075 118.612631)scale(0.12 -0.12)">
       <use xlink:href="#ArialMT-33"/>
       <use xlink:href="#ArialMT-35" x="55.615234"/>
       <use xlink:href="#ArialMT-30" x="111.230469"/>
       <use xlink:href="#ArialMT-30" x="166.845703"/>
      </g>
     </g>
    </g>
    <g id="text_11">
     <!-- $\nu$/$\mathrm{\mu Hz}$ -->
     <g style="fill: #262626" transform="translate(35.2875 231.42)rotate(-90)scale(0.12 -0.12)">
      <use xlink:href="#DejaVuSans-Oblique-3bd" transform="translate(0 0.09375)"/>
      <use xlink:href="#ArialMT-2f" transform="translate(55.859375 0.09375)"/>
      <use xlink:href="#DejaVuSans-3bc" transform="translate(83.642578 0.09375)"/>
      <use xlink:href="#DejaVuSans-48" transform="translate(147.265625 0.09375)"/>
      <use xlink:href="#DejaVuSans-7a" transform="translate(222.460938 0.09375)"/>
     </g>
    </g>
   </g>
   <g id="PolyCollection_1">
    <defs>
     <path id="m548186d894" d="M 452.214903 -68.855936 
L 443.327744 -68.855936 
L 442.455077 -70.047263 
L 441.837626 -71.239504 
L 441.246444 -72.43275 
L 440.975117 -73.627262 
L 441.034056 -74.823022 
L 441.382911 -76.019769 
L 442.327572 -77.217389 
L 443.530429 -78.415656 
L 444.858828 -79.613719 
L 446.399965 -80.812028 
L 447.953392 -82.010223 
L 449.508305 -83.207767 
L 451.358944 -84.404989 
L 452.846033 -85.600938 
L 453.706621 -86.795855 
L 453.535248 -87.989432 
L 452.794467 -89.182128 
L 451.255205 -90.373457 
L 449.175825 -91.564182 
L 447.322417 -92.754181 
L 445.695664 -93.943976 
L 444.893309 -95.133334 
L 443.842177 -96.322994 
L 442.532712 -97.513362 
L 441.947377 -98.704433 
L 441.667342 -99.896478 
L 441.838541 -101.089819 
L 442.390629 -102.28468 
L 443.402809 -103.480895 
L 444.951208 -104.678635 
L 446.672374 -105.877699 
L 448.447465 -107.077878 
L 450.619425 -108.279173 
L 452.91459 -109.481381 
L 455.141327 -110.684335 
L 457.611041 -111.887343 
L 460.009836 -113.090166 
L 462.21403 -114.292466 
L 464.379664 -115.494194 
L 465.961325 -116.695232 
L 465.896825 -117.894981 
L 465.910273 -119.09356 
L 468.153784 -120.29097 
L 469.651113 -121.487122 
L 471.988898 -122.682243 
L 473.649019 -123.876175 
L 473.838097 -125.069514 
L 473.422433 -126.26207 
L 472.616877 -127.454294 
L 471.709218 -128.64597 
L 471.023563 -129.837502 
L 470.287596 -131.029137 
L 469.542503 -132.221246 
L 468.803535 -133.413582 
L 468.223644 -134.606222 
L 467.899554 -135.799397 
L 467.708791 -136.992861 
L 467.566767 -138.186279 
L 467.386066 -139.379704 
L 467.098151 -140.572878 
L 466.815688 -141.765948 
L 466.412344 -142.958045 
L 465.572833 -144.149042 
L 463.8766 -145.339129 
L 461.715828 -146.528208 
L 459.684584 -147.715592 
L 457.429014 -148.901495 
L 454.552044 -150.085908 
L 451.487049 -151.268791 
L 447.157638 -152.450119 
L 442.743201 -153.63012 
L 437.972918 -154.808782 
L 432.771277 -155.98634 
L 427.208101 -157.162777 
L 421.594014 -158.338648 
L 415.860746 -159.514249 
L 410.30555 -160.689635 
L 404.523447 -161.86512 
L 398.772758 -163.040766 
L 393.214595 -164.2166 
L 387.687528 -165.39296 
L 382.257543 -166.569794 
L 377.013296 -167.746936 
L 371.87829 -168.924452 
L 366.856557 -170.102337 
L 361.871789 -171.280401 
L 356.816893 -172.458717 
L 351.559195 -173.637026 
L 346.4627 -174.815192 
L 341.258445 -175.99325 
L 336.184041 -177.1707 
L 330.882625 -178.347609 
L 325.373148 -179.524085 
L 319.591698 -180.700005 
L 313.574886 -181.875228 
L 307.256656 -183.049963 
L 301.050893 -184.224437 
L 295.418493 -185.398643 
L 289.691783 -186.572856 
L 284.313084 -187.747074 
L 278.643791 -188.921618 
L 272.908702 -190.096888 
L 267.302412 -191.272729 
L 261.832305 -192.449385 
L 257.029225 -193.626799 
L 252.269739 -194.805485 
L 247.656929 -195.985048 
L 243.604279 -197.165816 
L 239.786053 -198.347486 
L 236.165244 -199.530323 
L 232.931192 -200.713991 
L 229.979557 -201.898531 
L 227.122996 -203.083858 
L 224.364587 -204.26959 
L 221.887811 -205.455712 
L 219.25122 -206.642109 
L 216.823682 -207.828424 
L 214.337639 -209.014752 
L 211.785497 -210.200904 
L 209.237633 -211.386946 
L 207.021385 -212.572634 
L 204.482705 -213.758249 
L 201.796632 -214.943704 
L 199.080279 -216.129179 
L 196.329879 -217.314467 
L 193.595187 -218.499891 
L 190.957033 -219.685522 
L 188.532966 -220.871254 
L 186.118307 -222.057423 
L 183.925015 -223.244084 
L 181.990938 -224.431258 
L 180.124818 -225.61924 
L 178.536251 -226.807938 
L 176.980833 -227.997063 
L 175.702833 -229.186744 
L 174.494643 -230.377051 
L 173.345277 -231.567942 
L 172.412586 -232.759 
L 171.491295 -233.950279 
L 170.539916 -235.141603 
L 169.570754 -236.332725 
L 168.538042 -237.523849 
L 167.345308 -238.71462 
L 166.266188 -239.904887 
L 164.842416 -241.094676 
L 163.317985 -242.283887 
L 161.616292 -243.472472 
L 159.484271 -244.660568 
L 157.599193 -245.848254 
L 155.797571 -247.035365 
L 153.545912 -248.222348 
L 151.220741 -249.408851 
L 148.991325 -250.595233 
L 146.737946 -251.78159 
L 144.527473 -252.968256 
L 142.351409 -254.15514 
L 140.222189 -255.342219 
L 138.136302 -256.529464 
L 136.251777 -257.717168 
L 134.33379 -258.905428 
L 132.663434 -260.093862 
L 131.050875 -261.282743 
L 129.378974 -262.472109 
L 127.759707 -263.661562 
L 126.152319 -264.851209 
L 124.829076 -266.040795 
L 123.347556 -267.230667 
L 121.855969 -268.420467 
L 120.449639 -269.610119 
L 118.963682 -270.799337 
L 117.503357 -271.988358 
L 116.07965 -273.177355 
L 114.397122 -274.365833 
L 112.327067 -275.554221 
L 110.56796 -276.742295 
L 108.708196 -277.930337 
L 106.895115 -279.118345 
L 105.075814 -280.30639 
L 103.338333 -281.494686 
L 101.549142 -282.683262 
L 100.011074 -283.872042 
L 98.351969 -285.06156 
L 97.058637 -286.251298 
L 95.839864 -287.441867 
L 94.786654 -288.633128 
L 94.063636 -289.824844 
L 93.315925 -291.017074 
L 92.813905 -292.20991 
L 92.558811 -293.403258 
L 92.380203 -294.597233 
L 92.370826 -295.791541 
L 92.290909 -296.986191 
L 92.395431 -298.181059 
L 92.599149 -299.376044 
L 92.91201 -300.571188 
L 93.171765 -301.76612 
L 93.601572 -302.961224 
L 94.027107 -304.156282 
L 94.164615 -305.351344 
L 94.310653 -306.546413 
L 94.61504 -307.741165 
L 94.812907 -308.9361 
L 94.906263 -310.131019 
L 95.127017 -311.325991 
L 95.449856 -312.521263 
L 95.864716 -313.716831 
L 96.367595 -314.912748 
L 96.979949 -316.109119 
L 97.544613 -317.305858 
L 98.458605 -318.503326 
L 99.45773 -319.700827 
L 100.19668 -320.898664 
L 101.284615 -322.097056 
L 102.638606 -323.295871 
L 104.028699 -324.494805 
L 105.440289 -325.694464 
L 106.994112 -326.894329 
L 108.662917 -328.094259 
L 110.2134 -329.294022 
L 111.905427 -330.493925 
L 113.500548 -331.694138 
L 114.950244 -332.893687 
L 116.415202 -334.093364 
L 117.835902 -335.292672 
L 119.208951 -336.491863 
L 120.51203 -337.690778 
L 121.708895 -338.889996 
L 123.125461 -340.088926 
L 124.312054 -341.287577 
L 125.397825 -342.486031 
L 126.22569 -343.685073 
L 127.363145 -344.883678 
L 128.529452 -346.08288 
L 129.486326 -347.282048 
L 130.689442 -348.481148 
L 131.854088 -349.680983 
L 133.101674 -350.880635 
L 134.387578 -352.080458 
L 135.61197 -353.280944 
L 136.872175 -354.48156 
L 138.1104 -355.683268 
L 139.453744 -356.884561 
L 140.81262 -358.085599 
L 142.198366 -359.286607 
L 143.507872 -360.487908 
L 144.626721 -361.689037 
L 146.196853 -362.890449 
L 147.56245 -364.091804 
L 148.997526 -365.2927 
L 198.532485 -365.2927 
L 198.532485 -365.2927 
L 195.383278 -364.091804 
L 192.117949 -362.890449 
L 188.370359 -361.689037 
L 184.888992 -360.487908 
L 181.491784 -359.286607 
L 178.685769 -358.085599 
L 175.590877 -356.884561 
L 172.683185 -355.683268 
L 169.846346 -354.48156 
L 166.814385 -353.280944 
L 164.459149 -352.080458 
L 161.938033 -350.880635 
L 159.769472 -349.680983 
L 157.634292 -348.481148 
L 155.476337 -347.282048 
L 153.529067 -346.08288 
L 151.658112 -344.883678 
L 149.559595 -343.685073 
L 147.816449 -342.486031 
L 146.338909 -341.287577 
L 144.807974 -340.088926 
L 143.076568 -338.889996 
L 140.988055 -337.690778 
L 139.208216 -336.491863 
L 137.178328 -335.292672 
L 135.41871 -334.093364 
L 133.607702 -332.893687 
L 131.5527 -331.694138 
L 129.621649 -330.493925 
L 127.688115 -329.294022 
L 125.522875 -328.094259 
L 123.505406 -326.894329 
L 121.553206 -325.694464 
L 119.811145 -324.494805 
L 118.082657 -323.295871 
L 116.339358 -322.097056 
L 114.555736 -320.898664 
L 112.833241 -319.700827 
L 111.448817 -318.503326 
L 110.655326 -317.305858 
L 109.53154 -316.109119 
L 108.759954 -314.912748 
L 108.181021 -313.716831 
L 107.519071 -312.521263 
L 107.03177 -311.325991 
L 106.53021 -310.131019 
L 106.038584 -308.9361 
L 105.506968 -307.741165 
L 105.034758 -306.546413 
L 104.755138 -305.351344 
L 104.209945 -304.156282 
L 103.843291 -302.961224 
L 103.511164 -301.76612 
L 103.104913 -300.571188 
L 102.774945 -299.376044 
L 102.60185 -298.181059 
L 102.511705 -296.986191 
L 102.335895 -295.791541 
L 102.195523 -294.597233 
L 102.214485 -293.403258 
L 102.262012 -292.20991 
L 102.529695 -291.017074 
L 102.84379 -289.824844 
L 103.697303 -288.633128 
L 104.514984 -287.441867 
L 105.773764 -286.251298 
L 107.170042 -285.06156 
L 108.647945 -283.872042 
L 110.141546 -282.683262 
L 111.739443 -281.494686 
L 113.352201 -280.30639 
L 115.128425 -279.118345 
L 116.797546 -277.930337 
L 118.556374 -276.742295 
L 120.186101 -275.554221 
L 121.713619 -274.365833 
L 123.494583 -273.177355 
L 125.131395 -271.988358 
L 126.924657 -270.799337 
L 128.461815 -269.610119 
L 129.917636 -268.420467 
L 131.3157 -267.230667 
L 132.776811 -266.040795 
L 134.144069 -264.851209 
L 135.411172 -263.661562 
L 136.780143 -262.472109 
L 138.26821 -261.282743 
L 139.811319 -260.093862 
L 141.352438 -258.905428 
L 143.139469 -257.717168 
L 145.227371 -256.529464 
L 147.28002 -255.342219 
L 149.334272 -254.15514 
L 151.724672 -252.968256 
L 154.015784 -251.78159 
L 156.324959 -250.595233 
L 158.594608 -249.408851 
L 160.919188 -248.222348 
L 163.144177 -247.035365 
L 165.291389 -245.848254 
L 167.140366 -244.660568 
L 168.984914 -243.472472 
L 170.617841 -242.283887 
L 172.221814 -241.094676 
L 173.602508 -239.904887 
L 174.859832 -238.71462 
L 175.900983 -237.523849 
L 176.91935 -236.332725 
L 177.889477 -235.141603 
L 178.903055 -233.950279 
L 179.917566 -232.759 
L 181.053441 -231.567942 
L 182.333572 -230.377051 
L 183.645042 -229.186744 
L 184.930414 -227.997063 
L 186.390962 -226.807938 
L 188.063016 -225.61924 
L 189.902375 -224.431258 
L 192.036793 -223.244084 
L 194.0601 -222.057423 
L 196.461125 -220.871254 
L 198.980798 -219.685522 
L 201.219848 -218.499891 
L 203.551312 -217.314467 
L 205.994785 -216.129179 
L 208.636283 -214.943704 
L 211.285769 -213.758249 
L 213.793036 -212.572634 
L 216.410743 -211.386946 
L 218.969156 -210.200904 
L 221.343843 -209.014752 
L 223.804959 -207.828424 
L 226.253772 -206.642109 
L 228.726331 -205.455712 
L 231.379129 -204.26959 
L 234.271275 -203.083858 
L 237.007898 -201.898531 
L 239.738942 -200.713991 
L 242.85753 -199.530323 
L 246.492833 -198.347486 
L 250.178406 -197.165816 
L 254.324569 -195.985048 
L 259.045139 -194.805485 
L 264.360549 -193.626799 
L 269.480988 -192.449385 
L 274.855767 -191.272729 
L 280.414947 -190.096888 
L 286.182546 -188.921618 
L 292.305989 -187.747074 
L 298.407793 -186.572856 
L 304.58908 -185.398643 
L 310.695752 -184.224437 
L 316.730885 -183.049963 
L 322.644486 -181.875228 
L 328.513892 -180.700005 
L 334.24424 -179.524085 
L 339.691399 -178.347609 
L 345.070179 -177.1707 
L 350.130731 -175.99325 
L 355.269634 -174.815192 
L 360.329662 -173.637026 
L 365.657428 -172.458717 
L 370.86688 -171.280401 
L 375.721992 -170.102337 
L 380.936746 -168.924452 
L 386.366819 -167.746936 
L 391.827746 -166.569794 
L 397.579424 -165.39296 
L 402.570705 -164.2166 
L 407.777338 -163.040766 
L 413.236823 -161.86512 
L 418.950555 -160.689635 
L 424.785122 -159.514249 
L 430.445876 -158.338648 
L 435.933909 -157.162777 
L 441.077908 -155.98634 
L 445.978342 -154.808782 
L 450.51997 -153.63012 
L 454.79866 -152.450119 
L 458.690488 -151.268791 
L 462.197258 -150.085908 
L 465.231057 -148.901495 
L 467.764847 -147.715592 
L 469.990579 -146.528208 
L 471.604578 -145.339129 
L 472.832214 -144.149042 
L 473.750019 -142.958045 
L 474.885992 -141.765948 
L 476.676268 -140.572878 
L 477.019813 -139.379704 
L 477.037149 -138.186279 
L 477.174953 -136.992861 
L 477.040559 -135.799397 
L 476.952399 -134.606222 
L 477.207222 -133.413582 
L 477.618613 -132.221246 
L 477.973787 -131.029137 
L 478.497885 -129.837502 
L 479.200466 -128.64597 
L 479.733627 -127.454294 
L 479.808081 -126.26207 
L 479.933947 -125.069514 
L 480.13962 -123.876175 
L 480.140932 -122.682243 
L 479.789727 -121.487122 
L 479.266532 -120.29097 
L 478.440698 -119.09356 
L 477.186701 -117.894981 
L 475.510675 -116.695232 
L 473.403315 -115.494194 
L 471.139842 -114.292466 
L 468.55178 -113.090166 
L 465.788151 -111.887343 
L 462.940386 -110.684335 
L 460.022256 -109.481381 
L 457.210163 -108.279173 
L 454.736826 -107.077878 
L 452.782499 -105.877699 
L 452.049021 -104.678635 
L 452.477663 -103.480895 
L 453.601411 -102.28468 
L 454.174188 -101.089819 
L 453.864606 -99.896478 
L 453.497178 -98.704433 
L 453.447611 -97.513362 
L 454.383115 -96.322994 
L 455.74182 -95.133334 
L 456.78856 -93.943976 
L 457.674599 -92.754181 
L 458.485301 -91.564182 
L 458.890068 -90.373457 
L 459.446391 -89.182128 
L 459.694744 -87.989432 
L 459.869876 -86.795855 
L 460.021241 -85.600938 
L 459.984204 -84.404989 
L 459.601972 -83.207767 
L 458.842774 -82.010223 
L 457.853823 -80.812028 
L 456.951274 -79.613719 
L 455.810167 -78.415656 
L 455.800062 -77.217389 
L 455.855287 -76.019769 
L 456.308841 -74.823022 
L 456.026285 -73.627262 
L 454.915258 -72.43275 
L 453.158418 -71.239504 
L 451.734553 -70.047263 
L 452.214903 -68.855936 
z
" style="stroke: #1f77b4; stroke-opacity: 0.3"/>
    </defs>
    <g clip-path="url(#p9fa3bd3d03)">
     <use xlink:href="#m548186d894" x="0" y="432" style="fill: #1f77b4; fill-opacity: 0.3; stroke: #1f77b4; stroke-opacity: 0.3"/>
    </g>
   </g>
   <g id="PolyCollection_2">
    <defs>
     <path id="mcc12dc5019" d="M 451.628358 -68.825455 
L 414.398895 -68.825455 
L 418.66074 -70.028547 
L 422.712929 -71.231658 
L 426.58977 -72.434517 
L 430.461288 -73.637478 
L 434.181634 -74.840196 
L 437.767829 -76.041982 
L 441.348977 -77.24412 
L 445.383982 -78.445488 
L 449.238714 -79.646648 
L 452.496436 -80.84776 
L 455.568095 -82.048675 
L 458.923891 -83.249508 
L 461.698325 -84.450043 
L 463.979471 -85.650271 
L 466.597146 -86.850007 
L 468.783621 -88.049428 
L 470.935883 -89.248698 
L 472.653903 -90.447769 
L 474.14106 -91.646339 
L 475.652607 -92.844755 
L 476.888521 -94.043023 
L 477.911286 -95.240954 
L 478.870271 -96.438492 
L 479.822168 -97.635482 
L 480.575213 -98.832398 
L 481.20693 -100.028959 
L 481.762501 -101.224883 
L 482.203779 -102.420826 
L 482.414497 -103.616143 
L 482.701987 -104.810968 
L 482.759891 -106.005534 
L 482.838433 -107.199844 
L 482.780603 -108.393735 
L 482.619596 -109.587375 
L 482.432219 -110.780625 
L 482.126382 -111.973408 
L 481.651164 -113.165961 
L 481.106692 -114.358218 
L 480.497242 -115.550099 
L 479.774507 -116.741777 
L 478.972299 -117.932936 
L 478.085685 -119.123865 
L 477.099988 -120.314487 
L 476.004883 -121.504665 
L 474.797441 -122.694547 
L 473.478875 -123.884061 
L 472.047653 -125.07333 
L 470.505264 -126.262352 
L 468.934378 -127.450908 
L 467.267324 -128.639053 
L 465.481568 -129.826946 
L 463.537136 -131.014779 
L 461.519437 -132.202297 
L 459.488579 -133.389286 
L 457.308558 -134.575901 
L 455.10075 -135.762308 
L 452.843856 -136.948485 
L 450.408016 -138.134467 
L 447.899363 -139.319949 
L 445.369968 -140.505335 
L 442.585943 -141.690531 
L 439.838461 -142.87542 
L 437.104786 -144.060164 
L 434.119739 -145.244603 
L 431.101477 -146.428786 
L 428.006194 -147.612685 
L 424.730808 -148.796441 
L 421.440916 -149.979925 
L 418.089329 -151.163144 
L 414.707987 -152.346343 
L 411.231666 -153.529186 
L 407.823916 -154.711857 
L 404.28049 -155.894364 
L 400.563607 -157.076714 
L 396.905203 -158.258904 
L 393.263017 -159.441032 
L 389.411469 -160.62314 
L 385.630421 -161.804917 
L 381.862411 -162.986538 
L 378.01785 -164.168043 
L 373.973788 -165.349622 
L 370.110475 -166.531023 
L 366.130374 -167.712382 
L 361.965232 -168.893738 
L 357.857862 -170.07502 
L 353.709478 -171.256072 
L 349.570818 -172.437252 
L 345.380123 -173.618252 
L 341.116172 -174.799148 
L 337.00877 -175.980216 
L 332.838847 -177.161058 
L 328.778504 -178.341932 
L 324.803637 -179.522939 
L 320.679228 -180.703796 
L 316.525498 -181.884666 
L 312.3414 -183.065633 
L 308.301709 -184.246648 
L 304.299051 -185.427658 
L 300.186575 -186.608744 
L 296.084529 -187.789793 
L 292.164923 -188.970945 
L 288.235345 -190.152026 
L 284.298136 -191.333252 
L 280.389177 -192.514417 
L 276.505193 -193.695794 
L 272.646797 -194.87712 
L 268.849431 -196.058661 
L 265.056374 -197.240284 
L 261.349414 -198.422029 
L 257.602355 -199.603777 
L 253.902856 -200.78562 
L 250.299117 -201.96767 
L 246.682241 -203.149707 
L 243.097684 -204.331984 
L 239.596412 -205.514271 
L 235.977192 -206.696833 
L 232.385241 -207.879277 
L 228.980367 -209.061986 
L 225.596682 -210.24468 
L 222.177363 -211.427567 
L 218.930061 -212.610713 
L 215.593848 -213.794041 
L 212.313611 -214.977489 
L 209.107951 -216.160991 
L 205.899135 -217.344559 
L 202.831392 -218.528416 
L 199.776381 -219.71238 
L 196.758601 -220.896451 
L 193.674665 -222.080814 
L 190.866805 -223.265378 
L 188.00801 -224.450123 
L 185.066498 -225.634936 
L 182.25829 -226.819898 
L 179.391289 -228.005175 
L 176.637861 -229.190486 
L 173.98614 -230.37611 
L 171.197552 -231.561754 
L 168.608947 -232.7475 
L 166.067501 -233.933453 
L 163.465377 -235.119586 
L 161.124798 -236.30581 
L 158.768622 -237.492427 
L 156.502305 -238.679009 
L 154.210339 -239.865849 
L 151.945087 -241.05278 
L 149.745517 -242.239924 
L 147.638057 -243.427145 
L 145.493338 -244.614622 
L 143.46515 -245.802195 
L 141.469956 -246.989917 
L 139.415711 -248.177769 
L 137.527865 -249.365827 
L 135.663871 -250.554084 
L 133.883962 -251.74244 
L 132.124123 -252.931138 
L 130.508338 -254.119853 
L 128.93931 -255.30867 
L 127.382869 -256.497772 
L 125.925059 -257.68681 
L 124.44928 -258.87613 
L 123.047197 -260.065673 
L 121.646121 -261.255247 
L 120.448317 -262.445009 
L 119.106306 -263.634977 
L 117.872546 -264.825031 
L 116.809841 -266.015101 
L 115.653857 -267.205567 
L 114.510646 -268.396065 
L 113.518588 -269.58689 
L 112.600812 -270.777663 
L 111.64412 -271.968687 
L 110.739441 -273.159706 
L 109.837127 -274.350949 
L 108.96244 -275.542187 
L 108.228732 -276.733731 
L 107.512409 -277.925347 
L 106.812362 -279.11698 
L 106.070427 -280.308982 
L 105.401084 -281.501098 
L 104.772293 -282.693257 
L 104.171252 -283.885476 
L 103.654584 -285.077909 
L 102.996025 -286.270436 
L 102.560023 -287.463267 
L 102.110789 -288.656138 
L 101.758086 -289.849211 
L 101.453742 -291.042197 
L 101.086278 -292.235417 
L 100.821159 -293.428803 
L 100.555143 -294.622286 
L 100.283211 -295.815847 
L 99.991853 -297.009631 
L 99.922442 -298.20361 
L 99.784369 -299.397594 
L 99.710868 -300.591835 
L 99.576237 -301.786193 
L 99.523512 -302.980579 
L 99.503556 -304.175155 
L 99.461386 -305.369952 
L 99.515073 -306.564733 
L 99.687288 -307.759711 
L 99.926571 -308.954751 
L 100.188314 -310.150069 
L 100.442334 -311.345459 
L 100.753675 -312.540854 
L 101.121557 -313.736644 
L 101.474483 -314.932508 
L 101.951803 -316.128398 
L 102.416853 -317.324506 
L 102.990594 -318.520605 
L 103.69512 -319.717038 
L 104.274256 -320.913379 
L 104.860717 -322.110044 
L 105.479467 -323.306775 
L 106.24664 -324.503625 
L 107.047928 -325.700714 
L 107.891949 -326.897706 
L 108.843387 -328.095077 
L 109.579527 -329.292584 
L 110.640517 -330.490409 
L 111.732059 -331.68815 
L 112.649696 -332.886106 
L 113.922156 -334.084411 
L 114.947655 -335.282576 
L 116.100162 -336.480527 
L 117.168849 -337.679277 
L 118.518573 -338.87805 
L 119.450341 -340.076724 
L 120.752548 -341.275586 
L 122.101744 -342.474561 
L 122.760092 -343.673967 
L 124.311689 -344.873158 
L 125.335597 -346.072705 
L 126.544777 -347.272111 
L 127.968907 -348.471758 
L 129.053415 -349.671554 
L 130.110831 -350.871208 
L 131.136322 -352.070839 
L 132.404806 -353.270552 
L 133.83201 -354.471076 
L 134.897158 -355.671778 
L 136.215855 -356.872349 
L 137.203873 -358.072823 
L 138.500604 -359.273592 
L 139.583185 -360.474311 
L 140.827488 -361.675434 
L 142.341529 -362.876473 
L 143.736162 -364.078142 
L 144.819414 -365.279649 
L 194.455486 -365.279649 
L 194.455486 -365.279649 
L 191.111074 -364.078142 
L 187.959438 -362.876473 
L 184.708467 -361.675434 
L 181.717685 -360.474311 
L 178.771198 -359.273592 
L 175.903269 -358.072823 
L 172.906523 -356.872349 
L 170.061419 -355.671778 
L 167.06272 -354.471076 
L 164.407015 -353.270552 
L 161.644511 -352.070839 
L 159.304402 -350.871208 
L 156.644579 -349.671554 
L 154.495798 -348.471758 
L 151.904881 -347.272111 
L 149.8389 -346.072705 
L 148.273537 -344.873158 
L 146.353579 -343.673967 
L 144.332397 -342.474561 
L 142.422268 -341.275586 
L 140.435691 -340.076724 
L 138.78475 -338.87805 
L 137.229974 -337.679277 
L 135.670787 -336.480527 
L 133.929649 -335.282576 
L 132.288553 -334.084411 
L 130.741037 -332.886106 
L 129.550634 -331.68815 
L 128.361858 -330.490409 
L 127.214178 -329.292584 
L 126.058645 -328.095077 
L 124.892487 -326.897706 
L 123.806182 -325.700714 
L 122.694649 -324.503625 
L 121.680839 -323.306775 
L 120.761868 -322.110044 
L 119.806577 -320.913379 
L 118.98929 -319.717038 
L 118.277987 -318.520605 
L 117.422346 -317.324506 
L 116.606093 -316.128398 
L 115.878068 -314.932508 
L 115.141653 -313.736644 
L 114.52429 -312.540854 
L 113.92918 -311.345459 
L 113.326386 -310.150069 
L 112.799719 -308.954751 
L 112.389511 -307.759711 
L 112.015045 -306.564733 
L 111.598594 -305.369952 
L 111.262245 -304.175155 
L 110.992276 -302.980579 
L 110.73878 -301.786193 
L 110.505105 -300.591835 
L 110.394819 -299.397594 
L 110.165781 -298.20361 
L 110.061672 -297.009631 
L 110.049444 -295.815847 
L 110.079791 -294.622286 
L 110.054025 -293.428803 
L 110.153031 -292.235417 
L 110.288945 -291.042197 
L 110.420438 -289.849211 
L 110.642234 -288.656138 
L 110.865082 -287.463267 
L 111.267298 -286.270436 
L 111.62656 -285.077909 
L 112.110328 -283.885476 
L 112.63764 -282.693257 
L 113.160831 -281.501098 
L 113.682257 -280.308982 
L 114.323325 -279.11698 
L 115.03126 -277.925347 
L 115.875584 -276.733731 
L 116.709275 -275.542187 
L 117.61047 -274.350949 
L 118.562127 -273.159706 
L 119.535033 -271.968687 
L 120.560258 -270.777663 
L 121.657108 -269.58689 
L 122.738835 -268.396065 
L 123.83549 -267.205567 
L 125.028376 -266.015101 
L 126.198754 -264.825031 
L 127.520886 -263.634977 
L 128.757256 -262.445009 
L 130.165526 -261.255247 
L 131.497067 -260.065673 
L 132.946435 -258.87613 
L 134.393092 -257.68681 
L 135.888725 -256.497772 
L 137.406611 -255.30867 
L 139.022046 -254.119853 
L 140.653401 -252.931138 
L 142.279118 -251.74244 
L 144.004311 -250.554084 
L 145.837689 -249.365827 
L 147.588396 -248.177769 
L 149.475001 -246.989917 
L 151.408768 -245.802195 
L 153.310295 -244.614622 
L 155.235017 -243.427145 
L 157.306936 -242.239924 
L 159.410799 -241.05278 
L 161.673737 -239.865849 
L 163.875124 -238.679009 
L 166.149839 -237.492427 
L 168.401289 -236.30581 
L 170.83657 -235.119586 
L 173.316404 -233.933453 
L 175.717251 -232.7475 
L 178.258899 -231.561754 
L 180.803972 -230.37611 
L 183.436126 -229.190486 
L 186.122798 -228.005175 
L 188.834495 -226.819898 
L 191.763792 -225.634936 
L 194.636511 -224.450123 
L 197.550329 -223.265378 
L 200.523703 -222.080814 
L 203.519709 -220.896451 
L 206.600121 -219.71238 
L 209.696817 -218.528416 
L 212.826573 -217.344559 
L 215.967975 -216.160991 
L 219.30913 -214.977489 
L 222.703835 -213.794041 
L 226.031894 -212.610713 
L 229.506756 -211.427567 
L 232.911905 -210.24468 
L 236.435852 -209.061986 
L 240.052058 -207.879277 
L 243.64915 -206.696833 
L 247.260688 -205.514271 
L 251.000971 -204.331984 
L 254.677509 -203.149707 
L 258.420387 -201.96767 
L 262.155167 -200.78562 
L 266.05481 -199.603777 
L 269.948921 -198.422029 
L 273.867662 -197.240284 
L 277.839055 -196.058661 
L 281.762705 -194.87712 
L 285.747246 -193.695794 
L 289.76829 -192.514417 
L 293.730721 -191.333252 
L 297.793641 -190.152026 
L 301.864514 -188.970945 
L 305.965168 -187.789793 
L 310.100557 -186.608744 
L 314.203432 -185.427658 
L 318.228087 -184.246648 
L 322.289066 -183.065633 
L 326.417591 -181.884666 
L 330.409992 -180.703796 
L 334.519584 -179.522939 
L 338.631701 -178.341932 
L 342.736936 -177.161058 
L 346.830199 -175.980216 
L 350.82301 -174.799148 
L 354.879262 -173.618252 
L 358.919341 -172.437252 
L 362.91407 -171.256072 
L 366.961502 -170.07502 
L 370.909912 -168.893738 
L 374.810397 -167.712382 
L 378.58774 -166.531023 
L 382.540841 -165.349622 
L 386.469365 -164.168043 
L 390.282966 -162.986538 
L 394.084574 -161.804917 
L 397.823943 -160.62314 
L 401.578868 -159.441032 
L 405.293267 -158.258904 
L 408.947074 -157.076714 
L 412.5908 -155.894364 
L 416.095945 -154.711857 
L 419.687677 -153.529186 
L 423.171016 -152.346343 
L 426.613867 -151.163144 
L 430.101739 -149.979925 
L 433.454381 -148.796441 
L 436.913079 -147.612685 
L 440.217809 -146.428786 
L 443.382888 -145.244603 
L 446.508531 -144.060164 
L 449.791446 -142.87542 
L 452.812709 -141.690531 
L 455.822955 -140.505335 
L 458.689757 -139.319949 
L 461.535491 -138.134467 
L 464.262068 -136.948485 
L 466.783402 -135.762308 
L 469.441049 -134.575901 
L 472.122952 -133.389286 
L 474.396624 -132.202297 
L 476.705196 -131.014779 
L 478.791633 -129.826946 
L 480.870216 -128.639053 
L 482.73087 -127.450908 
L 484.567133 -126.262352 
L 486.379576 -125.07333 
L 488.14495 -123.884061 
L 489.659102 -122.694547 
L 490.99963 -121.504665 
L 492.159857 -120.314487 
L 493.3414 -119.123865 
L 494.418024 -117.932936 
L 495.239421 -116.741777 
L 495.946326 -115.550099 
L 496.707903 -114.358218 
L 497.227966 -113.165961 
L 497.517655 -111.973408 
L 497.766264 -110.780625 
L 497.980198 -109.587375 
L 498.088394 -108.393735 
L 498.109091 -107.199844 
L 497.927625 -106.005534 
L 497.644042 -104.810968 
L 497.280821 -103.616143 
L 496.505139 -102.420826 
L 495.91304 -101.224883 
L 494.923672 -100.028959 
L 494.005601 -98.832398 
L 492.860323 -97.635482 
L 491.656774 -96.438492 
L 490.508998 -95.240954 
L 489.305928 -94.043023 
L 488.116635 -92.844755 
L 486.71484 -91.646339 
L 485.369419 -90.447769 
L 483.845045 -89.248698 
L 482.479485 -88.049428 
L 480.519535 -86.850007 
L 478.899153 -85.650271 
L 476.99689 -84.450043 
L 475.41927 -83.249508 
L 473.437454 -82.048675 
L 471.71143 -80.84776 
L 469.490594 -79.646648 
L 467.627594 -78.445488 
L 465.819253 -77.24412 
L 463.761574 -76.041982 
L 461.831349 -74.840196 
L 459.760754 -73.637478 
L 457.863957 -72.434517 
L 455.821293 -71.231658 
L 453.783849 -70.028547 
L 451.628358 -68.825455 
z
" style="stroke: #ff7f0e; stroke-opacity: 0.3"/>
    </defs>
    <g clip-path="url(#p9fa3bd3d03)">
     <use xlink:href="#mcc12dc5019" x="0" y="432" style="fill: #ff7f0e; fill-opacity: 0.3; stroke: #ff7f0e; stroke-opacity: 0.3"/>
    </g>
   </g>
   <g id="LineCollection_1">
    <path d="M 444.866706 363.145836 
L 449.560585 363.145836 
" clip-path="url(#p9fa3bd3d03)" style="fill: none; stroke: #000000; stroke-width: 1.5"/>
    <path d="M 455.781533 344.530828 
L 459.024577 344.530828 
" clip-path="url(#p9fa3bd3d03)" style="fill: none; stroke: #000000; stroke-width: 1.5"/>
    <path d="M 447.067412 325.976192 
L 450.566485 325.976192 
" clip-path="url(#p9fa3bd3d03)" style="fill: none; stroke: #000000; stroke-width: 1.5"/>
    <path d="M 475.989665 307.301086 
L 479.403395 307.301086 
" clip-path="url(#p9fa3bd3d03)" style="fill: none; stroke: #000000; stroke-width: 1.5"/>
    <path d="M 468.641036 288.740961 
L 472.993542 288.740961 
" clip-path="url(#p9fa3bd3d03)" style="fill: none; stroke: #000000; stroke-width: 1.5"/>
    <path d="M 406.032651 270.357563 
L 411.921335 270.357563 
" clip-path="url(#p9fa3bd3d03)" style="fill: none; stroke: #000000; stroke-width: 1.5"/>
    <path d="M 322.301812 252.045515 
L 327.593093 252.045515 
" clip-path="url(#p9fa3bd3d03)" style="fill: none; stroke: #000000; stroke-width: 1.5"/>
    <path d="M 243.478209 233.718099 
L 247.916058 233.718099 
" clip-path="url(#p9fa3bd3d03)" style="fill: none; stroke: #000000; stroke-width: 1.5"/>
    <path d="M 198.834579 215.279817 
L 203.016398 215.279817 
" clip-path="url(#p9fa3bd3d03)" style="fill: none; stroke: #000000; stroke-width: 1.5"/>
    <path d="M 170.23548 196.788572 
L 175.014703 196.788572 
" clip-path="url(#p9fa3bd3d03)" style="fill: none; stroke: #000000; stroke-width: 1.5"/>
    <path d="M 144.282022 178.289506 
L 149.231931 178.289506 
" clip-path="url(#p9fa3bd3d03)" style="fill: none; stroke: #000000; stroke-width: 1.5"/>
    <path d="M 120.760847 159.782894 
L 125.710756 159.782894 
" clip-path="url(#p9fa3bd3d03)" style="fill: none; stroke: #000000; stroke-width: 1.5"/>
    <path d="M 93.78327 141.285749 
L 99.757298 141.285749 
" clip-path="url(#p9fa3bd3d03)" style="fill: none; stroke: #000000; stroke-width: 1.5"/>
    <path d="M 97.230562 122.689676 
L 104.911455 122.689676 
" clip-path="url(#p9fa3bd3d03)" style="fill: none; stroke: #000000; stroke-width: 1.5"/>
    <path d="M 104.817002 104.072335 
L 119.154669 104.072335 
" clip-path="url(#p9fa3bd3d03)" style="fill: none; stroke: #000000; stroke-width: 1.5"/>
    <path d="M 135.659478 85.383508 
L 154.60568 85.383508 
" clip-path="url(#p9fa3bd3d03)" style="fill: none; stroke: #000000; stroke-width: 1.5"/>
    <path d="M 168.422177 66.665455 
L 206.314582 66.665455 
" clip-path="url(#p9fa3bd3d03)" style="fill: none; stroke: #000000; stroke-width: 1.5"/>
   </g>
   <g id="line2d_19">
    <path d="M 447.764828 363.144064 
L 446.920971 361.952737 
L 446.361751 360.760496 
L 446.114858 359.56725 
L 446.261532 358.372738 
L 446.796627 357.176978 
L 447.63845 355.980231 
L 448.751951 354.782611 
L 453.937711 349.989777 
L 456.017197 347.595011 
L 456.610943 346.399062 
L 456.883649 345.204145 
L 456.739759 344.010568 
L 456.32174 342.817872 
L 455.478725 341.626543 
L 454.447999 340.435818 
L 451.871149 338.056024 
L 449.053146 335.677006 
L 447.911092 334.486638 
L 446.987899 333.295567 
L 446.367445 332.103522 
L 446.15003 330.910181 
L 446.405604 329.71532 
L 447.082031 328.519105 
L 448.232795 327.321365 
L 449.795189 326.122301 
L 451.704591 324.922122 
L 453.960939 323.720827 
L 459.273293 321.315665 
L 467.363012 317.707534 
L 471.930326 315.304768 
L 473.70581 314.105019 
L 475.117625 312.90644 
L 476.165752 311.70903 
L 476.822439 310.512878 
L 477.158725 309.317757 
L 477.125325 308.123825 
L 476.907368 306.930486 
L 475.881164 304.545706 
L 473.017756 299.778754 
L 472.05262 297.393778 
L 471.604548 295.007139 
L 470.950571 291.427122 
L 470.649113 290.234052 
L 470.044801 289.041955 
L 469.098623 287.850958 
L 467.869143 286.660871 
L 466.326479 285.471792 
L 464.256548 284.284408 
L 461.72614 283.098505 
L 458.732165 281.914092 
L 455.262302 280.731209 
L 451.309194 279.549881 
L 442.160861 277.191218 
L 431.560669 274.837223 
L 381.117321 264.253064 
L 365.986024 260.719599 
L 341.137639 254.8293 
L 324.712796 251.299995 
L 306.772175 247.775563 
L 276.373029 241.903112 
L 265.307162 239.550615 
L 255.361416 237.194515 
L 246.731776 234.834184 
L 239.400945 232.469677 
L 233.221001 230.101469 
L 227.927642 227.73041 
L 208.129846 218.241751 
L 192.196415 211.128746 
L 187.453728 208.755916 
L 185.318459 207.568742 
L 183.43461 206.38076 
L 180.244832 204.002937 
L 178.889346 202.813256 
L 177.728324 201.622949 
L 175.821889 199.241 
L 172.304463 194.476151 
L 171.287819 193.28538 
L 168.792678 190.905324 
L 167.290963 189.716113 
L 163.745851 187.339432 
L 159.614992 184.964635 
L 155.076475 182.591149 
L 145.786998 177.84486 
L 141.509136 175.470536 
L 137.741142 173.094572 
L 134.393697 170.717257 
L 130.147316 167.148791 
L 126.147602 163.579533 
L 123.283378 161.200663 
L 118.424781 157.634167 
L 114.811576 155.257705 
L 107.419717 150.505314 
L 104.084774 148.127958 
L 101.340809 145.748702 
L 100.261502 144.558133 
L 99.397152 143.366872 
L 98.674422 142.175156 
L 98.111648 140.982926 
L 97.737305 139.79009 
L 97.522094 138.596742 
L 97.58542 136.208459 
L 98.032647 133.818941 
L 99.594983 127.843718 
L 100.454493 124.258835 
L 101.679561 119.478737 
L 102.738514 117.087252 
L 104.303182 114.694142 
L 107.626554 111.101336 
L 110.465056 108.704129 
L 111.987142 107.505195 
L 119.157899 102.705978 
L 126.367686 97.906636 
L 132.734811 93.110004 
L 135.689672 90.712423 
L 137.062325 89.513969 
L 144.811755 83.518852 
L 152.162553 78.719056 
L 154.207718 77.51844 
L 158.848308 75.115439 
L 169.947388 69.109551 
L 174.354765 66.7073 
L 174.354765 66.7073 
" clip-path="url(#p9fa3bd3d03)" style="fill: none; stroke: #1f77b4; stroke-width: 1.5; stroke-linecap: round"/>
   </g>
   <g id="line2d_20">
    <path d="M 438.285166 363.174545 
L 452.137515 357.159804 
L 461.558676 352.353352 
L 468.008773 348.750492 
L 471.953145 346.349729 
L 475.398413 343.950572 
L 478.589587 341.552231 
L 482.674276 337.956977 
L 484.972306 335.561508 
L 486.784344 333.167602 
L 487.568496 331.971041 
L 488.746265 329.579174 
L 489.143393 328.383857 
L 489.551354 325.994466 
L 489.635281 324.800156 
L 489.464858 322.412625 
L 489.219154 321.219375 
L 488.365756 318.834039 
L 487.140055 316.449901 
L 486.405464 315.258223 
L 484.542055 312.876135 
L 482.278337 310.495335 
L 479.577731 308.115939 
L 476.533385 305.737648 
L 472.994812 303.360947 
L 467.124555 299.797703 
L 462.622813 297.424099 
L 455.297941 293.865533 
L 447.194777 290.309469 
L 438.472002 286.755397 
L 429.054771 283.203559 
L 419.03541 279.653657 
L 404.795502 274.923286 
L 386.019201 269.013462 
L 358.419829 260.743928 
L 334.044663 253.658068 
L 277.639528 237.12288 
L 258.451624 231.21438 
L 240.10735 225.303167 
L 225.980141 220.572433 
L 212.689776 215.839009 
L 203.132733 212.28762 
L 194.076153 208.734622 
L 182.767556 203.994825 
L 174.824636 200.438246 
L 167.271374 196.880414 
L 160.212998 193.320991 
L 153.618695 189.760076 
L 147.445709 186.197805 
L 141.696276 182.634173 
L 136.46886 179.068862 
L 131.65312 175.502228 
L 128.62989 173.12387 
L 124.512071 169.554991 
L 120.771474 165.984899 
L 117.559035 162.41311 
L 115.60489 160.031313 
L 112.924375 156.457813 
L 110.646019 152.88302 
L 108.828977 149.306743 
L 107.762949 146.922091 
L 106.916778 144.536733 
L 105.924637 140.957803 
L 105.466451 138.571197 
L 105.144522 136.184153 
L 105.045928 133.79639 
L 105.091252 131.408165 
L 105.464546 127.824845 
L 106.222266 124.240289 
L 106.930766 121.849931 
L 107.772319 119.459146 
L 109.459279 115.871602 
L 111.487096 112.282962 
L 113.019306 109.889956 
L 114.730218 107.496375 
L 117.632458 103.904923 
L 119.887937 101.509591 
L 122.256871 99.113894 
L 129.019615 93.12195 
L 133.495327 89.525439 
L 143.6818 82.328446 
L 148.930695 78.729448 
L 161.221353 71.525689 
L 167.973715 67.921858 
L 170.295939 66.720351 
L 170.295939 66.720351 
" clip-path="url(#p9fa3bd3d03)" style="fill: none; stroke-dasharray: 5.55,2.4; stroke-dashoffset: 0; stroke: #ff7f0e; stroke-width: 1.5"/>
   </g>
   <g id="line2d_21">
    <defs>
     <path id="m83657946e5" d="M 0 3 
C 0.795609 3 1.55874 2.683901 2.12132 2.12132 
C 2.683901 1.55874 3 0.795609 3 0 
C 3 -0.795609 2.683901 -1.55874 2.12132 -2.12132 
C 1.55874 -2.683901 0.795609 -3 0 -3 
C -0.795609 -3 -1.55874 -2.683901 -2.12132 -2.12132 
C -2.683901 -1.55874 -3 -0.795609 -3 0 
C -3 0.795609 -2.683901 1.55874 -2.12132 2.12132 
C -1.55874 2.683901 -0.795609 3 0 3 
z
" style="stroke: #000000"/>
    </defs>
    <g clip-path="url(#p9fa3bd3d03)">
     <use xlink:href="#m83657946e5" x="447.213646" y="363.145836" style="stroke: #000000"/>
     <use xlink:href="#m83657946e5" x="457.403055" y="344.530828" style="stroke: #000000"/>
     <use xlink:href="#m83657946e5" x="448.816949" y="325.976192" style="stroke: #000000"/>
     <use xlink:href="#m83657946e5" x="477.69653" y="307.301086" style="stroke: #000000"/>
     <use xlink:href="#m83657946e5" x="470.817289" y="288.740961" style="stroke: #000000"/>
     <use xlink:href="#m83657946e5" x="408.976993" y="270.357563" style="stroke: #000000"/>
     <use xlink:href="#m83657946e5" x="324.947453" y="252.045515" style="stroke: #000000"/>
     <use xlink:href="#m83657946e5" x="245.697134" y="233.718099" style="stroke: #000000"/>
     <use xlink:href="#m83657946e5" x="200.925489" y="215.279817" style="stroke: #000000"/>
     <use xlink:href="#m83657946e5" x="172.625091" y="196.788572" style="stroke: #000000"/>
     <use xlink:href="#m83657946e5" x="146.756977" y="178.289506" style="stroke: #000000"/>
     <use xlink:href="#m83657946e5" x="123.235801" y="159.782894" style="stroke: #000000"/>
     <use xlink:href="#m83657946e5" x="96.770284" y="141.285749" style="stroke: #000000"/>
     <use xlink:href="#m83657946e5" x="101.071009" y="122.689676" style="stroke: #000000"/>
     <use xlink:href="#m83657946e5" x="111.985835" y="104.072335" style="stroke: #000000"/>
     <use xlink:href="#m83657946e5" x="145.132579" y="85.383508" style="stroke: #000000"/>
     <use xlink:href="#m83657946e5" x="187.36838" y="66.665455" style="stroke: #000000"/>
    </g>
   </g>
   <g id="patch_3">
    <path d="M 72 378 
L 72 51.84 
" style="fill: none"/>
   </g>
   <g id="patch_4">
    <path d="M 518.4 378 
L 518.4 51.84 
" style="fill: none"/>
   </g>
   <g id="patch_5">
    <path d="M 72 378 
L 518.4 378 
" style="fill: none"/>
   </g>
   <g id="patch_6">
    <path d="M 72 51.84 
L 518.4 51.84 
" style="fill: none"/>
   </g>
   <g id="legend_1">
    <g id="patch_7">
     <path d="M 322.2 150.043125 
L 510 150.043125 
Q 512.4 150.043125 512.4 147.643125 
L 512.4 60.24 
Q 512.4 57.84 510 57.84 
L 322.2 57.84 
Q 319.8 57.84 319.8 60.24 
L 319.8 147.643125 
Q 319.8 150.043125 322.2 150.043125 
z
" style="fill: #eaeaf2; opacity: 0.8; stroke: #cccccc; stroke-linejoin: miter"/>
    </g>
    <g id="line2d_22">
     <path d="M 324.6 67.56 
L 336.6 67.56 
L 348.6 67.56 
" style="fill: none; stroke: #1f77b4; stroke-width: 1.5; stroke-linecap: round"/>
    </g>
    <g id="text_12">
     <!-- $\mathrm{GP}($$\nu_\mathrm{bkg}$ + $\delta\nu_\mathrm{He}$ + $\delta\nu_\mathrm{BCZ}$$,\,K)$ -->
     <g style="fill: #262626" transform="translate(358.2 71.76)scale(0.12 -0.12)">
      <defs>
       <path id="DejaVuSans-47" d="M 3809 666 
L 3809 1919 
L 2778 1919 
L 2778 2438 
L 4434 2438 
L 4434 434 
Q 4069 175 3628 42 
Q 3188 -91 2688 -91 
Q 1594 -91 976 548 
Q 359 1188 359 2328 
Q 359 3472 976 4111 
Q 1594 4750 2688 4750 
Q 3144 4750 3555 4637 
Q 3966 4525 4313 4306 
L 4313 3634 
Q 3963 3931 3569 4081 
Q 3175 4231 2741 4231 
Q 1884 4231 1454 3753 
Q 1025 3275 1025 2328 
Q 1025 1384 1454 906 
Q 1884 428 2741 428 
Q 3075 428 3337 486 
Q 3600 544 3809 666 
z
" transform="scale(0.015625)"/>
       <path id="DejaVuSans-50" d="M 1259 4147 
L 1259 2394 
L 2053 2394 
Q 2494 2394 2734 2622 
Q 2975 2850 2975 3272 
Q 2975 3691 2734 3919 
Q 2494 4147 2053 4147 
L 1259 4147 
z
M 628 4666 
L 2053 4666 
Q 2838 4666 3239 4311 
Q 3641 3956 3641 3272 
Q 3641 2581 3239 2228 
Q 2838 1875 2053 1875 
L 1259 1875 
L 1259 0 
L 628 0 
L 628 4666 
z
" transform="scale(0.015625)"/>
       <path id="DejaVuSans-28" d="M 1984 4856 
Q 1566 4138 1362 3434 
Q 1159 2731 1159 2009 
Q 1159 1288 1364 580 
Q 1569 -128 1984 -844 
L 1484 -844 
Q 1016 -109 783 600 
Q 550 1309 550 2009 
Q 550 2706 781 3412 
Q 1013 4119 1484 4856 
L 1984 4856 
z
" transform="scale(0.015625)"/>
       <path id="DejaVuSans-62" d="M 3116 1747 
Q 3116 2381 2855 2742 
Q 2594 3103 2138 3103 
Q 1681 3103 1420 2742 
Q 1159 2381 1159 1747 
Q 1159 1113 1420 752 
Q 1681 391 2138 391 
Q 2594 391 2855 752 
Q 3116 1113 3116 1747 
z
M 1159 2969 
Q 1341 3281 1617 3432 
Q 1894 3584 2278 3584 
Q 2916 3584 3314 3078 
Q 3713 2572 3713 1747 
Q 3713 922 3314 415 
Q 2916 -91 2278 -91 
Q 1894 -91 1617 61 
Q 1341 213 1159 525 
L 1159 0 
L 581 0 
L 581 4863 
L 1159 4863 
L 1159 2969 
z
" transform="scale(0.015625)"/>
       <path id="DejaVuSans-6b" d="M 581 4863 
L 1159 4863 
L 1159 1991 
L 2875 3500 
L 3609 3500 
L 1753 1863 
L 3688 0 
L 2938 0 
L 1159 1709 
L 1159 0 
L 581 0 
L 581 4863 
z
" transform="scale(0.015625)"/>
       <path id="DejaVuSans-67" d="M 2906 1791 
Q 2906 2416 2648 2759 
Q 2391 3103 1925 3103 
Q 1463 3103 1205 2759 
Q 947 2416 947 1791 
Q 947 1169 1205 825 
Q 1463 481 1925 481 
Q 2391 481 2648 825 
Q 2906 1169 2906 1791 
z
M 3481 434 
Q 3481 -459 3084 -895 
Q 2688 -1331 1869 -1331 
Q 1566 -1331 1297 -1286 
Q 1028 -1241 775 -1147 
L 775 -588 
Q 1028 -725 1275 -790 
Q 1522 -856 1778 -856 
Q 2344 -856 2625 -561 
Q 2906 -266 2906 331 
L 2906 616 
Q 2728 306 2450 153 
Q 2172 0 1784 0 
Q 1141 0 747 490 
Q 353 981 353 1791 
Q 353 2603 747 3093 
Q 1141 3584 1784 3584 
Q 2172 3584 2450 3431 
Q 2728 3278 2906 2969 
L 2906 3500 
L 3481 3500 
L 3481 434 
z
" transform="scale(0.015625)"/>
       <path id="ArialMT-20" transform="scale(0.015625)"/>
       <path id="ArialMT-2b" d="M 1603 741 
L 1603 1997 
L 356 1997 
L 356 2522 
L 1603 2522 
L 1603 3769 
L 2134 3769 
L 2134 2522 
L 3381 2522 
L 3381 1997 
L 2134 1997 
L 2134 741 
L 1603 741 
z
" transform="scale(0.015625)"/>
       <path id="DejaVuSans-Oblique-3b4" d="M 3472 4053 
Q 3197 4272 2450 4272 
Q 1659 4272 1588 3906 
Q 1531 3619 2328 3469 
Q 2953 3353 3253 3003 
Q 3616 2581 3447 1716 
Q 3284 888 2763 400 
Q 2238 -91 1488 -91 
Q 741 -91 406 400 
Q 72 888 241 1747 
Q 363 2384 891 2900 
Q 1097 3100 1353 3213 
Q 913 3459 1000 3900 
Q 1166 4750 2544 4750 
Q 3234 4750 3566 4531 
L 3472 4053 
z
M 1753 3056 
Q 1525 2966 1306 2738 
Q 969 2384 847 1747 
Q 722 1113 919 756 
Q 1119 397 1584 397 
Q 2044 397 2381 759 
Q 2722 1122 2838 1716 
Q 2956 2338 2731 2638 
Q 2491 2959 2103 2994 
Q 1906 3013 1753 3056 
z
" transform="scale(0.015625)"/>
       <path id="DejaVuSans-65" d="M 3597 1894 
L 3597 1613 
L 953 1613 
Q 991 1019 1311 708 
Q 1631 397 2203 397 
Q 2534 397 2845 478 
Q 3156 559 3463 722 
L 3463 178 
Q 3153 47 2828 -22 
Q 2503 -91 2169 -91 
Q 1331 -91 842 396 
Q 353 884 353 1716 
Q 353 2575 817 3079 
Q 1281 3584 2069 3584 
Q 2775 3584 3186 3129 
Q 3597 2675 3597 1894 
z
M 3022 2063 
Q 3016 2534 2758 2815 
Q 2500 3097 2075 3097 
Q 1594 3097 1305 2825 
Q 1016 2553 972 2059 
L 3022 2063 
z
" transform="scale(0.015625)"/>
       <path id="DejaVuSans-42" d="M 1259 2228 
L 1259 519 
L 2272 519 
Q 2781 519 3026 730 
Q 3272 941 3272 1375 
Q 3272 1813 3026 2020 
Q 2781 2228 2272 2228 
L 1259 2228 
z
M 1259 4147 
L 1259 2741 
L 2194 2741 
Q 2656 2741 2882 2914 
Q 3109 3088 3109 3444 
Q 3109 3797 2882 3972 
Q 2656 4147 2194 4147 
L 1259 4147 
z
M 628 4666 
L 2241 4666 
Q 2963 4666 3353 4366 
Q 3744 4066 3744 3513 
Q 3744 3084 3544 2831 
Q 3344 2578 2956 2516 
Q 3422 2416 3680 2098 
Q 3938 1781 3938 1306 
Q 3938 681 3513 340 
Q 3088 0 2303 0 
L 628 0 
L 628 4666 
z
" transform="scale(0.015625)"/>
       <path id="DejaVuSans-43" d="M 4122 4306 
L 4122 3641 
Q 3803 3938 3442 4084 
Q 3081 4231 2675 4231 
Q 1875 4231 1450 3742 
Q 1025 3253 1025 2328 
Q 1025 1406 1450 917 
Q 1875 428 2675 428 
Q 3081 428 3442 575 
Q 3803 722 4122 1019 
L 4122 359 
Q 3791 134 3420 21 
Q 3050 -91 2638 -91 
Q 1578 -91 968 557 
Q 359 1206 359 2328 
Q 359 3453 968 4101 
Q 1578 4750 2638 4750 
Q 3056 4750 3426 4639 
Q 3797 4528 4122 4306 
z
" transform="scale(0.015625)"/>
       <path id="DejaVuSans-5a" d="M 359 4666 
L 4025 4666 
L 4025 4184 
L 1075 531 
L 4097 531 
L 4097 0 
L 288 0 
L 288 481 
L 3238 4134 
L 359 4134 
L 359 4666 
z
" transform="scale(0.015625)"/>
       <path id="DejaVuSans-2c" d="M 750 794 
L 1409 794 
L 1409 256 
L 897 -744 
L 494 -744 
L 750 256 
L 750 794 
z
" transform="scale(0.015625)"/>
       <path id="DejaVuSans-Oblique-4b" d="M 1081 4666 
L 1716 4666 
L 1331 2700 
L 3781 4666 
L 4622 4666 
L 1850 2438 
L 3878 0 
L 3109 0 
L 1247 2272 
L 806 0 
L 172 0 
L 1081 4666 
z
" transform="scale(0.015625)"/>
       <path id="DejaVuSans-29" d="M 513 4856 
L 1013 4856 
Q 1481 4119 1714 3412 
Q 1947 2706 1947 2009 
Q 1947 1309 1714 600 
Q 1481 -109 1013 -844 
L 513 -844 
Q 928 -128 1133 580 
Q 1338 1288 1338 2009 
Q 1338 2731 1133 3434 
Q 928 4138 513 4856 
z
" transform="scale(0.015625)"/>
      </defs>
      <use xlink:href="#DejaVuSans-47" transform="translate(0 0.125)"/>
      <use xlink:href="#DejaVuSans-50" transform="translate(77.490234 0.125)"/>
      <use xlink:href="#DejaVuSans-28" transform="translate(137.792969 0.125)"/>
      <use xlink:href="#DejaVuSans-Oblique-3bd" transform="translate(176.806641 0.125)"/>
      <use xlink:href="#DejaVuSans-62" transform="translate(232.666016 -16.28125)scale(0.7)"/>
      <use xlink:href="#DejaVuSans-6b" transform="translate(277.099609 -16.28125)scale(0.7)"/>
      <use xlink:href="#DejaVuSans-67" transform="translate(317.636719 -16.28125)scale(0.7)"/>
      <use xlink:href="#ArialMT-20" transform="translate(364.804688 0.125)"/>
      <use xlink:href="#ArialMT-2b" transform="translate(392.587891 0.125)"/>
      <use xlink:href="#ArialMT-20" transform="translate(450.986328 0.125)"/>
      <use xlink:href="#DejaVuSans-Oblique-3b4" transform="translate(478.769531 0.125)"/>
      <use xlink:href="#DejaVuSans-Oblique-3bd" transform="translate(539.951172 0.125)"/>
      <use xlink:href="#DejaVuSans-48" transform="translate(595.810547 -16.28125)scale(0.7)"/>
      <use xlink:href="#DejaVuSans-65" transform="translate(648.447266 -16.28125)scale(0.7)"/>
      <use xlink:href="#ArialMT-20" transform="translate(694.248047 0.125)"/>
      <use xlink:href="#ArialMT-2b" transform="translate(722.03125 0.125)"/>
      <use xlink:href="#ArialMT-20" transform="translate(780.429688 0.125)"/>
      <use xlink:href="#DejaVuSans-Oblique-3b4" transform="translate(808.212891 0.125)"/>
      <use xlink:href="#DejaVuSans-Oblique-3bd" transform="translate(869.394531 0.125)"/>
      <use xlink:href="#DejaVuSans-42" transform="translate(925.253906 -16.28125)scale(0.7)"/>
      <use xlink:href="#DejaVuSans-43" transform="translate(973.276367 -16.28125)scale(0.7)"/>
      <use xlink:href="#DejaVuSans-5a" transform="translate(1022.15332 -16.28125)scale(0.7)"/>
      <use xlink:href="#DejaVuSans-2c" transform="translate(1072.841797 0.125)"/>
      <use xlink:href="#DejaVuSans-Oblique-4b" transform="translate(1140.347004 0.125)"/>
      <use xlink:href="#DejaVuSans-29" transform="translate(1205.923176 0.125)"/>
     </g>
    </g>
    <g id="patch_8">
     <path d="M 324.6 90.069375 
L 348.6 90.069375 
L 348.6 81.669375 
L 324.6 81.669375 
z
" style="fill: #1f77b4; fill-opacity: 0.3; stroke: #1f77b4; stroke-opacity: 0.3; stroke-linejoin: miter"/>
    </g>
    <g id="text_13">
     <!-- 95.0% CI -->
     <g style="fill: #262626" transform="translate(358.2 90.069375)scale(0.12 -0.12)">
      <defs>
       <path id="ArialMT-39" d="M 350 1059 
L 891 1109 
Q 959 728 1153 556 
Q 1347 384 1650 384 
Q 1909 384 2104 503 
Q 2300 622 2425 820 
Q 2550 1019 2634 1356 
Q 2719 1694 2719 2044 
Q 2719 2081 2716 2156 
Q 2547 1888 2255 1720 
Q 1963 1553 1622 1553 
Q 1053 1553 659 1965 
Q 266 2378 266 3053 
Q 266 3750 677 4175 
Q 1088 4600 1706 4600 
Q 2153 4600 2523 4359 
Q 2894 4119 3086 3673 
Q 3278 3228 3278 2384 
Q 3278 1506 3087 986 
Q 2897 466 2520 194 
Q 2144 -78 1638 -78 
Q 1100 -78 759 220 
Q 419 519 350 1059 
z
M 2653 3081 
Q 2653 3566 2395 3850 
Q 2138 4134 1775 4134 
Q 1400 4134 1122 3828 
Q 844 3522 844 3034 
Q 844 2597 1108 2323 
Q 1372 2050 1759 2050 
Q 2150 2050 2401 2323 
Q 2653 2597 2653 3081 
z
" transform="scale(0.015625)"/>
       <path id="ArialMT-2e" d="M 581 0 
L 581 641 
L 1222 641 
L 1222 0 
L 581 0 
z
" transform="scale(0.015625)"/>
       <path id="ArialMT-25" d="M 372 3481 
Q 372 3972 619 4315 
Q 866 4659 1334 4659 
Q 1766 4659 2048 4351 
Q 2331 4044 2331 3447 
Q 2331 2866 2045 2552 
Q 1759 2238 1341 2238 
Q 925 2238 648 2547 
Q 372 2856 372 3481 
z
M 1350 4272 
Q 1141 4272 1002 4090 
Q 863 3909 863 3425 
Q 863 2984 1003 2804 
Q 1144 2625 1350 2625 
Q 1563 2625 1702 2806 
Q 1841 2988 1841 3469 
Q 1841 3913 1700 4092 
Q 1559 4272 1350 4272 
z
M 1353 -169 
L 3859 4659 
L 4316 4659 
L 1819 -169 
L 1353 -169 
z
M 3334 1075 
Q 3334 1569 3581 1911 
Q 3828 2253 4300 2253 
Q 4731 2253 5014 1945 
Q 5297 1638 5297 1041 
Q 5297 459 5011 145 
Q 4725 -169 4303 -169 
Q 3888 -169 3611 142 
Q 3334 453 3334 1075 
z
M 4316 1866 
Q 4103 1866 3964 1684 
Q 3825 1503 3825 1019 
Q 3825 581 3965 400 
Q 4106 219 4313 219 
Q 4528 219 4667 400 
Q 4806 581 4806 1063 
Q 4806 1506 4665 1686 
Q 4525 1866 4316 1866 
z
" transform="scale(0.015625)"/>
       <path id="ArialMT-43" d="M 3763 1606 
L 4369 1453 
Q 4178 706 3683 314 
Q 3188 -78 2472 -78 
Q 1731 -78 1267 223 
Q 803 525 561 1097 
Q 319 1669 319 2325 
Q 319 3041 592 3573 
Q 866 4106 1370 4382 
Q 1875 4659 2481 4659 
Q 3169 4659 3637 4309 
Q 4106 3959 4291 3325 
L 3694 3184 
Q 3534 3684 3231 3912 
Q 2928 4141 2469 4141 
Q 1941 4141 1586 3887 
Q 1231 3634 1087 3207 
Q 944 2781 944 2328 
Q 944 1744 1114 1308 
Q 1284 872 1643 656 
Q 2003 441 2422 441 
Q 2931 441 3284 734 
Q 3638 1028 3763 1606 
z
" transform="scale(0.015625)"/>
       <path id="ArialMT-49" d="M 597 0 
L 597 4581 
L 1203 4581 
L 1203 0 
L 597 0 
z
" transform="scale(0.015625)"/>
      </defs>
      <use xlink:href="#ArialMT-39"/>
      <use xlink:href="#ArialMT-35" x="55.615234"/>
      <use xlink:href="#ArialMT-2e" x="111.230469"/>
      <use xlink:href="#ArialMT-30" x="139.013672"/>
      <use xlink:href="#ArialMT-25" x="194.628906"/>
      <use xlink:href="#ArialMT-20" x="283.544922"/>
      <use xlink:href="#ArialMT-43" x="311.328125"/>
      <use xlink:href="#ArialMT-49" x="383.544922"/>
     </g>
    </g>
    <g id="line2d_23">
     <path d="M 324.6 103.374375 
L 336.6 103.374375 
L 348.6 103.374375 
" style="fill: none; stroke-dasharray: 5.55,2.4; stroke-dashoffset: 0; stroke: #ff7f0e; stroke-width: 1.5"/>
    </g>
    <g id="text_14">
     <!-- $\mathrm{GP}($$\nu_\mathrm{bkg}$$,\,K)$ -->
     <g style="fill: #262626" transform="translate(358.2 107.574375)scale(0.12 -0.12)">
      <use xlink:href="#DejaVuSans-47" transform="translate(0 0.125)"/>
      <use xlink:href="#DejaVuSans-50" transform="translate(77.490234 0.125)"/>
      <use xlink:href="#DejaVuSans-28" transform="translate(137.792969 0.125)"/>
      <use xlink:href="#DejaVuSans-Oblique-3bd" transform="translate(176.806641 0.125)"/>
      <use xlink:href="#DejaVuSans-62" transform="translate(232.666016 -16.28125)scale(0.7)"/>
      <use xlink:href="#DejaVuSans-6b" transform="translate(277.099609 -16.28125)scale(0.7)"/>
      <use xlink:href="#DejaVuSans-67" transform="translate(317.636719 -16.28125)scale(0.7)"/>
      <use xlink:href="#DejaVuSans-2c" transform="translate(364.804688 0.125)"/>
      <use xlink:href="#DejaVuSans-Oblique-4b" transform="translate(432.309895 0.125)"/>
      <use xlink:href="#DejaVuSans-29" transform="translate(497.886067 0.125)"/>
     </g>
    </g>
    <g id="patch_9">
     <path d="M 324.6 125.88375 
L 348.6 125.88375 
L 348.6 117.48375 
L 324.6 117.48375 
z
" style="fill: #ff7f0e; fill-opacity: 0.3; stroke: #ff7f0e; stroke-opacity: 0.3; stroke-linejoin: miter"/>
    </g>
    <g id="text_15">
     <!-- 95.0% CI -->
     <g style="fill: #262626" transform="translate(358.2 125.88375)scale(0.12 -0.12)">
      <use xlink:href="#ArialMT-39"/>
      <use xlink:href="#ArialMT-35" x="55.615234"/>
      <use xlink:href="#ArialMT-2e" x="111.230469"/>
      <use xlink:href="#ArialMT-30" x="139.013672"/>
      <use xlink:href="#ArialMT-25" x="194.628906"/>
      <use xlink:href="#ArialMT-20" x="283.544922"/>
      <use xlink:href="#ArialMT-43" x="311.328125"/>
      <use xlink:href="#ArialMT-49" x="383.544922"/>
     </g>
    </g>
    <g id="LineCollection_2">
     <path d="M 330.6 138.658125 
L 342.6 138.658125 
" style="fill: none; stroke: #000000; stroke-width: 1.5"/>
    </g>
    <g id="line2d_24"/>
    <g id="line2d_25">
     <g>
      <use xlink:href="#m83657946e5" x="336.6" y="138.658125" style="stroke: #000000"/>
     </g>
    </g>
    <g id="text_16">
     <!-- $\nu_\mathrm{obs}$ -->
     <g style="fill: #262626" transform="translate(358.2 142.858125)scale(0.12 -0.12)">
      <defs>
       <path id="DejaVuSans-73" d="M 2834 3397 
L 2834 2853 
Q 2591 2978 2328 3040 
Q 2066 3103 1784 3103 
Q 1356 3103 1142 2972 
Q 928 2841 928 2578 
Q 928 2378 1081 2264 
Q 1234 2150 1697 2047 
L 1894 2003 
Q 2506 1872 2764 1633 
Q 3022 1394 3022 966 
Q 3022 478 2636 193 
Q 2250 -91 1575 -91 
Q 1294 -91 989 -36 
Q 684 19 347 128 
L 347 722 
Q 666 556 975 473 
Q 1284 391 1588 391 
Q 1994 391 2212 530 
Q 2431 669 2431 922 
Q 2431 1156 2273 1281 
Q 2116 1406 1581 1522 
L 1381 1569 
Q 847 1681 609 1914 
Q 372 2147 372 2553 
Q 372 3047 722 3315 
Q 1072 3584 1716 3584 
Q 2034 3584 2315 3537 
Q 2597 3491 2834 3397 
z
" transform="scale(0.015625)"/>
      </defs>
      <use xlink:href="#DejaVuSans-Oblique-3bd" transform="translate(0 0.3125)"/>
      <use xlink:href="#DejaVuSans-6f" transform="translate(55.859375 -16.09375)scale(0.7)"/>
      <use xlink:href="#DejaVuSans-62" transform="translate(98.686523 -16.09375)scale(0.7)"/>
      <use xlink:href="#DejaVuSans-73" transform="translate(143.120117 -16.09375)scale(0.7)"/>
     </g>
    </g>
   </g>
  </g>
 </g>
 <defs>
  <clipPath id="p9fa3bd3d03">
   <rect x="72" y="51.84" width="446.4" height="326.16"/>
  </clipPath>
 </defs>
</svg>
